<svg width="24" height="24" viewBox="0 0 24 24" fill="none" xmlns="http://www.w3.org/2000/svg">
<path d="M2.30031 20.28L11.9003 10.68L10.5003 9.25996L9.78031 9.96996C9.39031 10.36 8.76031 10.36 8.37031 9.96996L7.66031 9.25996C7.27031 8.86996 7.27031 8.23996 7.66031 7.84996L13.3203 2.18996C13.7103 1.79996 14.3403 1.79996 14.7303 2.18996L15.4403 2.89996C15.8303 3.28996 15.8303 3.91996 15.4403 4.30996L14.7303 4.99996L16.1503 6.42996C16.5403 6.03996 17.1703 6.03996 17.5603 6.42996C17.9503 6.81996 17.9503 7.45996 17.5603 7.84996L18.9703 9.25996L19.6803 8.54996C20.0703 8.15996 20.7103 8.15996 21.1003 8.54996L21.8003 9.25996C22.1903 9.64996 22.1903 10.29 21.8003 10.68L16.1503 16.33C15.7603 16.72 15.1203 16.72 14.7303 16.33L14.0303 15.63C13.6303 15.24 13.6303 14.6 14.0303 14.21L14.7303 13.5L13.3203 12.09L3.71031 21.7C3.32031 22.09 2.69031 22.09 2.30031 21.7C1.91031 21.31 1.91031 20.67 2.30031 20.28ZM20.0003 19C20.5307 19 21.0395 19.2107 21.4145 19.5857C21.7896 19.9608 22.0003 20.4695 22.0003 21V22H12.0003V21C12.0003 20.4695 12.211 19.9608 12.5861 19.5857C12.9612 19.2107 13.4699 19 14.0003 19H20.0003Z" fill="#03346E"/>
</svg>
