<svg width="25" height="24" viewBox="0 0 25 24" fill="none" xmlns="http://www.w3.org/2000/svg">
<path d="M2.80031 20.28L12.4003 10.68L11.0003 9.25996L10.2803 9.96996C9.89031 10.36 9.26031 10.36 8.87031 9.96996L8.16031 9.25996C7.77031 8.86996 7.77031 8.23996 8.16031 7.84996L13.8203 2.18996C14.2103 1.79996 14.8403 1.79996 15.2303 2.18996L15.9403 2.89996C16.3303 3.28996 16.3303 3.91996 15.9403 4.30996L15.2303 4.99996L16.6503 6.42996C17.0403 6.03996 17.6703 6.03996 18.0603 6.42996C18.4503 6.81996 18.4503 7.45996 18.0603 7.84996L19.4703 9.25996L20.1803 8.54996C20.5703 8.15996 21.2103 8.15996 21.6003 8.54996L22.3003 9.25996C22.6903 9.64996 22.6903 10.29 22.3003 10.68L16.6503 16.33C16.2603 16.72 15.6203 16.72 15.2303 16.33L14.5303 15.63C14.1303 15.24 14.1303 14.6 14.5303 14.21L15.2303 13.5L13.8203 12.09L4.21031 21.7C3.82031 22.09 3.19031 22.09 2.80031 21.7C2.41031 21.31 2.41031 20.67 2.80031 20.28ZM20.5003 19C21.0307 19 21.5395 19.2107 21.9145 19.5857C22.2896 19.9608 22.5003 20.4695 22.5003 21V22H12.5003V21C12.5003 20.4695 12.711 19.9608 13.0861 19.5857C13.4612 19.2107 13.9699 19 14.5003 19H20.5003Z" fill="#FFFDFD"/>
</svg>
