<svg width="750" height="500" viewBox="0 0 750 500" fill="none" xmlns="http://www.w3.org/2000/svg">
<path d="M593.5 122.77C591.359 123.147 589.156 122.954 587.113 122.211C585.069 121.468 583.257 120.201 581.858 118.536C580.459 116.872 579.523 114.869 579.142 112.728C578.762 110.588 578.95 108.385 579.69 106.34L604 39.14C604.73 37.0862 605.992 35.2631 607.658 33.8574C609.323 32.4518 611.333 31.5139 613.48 31.14C615.618 30.7532 617.82 30.9409 619.862 31.6841C621.903 32.4273 623.711 33.6993 625.1 35.37L671.17 90C672.573 91.6642 673.514 93.6685 673.897 95.8114C674.28 97.9543 674.092 100.16 673.352 102.208C672.612 104.255 671.346 106.071 669.682 107.474C668.017 108.877 666.013 109.817 663.87 110.2L593.53 122.77H593.5ZM614.13 34.77C612.625 35.0271 611.215 35.6819 610.048 36.6664C608.881 37.651 607.997 38.9296 607.49 40.37L583.2 107.57C582.683 109.004 582.552 110.549 582.819 112.05C583.087 113.551 583.745 114.955 584.726 116.122C585.708 117.288 586.978 118.177 588.411 118.698C589.844 119.219 591.388 119.354 592.89 119.09L663.23 106.51C664.733 106.243 666.139 105.584 667.306 104.601C668.474 103.618 669.362 102.345 669.881 100.909C670.4 99.4737 670.532 97.9269 670.263 96.4244C669.994 94.9218 669.334 93.5166 668.35 92.35L622.28 37.75C621.306 36.5789 620.037 35.6878 618.605 35.1677C617.173 34.6476 615.629 34.5173 614.13 34.79V34.77Z" fill="#E0E0E0"/>
<path d="M620.16 97.72C620.051 97.1118 620.065 96.4877 620.203 95.8853C620.341 95.2829 620.6 94.7146 620.963 94.2148C621.327 93.7149 621.788 93.2938 622.318 92.9767C622.849 92.6597 623.438 92.4533 624.05 92.37C624.662 92.2057 625.302 92.17 625.929 92.2652C626.556 92.3604 627.156 92.5844 627.692 92.9231C628.228 93.2619 628.688 93.708 629.043 94.2333C629.398 94.7586 629.64 95.3518 629.755 95.9754C629.869 96.599 629.853 97.2396 629.707 97.8567C629.562 98.4738 629.29 99.054 628.909 99.5608C628.528 100.068 628.046 100.49 627.494 100.801C626.942 101.113 626.331 101.306 625.7 101.37C625.096 101.503 624.472 101.513 623.864 101.4C623.256 101.288 622.676 101.054 622.16 100.714C621.644 100.374 621.201 99.9336 620.857 99.4193C620.514 98.9051 620.277 98.3273 620.16 97.72ZM613.87 61L622.48 59.43L626 87L620.25 88L613.87 61Z" fill="#E0E0E0"/>
<path d="M593.36 373.85C579.43 354.05 583.97 328.33 592.6 306.85C594.04 303.26 595.03 299.29 597.91 296.73C600.79 294.17 605.61 293.46 608.31 296.17C610.54 298.42 610.58 301.98 611.15 305.12C611.904 309.311 613.832 313.201 616.71 316.34C618.59 318.34 621.18 320.15 623.92 319.71C627.67 319.12 629.61 314.93 630.92 311.31L638.12 291.08C639.4 287.46 640.73 283.77 643.12 280.76C645.51 277.75 649.12 275.45 652.9 275.76C656.68 276.07 660.21 279.56 659.66 283.36C659.42 284.94 658.57 286.36 658.13 287.89C657.69 289.42 657.78 291.34 659.05 292.27C660.32 293.2 662.16 292.72 663.62 292.05C668.62 289.76 672.9 285.98 676.96 282.17C681.02 278.36 685.04 274.41 689.86 271.66C694.68 268.91 700.51 267.45 705.78 269.04C711.05 270.63 715.41 275.81 714.88 281.36C714.35 286.91 709.5 291.01 704.77 293.96C697.759 298.331 690.154 301.669 682.19 303.87C680.76 304.26 679.19 304.69 678.29 305.87C676.63 308 678.05 311.21 680.14 312.87C682.5 314.74 685.52 315.52 688.22 316.87C690.92 318.22 693.51 320.57 693.61 323.62C693.75 327.85 689.26 330.62 685.31 332.03C677.384 334.892 669.026 336.373 660.6 336.41C657.6 336.41 654.49 336.25 651.67 337.34C648.85 338.43 646.38 341.21 646.75 344.22C647.12 347.23 650.15 349.22 653.12 349.75C656.09 350.28 659.12 349.63 662.12 349.59C667.76 349.52 674.04 352.19 675.66 357.59C676.73 361.16 675.49 365.16 673.21 368.13C670.805 371.007 667.842 373.368 664.5 375.07C653.17 381.51 640.26 385.33 627.31 385.15C614.36 384.97 603.31 382.15 593.38 373.84" fill="#EBEBEB"/>
<path d="M603.91 362.26C611.819 351.724 620.326 341.65 629.39 332.09L636.47 324.52C638.8 322.04 641.11 319.59 643.47 317.32C648.104 312.984 652.975 308.908 658.06 305.11C662.89 301.45 667.61 298.11 672.06 295.11C676.51 292.11 680.69 289.31 684.61 286.96C690.808 283.216 697.291 279.966 704 277.24C706.37 276.24 708.23 275.59 709.49 275.14L710.94 274.64C711.098 274.568 711.267 274.52 711.44 274.5L710.96 274.71L709.54 275.28C708.29 275.77 706.45 276.5 704.11 277.5C697.476 280.311 691.062 283.614 684.92 287.38C681.02 289.75 676.85 292.53 672.44 295.59C668.03 298.65 663.33 301.97 658.52 305.59C653.47 309.392 648.63 313.465 644.02 317.79C641.62 320.05 639.34 322.48 637.02 324.97L629.94 332.53C620.896 342.074 612.392 352.116 604.47 362.61" fill="#E0E0E0"/>
<path d="M643.72 317.37C643.734 316.808 643.804 316.248 643.93 315.7C644.1 314.63 644.4 313.1 644.8 311.21C645.59 307.43 646.87 302.21 648.29 296.54C649.71 290.87 650.92 285.64 651.65 281.86C652.02 279.97 652.31 278.44 652.49 277.38C652.55 276.821 652.674 276.271 652.86 275.74C652.89 276.298 652.86 276.858 652.77 277.41C652.66 278.49 652.45 280.04 652.14 281.95C651.53 285.76 650.41 290.95 648.98 296.71L645.29 311.32C644.85 313.08 644.49 314.56 644.2 315.75C644.102 316.307 643.941 316.85 643.72 317.37Z" fill="#E0E0E0"/>
<path d="M693.28 325.53C692.624 325.439 691.978 325.289 691.35 325.08C690.12 324.75 688.35 324.27 686.13 323.75C681.72 322.67 675.56 321.38 668.71 320.26C661.86 319.14 655.61 318.42 651.07 318.02C648.8 317.8 646.97 317.67 645.7 317.58C645.028 317.573 644.359 317.503 643.7 317.37C644.363 317.284 645.033 317.261 645.7 317.3C646.98 317.3 648.83 317.36 651.1 317.52C655.66 317.79 661.94 318.45 668.82 319.52C674.689 320.456 680.507 321.69 686.25 323.22C688.45 323.81 690.25 324.36 691.42 324.77C692.064 324.96 692.687 325.215 693.28 325.53Z" fill="#E0E0E0"/>
<path d="M604.79 361.61C604.726 361.389 604.689 361.16 604.68 360.93C604.68 360.4 604.57 359.75 604.5 358.93C604.34 357.22 604.19 354.74 604.03 351.68C603.72 345.55 603.56 337.07 603.51 327.68C603.46 318.29 603.37 309.84 603.19 303.68C603.09 300.68 603.01 298.24 602.95 296.42C602.95 295.63 602.95 294.98 602.9 294.42C602.874 294.191 602.874 293.959 602.9 293.73C602.963 293.952 603 294.18 603.01 294.41C603.06 294.95 603.12 295.59 603.2 296.41C603.35 298.12 603.51 300.6 603.66 303.66C603.97 309.79 604.13 318.27 604.19 327.66C604.25 337.05 604.32 345.49 604.5 351.66C604.6 354.66 604.68 357.09 604.74 358.91C604.74 359.7 604.74 360.35 604.79 360.91C604.83 361.142 604.83 361.378 604.79 361.61Z" fill="#E0E0E0"/>
<path d="M673.68 364.11C673.447 364.136 673.213 364.136 672.98 364.11L670.98 364.06L663.6 363.8C657.37 363.59 648.75 363.39 639.24 363.18C629.73 362.97 621.1 362.7 614.87 362.36C611.76 362.19 609.24 362.02 607.5 361.88L605.5 361.69C605.263 361.68 605.028 361.644 604.8 361.58C605.036 361.555 605.274 361.555 605.51 361.58L607.51 361.63L614.89 361.88C621.12 362.1 629.73 362.3 639.25 362.5C648.77 362.7 657.38 362.98 663.61 363.33C666.73 363.5 669.25 363.66 670.99 363.81L672.99 363.99C673.225 363.991 673.458 364.032 673.68 364.11Z" fill="#E0E0E0"/>
<path d="M56.77 83.78C56.77 83.78 47.37 87.59 58.21 107.55C69.05 127.51 76.47 137.34 76.47 137.34C76.47 137.34 78.47 141.99 74.47 142.82C70.47 143.65 61.79 142.49 60.16 147.37C58.46 152.43 62.23 157.07 69.72 161.03C77.21 164.99 93.32 174.27 94.77 175.11C96.22 175.95 97.67 178.11 95.08 179.11C92.49 180.11 73 182.64 74.75 191.83C76.5 201.02 99.21 208.62 101.67 209.5C104.13 210.38 104.75 211.4 104.58 212.74C104.41 214.08 97.78 214.33 92.25 215.28C86.72 216.23 80.49 218.28 81.95 223.52C83.41 228.76 97 239.43 129.44 241.76L144.53 241.86L152.41 228.86C167.58 200.16 165.7 183 162 179C158.3 175 153.29 179.19 149.56 183.38C145.83 187.57 142.11 193.07 140.89 192.5C139.67 191.93 139.12 190.87 139.67 188.32C140.22 185.77 145.78 162.48 138.92 156.12C132.06 149.76 119.56 164.98 117.34 166.65C115.12 168.32 114.08 165.94 114.13 164.29C114.18 162.64 114.82 144.04 115.43 135.58C116.04 127.12 114.09 121.48 108.89 120.24C103.89 119.04 100.25 127.08 97.46 129.98C94.67 132.88 91.76 128.76 91.76 128.76C91.76 128.76 87.34 117.27 76.13 97.51C64.92 77.75 56.55 83.91 56.55 83.91" fill="#EBEBEB"/>
<path d="M145.41 245.39C137.23 230.84 123.14 204.75 110.93 182.39C98.72 160.03 87.65 139.85 79.55 125.26L69.94 108L67.33 103.31L66.67 102.08C66.52 101.8 66.45 101.65 66.45 101.65C66.5438 101.779 66.6306 101.912 66.71 102.05L67.42 103.26L70.1 107.91C72.43 111.91 75.76 117.83 79.84 125.1C88.01 139.65 99.13 159.83 111.34 182.16C123.55 204.49 137.6 230.62 145.7 245.16" fill="#E0E0E0"/>
<path d="M72.3401 149.49C72.7022 149.536 73.0578 149.623 73.4001 149.75C74.0701 149.95 75.0301 150.27 76.2201 150.66C78.6001 151.47 81.8501 152.66 85.4201 154.04L94.5401 157.61L97.3101 158.67C97.6575 158.778 97.9927 158.922 98.3101 159.1C97.9478 159.055 97.592 158.968 97.2501 158.84C96.5701 158.64 95.6101 158.33 94.4201 157.92C92.0501 157.09 88.8201 155.86 85.2501 154.48L76.1101 151L73.3401 150C72.9892 149.867 72.6538 149.696 72.3401 149.49Z" fill="#E0E0E0"/>
<path d="M99.31 158.11C99.19 158.11 101.31 151.25 104.14 142.89C106.97 134.53 109.29 127.77 109.42 127.81C109.55 127.85 107.42 134.67 104.59 143.03C101.76 151.39 99.44 158.15 99.31 158.11Z" fill="#E0E0E0"/>
<path d="M116.52 193.26C116.681 192.922 116.878 192.604 117.11 192.31L118.83 189.82C120.28 187.71 122.28 184.82 124.36 181.5C126.44 178.18 128.23 175.16 129.51 172.95C130.11 171.95 130.62 171.03 131.02 170.32C131.191 169.989 131.392 169.674 131.62 169.38C131.51 169.728 131.363 170.064 131.18 170.38C130.87 171.02 130.4 171.95 129.8 173.08C128.59 175.34 126.8 178.42 124.75 181.72C122.7 185.02 120.62 187.92 119.1 189.98C118.34 190.98 117.71 191.83 117.26 192.39C117.046 192.706 116.797 192.998 116.52 193.26Z" fill="#E0E0E0"/>
<path d="M90.3999 190.83C90.7324 190.796 91.0674 190.796 91.3999 190.83L94.1999 190.98C96.5599 191.13 99.8199 191.36 103.41 191.65C107 191.94 110.26 192.22 112.62 192.45L115.4 192.75C115.738 192.77 116.074 192.827 116.4 192.92C116.068 192.966 115.732 192.966 115.4 192.92L112.6 192.77C110.24 192.63 106.98 192.39 103.39 192.1C99.7999 191.81 96.5399 191.53 94.1799 191.3L91.3999 191C91.0614 190.98 90.7261 190.923 90.3999 190.83Z" fill="#E0E0E0"/>
<path d="M101.65 223.79C102.089 223.744 102.531 223.744 102.97 223.79L106.55 223.97C109.55 224.14 113.76 224.4 118.37 224.73C122.98 225.06 127.16 225.37 130.17 225.63L133.75 225.96C134.191 225.979 134.63 226.039 135.06 226.14C134.621 226.179 134.179 226.179 133.74 226.14L130.15 225.96C127.15 225.79 122.95 225.52 118.34 225.2C113.73 224.88 109.55 224.55 106.53 224.3L103 224C102.545 223.969 102.093 223.898 101.65 223.79Z" fill="#E0E0E0"/>
<path d="M134.27 225.86C134.477 225.435 134.718 225.027 134.99 224.64C135.52 223.8 136.22 222.72 137.06 221.4C138.8 218.67 141.2 214.88 143.73 210.63C146.26 206.38 148.45 202.47 150.02 199.63L151.88 196.26C152.089 195.837 152.333 195.432 152.61 195.05C152.464 195.501 152.273 195.937 152.04 196.35C151.65 197.17 151.04 198.35 150.31 199.78C148.82 202.67 146.67 206.61 144.13 210.87C141.59 215.13 139.13 218.87 137.34 221.58C136.42 222.93 135.67 224.01 135.14 224.74C134.887 225.141 134.596 225.516 134.27 225.86Z" fill="#E0E0E0"/>
<path d="M584.73 100.59H159.82C156.303 100.59 152.931 101.987 150.444 104.474C147.957 106.96 146.56 110.333 146.56 113.85V414C146.56 417.517 147.957 420.889 150.444 423.376C152.931 425.863 156.303 427.26 159.82 427.26H322.9C322.9 427.26 333.28 459.34 301.12 475.94H453.61C453.61 475.94 417.3 463.49 426.61 427.26H584.71C586.454 427.265 588.182 426.926 589.795 426.262C591.408 425.598 592.874 424.622 594.109 423.39C595.343 422.158 596.323 420.694 596.991 419.083C597.658 417.472 598.001 415.744 598 414V113.85C598.001 112.107 597.659 110.382 596.992 108.772C596.326 107.162 595.348 105.699 594.116 104.467C592.883 103.236 591.42 102.259 589.809 101.594C588.199 100.928 586.473 100.587 584.73 100.59Z" fill="#263238"/>
<path d="M378 394.92C383.78 403.18 374.73 412.23 366.47 406.45C366.194 406.252 365.954 406.008 365.76 405.73C360 397.48 369.03 388.44 377.29 394.21C377.565 394.405 377.805 394.645 378 394.92Z" fill="#455A64"/>
<path d="M163.57 105.33H581C583.573 105.33 586.04 106.352 587.859 108.171C589.678 109.99 590.7 112.457 590.7 115.03V371.58H153.88V115C153.888 112.434 154.912 109.976 156.728 108.164C158.544 106.352 161.004 105.333 163.57 105.33Z" fill="white"/>
<path d="M163 105.33H583.16C585.155 105.33 587.067 106.122 588.478 107.533C589.888 108.943 590.68 110.856 590.68 112.85V127.46H153.88V114.46C153.885 112.042 154.848 109.724 156.557 108.013C158.265 106.303 160.582 105.338 163 105.33Z" fill="#EBEBEB"/>
<path d="M167.79 119.93C169.485 119.93 170.86 118.555 170.86 116.86C170.86 115.164 169.485 113.79 167.79 113.79C166.094 113.79 164.72 115.164 164.72 116.86C164.72 118.555 166.094 119.93 167.79 119.93Z" fill="#455A64"/>
<path d="M176.93 119.93C178.626 119.93 180 118.555 180 116.86C180 115.164 178.626 113.79 176.93 113.79C175.235 113.79 173.86 115.164 173.86 116.86C173.86 118.555 175.235 119.93 176.93 119.93Z" fill="#455A64"/>
<path d="M188.7 116.86C188.7 117.467 188.52 118.061 188.183 118.566C187.845 119.07 187.366 119.464 186.805 119.696C186.244 119.929 185.627 119.989 185.031 119.871C184.436 119.753 183.889 119.46 183.459 119.031C183.03 118.601 182.738 118.054 182.619 117.459C182.501 116.863 182.561 116.246 182.794 115.685C183.026 115.124 183.42 114.645 183.924 114.307C184.429 113.97 185.023 113.79 185.63 113.79C186.444 113.79 187.225 114.113 187.801 114.689C188.377 115.265 188.7 116.046 188.7 116.86Z" fill="#455A64"/>
<path d="M508.76 426.52C508.76 426.66 448.3 426.78 373.76 426.78C299.22 426.78 238.76 426.66 238.76 426.52C238.76 426.38 299.21 426.27 373.81 426.27C448.41 426.27 508.76 426.38 508.76 426.52Z" fill="#455A64"/>
<path d="M368.028 322.02V323.818H356.475V309.338H367.715V311.136H358.753V315.586H366.733V317.383H358.753V322.059L368.028 322.02Z" fill="#263238"/>
<path d="M382.357 323.818L378.923 319.348C378.61 319.348 378.265 319.397 377.93 319.397H373.978V323.798H371.71V309.338H377.93C382.065 309.338 384.57 311.234 384.57 314.387C384.621 315.394 384.305 316.388 383.67 317.214C383.035 318.041 382.118 318.653 381.061 318.955L384.84 323.818H382.357ZM382.292 314.387C382.292 312.314 380.77 311.136 377.854 311.136H373.978V317.658H377.843C380.77 317.658 382.292 316.45 382.292 314.436V314.387Z" fill="#263238"/>
<path d="M398.899 323.818L395.465 319.348C395.141 319.348 394.806 319.397 394.461 319.397H390.53V323.798H388.252V309.338H394.493C398.639 309.338 401.134 311.234 401.134 314.387C401.185 315.393 400.87 316.386 400.238 317.212C399.605 318.038 398.69 318.651 397.635 318.955L401.414 323.818H398.899ZM398.812 314.436C398.812 312.363 397.279 311.185 394.374 311.185H390.509V317.707H394.374C397.301 317.658 398.812 316.45 398.812 314.436Z" fill="#263238"/>
<path d="M403.488 316.578C403.421 315.041 403.86 313.522 404.75 312.215C405.639 310.907 406.938 309.872 408.479 309.241C410.02 308.61 411.733 308.413 413.398 308.674C415.064 308.936 416.605 309.644 417.825 310.708C419.044 311.773 419.886 313.144 420.243 314.647C420.599 316.15 420.453 317.716 419.824 319.143C419.196 320.57 418.112 321.793 416.713 322.656C415.315 323.519 413.664 323.982 411.974 323.985C410.875 324.034 409.775 323.879 408.744 323.528C407.713 323.178 406.771 322.639 405.976 321.946C405.182 321.252 404.551 320.418 404.123 319.495C403.695 318.572 403.479 317.58 403.488 316.578ZM418.14 316.578C418.153 315.461 417.8 314.366 417.127 313.433C416.454 312.499 415.491 311.768 414.361 311.334C413.23 310.899 411.983 310.78 410.778 310.992C409.573 311.204 408.465 311.738 407.594 312.525C406.723 313.311 406.129 314.316 405.887 315.411C405.646 316.506 405.767 317.641 406.237 318.673C406.707 319.704 407.503 320.586 408.525 321.204C409.546 321.823 410.747 322.152 411.974 322.148C412.788 322.172 413.598 322.045 414.355 321.774C415.112 321.503 415.801 321.095 416.378 320.573C416.955 320.051 417.41 319.428 417.713 318.741C418.015 318.054 418.161 317.318 418.14 316.578Z" fill="#263238"/>
<path d="M434.541 323.818L431.108 319.348C430.784 319.348 430.449 319.397 430.104 319.397H426.173V323.798H423.895V309.338H430.125C434.271 309.338 436.766 311.234 436.766 314.387C436.817 315.393 436.502 316.386 435.87 317.212C435.237 318.038 434.322 318.651 433.267 318.955L437.046 323.818H434.541ZM434.444 314.436C434.444 312.363 432.922 311.185 430.006 311.185H426.141V317.707H430.006C432.954 317.658 434.444 316.45 434.444 314.436Z" fill="#263238"/>
<path d="M613.996 251.673C610.08 274.071 601.547 290.342 588.395 300.487C575.244 310.631 559.134 314.325 540.065 311.568C520.903 308.797 506.759 300.726 497.631 287.352C488.504 273.979 485.898 256.094 489.814 233.696L496.703 194.303C500.597 171.984 509.131 155.709 522.304 145.48C535.476 135.25 551.637 131.524 570.784 134.3C589.867 137.064 603.962 145.169 613.068 158.614C622.173 172.059 624.779 189.945 620.885 212.271L613.996 251.673ZM590.058 203.282C592.527 189.182 591.753 178.376 587.737 170.864C583.72 163.352 576.727 158.866 566.757 157.406C556.78 155.965 548.624 158.257 542.29 164.282C535.955 170.307 531.55 180.376 529.074 194.49L520.705 242.36C518.222 256.546 519.007 267.424 523.059 274.994C527.112 282.565 534.123 287.077 544.093 288.531C554.063 289.966 562.197 287.673 568.495 281.655C574.794 275.636 579.192 265.485 581.69 251.202L590.058 203.282Z" fill="#E0E0E0"/>
<path d="M627.148 244.197C623.232 266.595 614.698 282.866 601.547 293.011C588.395 303.155 572.285 306.849 553.217 304.092C534.062 301.322 519.921 293.25 510.794 279.877C501.666 266.503 499.06 248.618 502.976 226.22L509.854 186.827C513.763 164.508 522.3 148.233 535.466 138.004C548.632 127.774 564.788 124.041 583.936 126.805C603.004 129.569 617.099 137.673 626.219 151.118C635.339 164.564 637.945 182.449 634.036 204.775L627.148 244.197ZM603.21 195.816C605.671 181.709 604.894 170.903 600.877 163.398C596.861 155.893 589.867 151.407 579.898 149.94C569.928 148.499 561.772 150.791 555.43 156.816C549.089 162.841 544.683 172.907 542.214 187.014L533.846 234.865C531.37 249.05 532.158 259.931 536.211 267.509C540.264 275.086 547.275 279.595 557.244 281.036C567.214 282.477 575.348 280.184 581.647 274.159C587.945 268.134 592.344 257.983 594.841 243.706L603.21 195.816Z" fill="#6EACDA"/>
<g opacity="0.4">
<path d="M627.148 244.197C623.232 266.595 614.698 282.866 601.547 293.011C588.395 303.155 572.285 306.849 553.217 304.092C534.062 301.322 519.921 293.25 510.794 279.877C501.666 266.503 499.06 248.618 502.976 226.22L509.854 186.827C513.763 164.508 522.3 148.233 535.466 138.004C548.632 127.774 564.788 124.041 583.936 126.805C603.004 129.569 617.099 137.673 626.219 151.118C635.339 164.564 637.945 182.449 634.036 204.775L627.148 244.197ZM603.21 195.816C605.671 181.709 604.894 170.903 600.877 163.398C596.861 155.893 589.867 151.407 579.898 149.94C569.928 148.499 561.772 150.791 555.43 156.816C549.089 162.841 544.683 172.907 542.214 187.014L533.846 234.865C531.37 249.05 532.158 259.931 536.211 267.509C540.264 275.086 547.275 279.595 557.244 281.036C567.214 282.477 575.348 280.184 581.647 274.159C587.945 268.134 592.344 257.983 594.841 243.706L603.21 195.816Z" fill="black"/>
</g>
<path d="M645.352 246.83C641.429 269.234 632.896 285.509 619.751 295.653C606.607 305.798 590.494 309.488 571.411 306.725C552.256 303.954 538.115 295.883 528.987 282.509C519.86 269.136 517.254 251.254 521.17 228.863L528.048 189.46C531.957 167.141 540.494 150.87 553.66 140.646C566.825 130.423 582.986 126.697 602.141 129.467C621.209 132.231 635.303 140.335 644.424 153.781C653.544 167.226 656.15 185.111 652.241 207.437L645.352 246.83ZM621.414 198.449C623.876 184.342 623.099 173.536 619.082 166.031C615.065 158.525 608.072 154.039 598.102 152.572C588.133 151.132 579.977 153.424 573.635 159.449C567.293 165.474 562.888 175.54 560.419 189.647L552.051 237.517C549.582 251.703 550.37 262.584 554.416 270.161C558.461 277.738 565.472 282.248 575.449 283.688C585.419 285.129 593.553 282.837 599.852 276.812C606.15 270.787 610.548 260.636 613.046 246.359L621.414 198.449Z" fill="#6EACDA"/>
<path d="M527.746 191.818C527.746 191.936 523.275 192.8 517.704 193.782C512.132 194.765 507.587 195.472 507.554 195.354C507.522 195.236 512.035 194.372 517.607 193.389C523.178 192.407 527.724 191.7 527.746 191.818Z" fill="#6EACDA"/>
<path d="M525.91 207.526C525.91 207.643 521.44 208.508 515.868 209.49C510.297 210.473 505.751 211.18 505.719 211.052C505.686 210.925 510.189 210.07 515.771 209.088C521.354 208.105 525.888 207.408 525.91 207.526Z" fill="#6EACDA"/>
<path d="M524.064 223.224C524.064 223.352 519.593 224.206 514.011 225.189C508.429 226.171 503.894 226.878 503.872 226.76C503.851 226.642 508.342 225.778 513.925 224.796C519.507 223.813 524.064 223.076 524.064 223.224Z" fill="#6EACDA"/>
<path d="M522.239 238.932C522.239 239.05 517.769 239.914 512.186 240.897C506.604 241.879 502.069 242.586 502.047 242.468C502.026 242.35 506.518 241.486 512.1 240.504C517.682 239.521 522.206 238.794 522.239 238.932Z" fill="#6EACDA"/>
<path d="M520.403 254.63C519.54 254.923 518.646 255.136 517.736 255.268C516.084 255.602 513.795 256.025 511.258 256.477C508.72 256.929 506.421 257.312 504.779 257.567C503.886 257.754 502.975 257.86 502.058 257.882C502.921 257.6 503.81 257.39 504.715 257.253C506.367 256.919 508.656 256.496 511.193 256.045C513.73 255.593 516.041 255.21 517.672 254.954C518.57 254.773 519.484 254.665 520.403 254.63Z" fill="#6EACDA"/>
<path d="M522.639 269.601C521.892 269.862 521.117 270.053 520.328 270.171C518.881 270.466 516.883 270.849 514.67 271.242C512.456 271.635 510.448 271.959 508.99 272.224C508.21 272.383 507.414 272.472 506.615 272.489C507.361 272.225 508.135 272.034 508.926 271.92C510.373 271.625 512.37 271.242 514.584 270.849C516.797 270.456 518.805 270.132 520.263 269.915C521.042 269.74 521.837 269.634 522.639 269.601Z" fill="#6EACDA"/>
<path d="M530.661 284.248C529.997 284.493 529.305 284.671 528.599 284.779C527.314 285.044 525.532 285.388 523.567 285.761C521.602 286.134 519.799 286.4 518.503 286.586C517.797 286.745 517.071 286.818 516.344 286.802C517.007 286.558 517.699 286.384 518.406 286.282C519.691 286.017 521.472 285.673 523.437 285.299C525.403 284.926 527.206 284.661 528.502 284.464C529.21 284.318 529.934 284.246 530.661 284.248Z" fill="#6EACDA"/>
<path d="M546.425 295.467C545.761 295.712 545.07 295.89 544.363 295.997C543.078 296.263 541.307 296.597 539.331 296.98C537.355 297.363 535.574 297.618 534.267 297.805C533.561 297.964 532.835 298.037 532.108 298.021C532.766 297.774 533.455 297.599 534.159 297.5C535.444 297.235 537.226 296.891 539.202 296.518C541.178 296.145 542.959 295.879 544.255 295.683C544.967 295.537 545.695 295.464 546.425 295.467Z" fill="#6EACDA"/>
<path d="M604.926 270.348C604.926 270.466 599.128 271.959 591.883 273.678C584.638 275.397 578.753 276.684 578.721 276.566C578.688 276.448 584.53 274.965 591.764 273.246C598.999 271.527 604.894 270.23 604.926 270.348Z" fill="#6EACDA"/>
<path d="M610.962 257.577C610.962 257.695 606.168 258.943 600.165 260.367C594.161 261.791 589.302 262.833 589.27 262.715C589.238 262.597 594.064 261.359 600.067 259.935C606.071 258.51 610.919 257.459 610.962 257.577Z" fill="#6EACDA"/>
<path d="M615.368 242.871C615.368 242.989 610.584 244.237 604.57 245.651C598.556 247.066 593.708 248.127 593.675 248.009C593.643 247.891 598.459 246.643 604.473 245.229C610.487 243.814 615.335 242.724 615.368 242.871Z" fill="#6EACDA"/>
<path d="M619.784 228.165C619.784 228.283 615 229.531 608.986 230.945C602.972 232.36 598.124 233.421 598.091 233.303C598.059 233.185 602.875 231.937 608.889 230.523C614.903 229.108 619.751 228.047 619.784 228.165Z" fill="#6EACDA"/>
<path d="M624.2 213.459C624.2 213.577 619.406 214.815 613.402 216.239C607.399 217.664 602.605 218.715 602.508 218.597C602.411 218.479 607.302 217.231 613.305 215.807C619.309 214.383 624.168 213.341 624.2 213.459Z" fill="#6EACDA"/>
<path d="M623.401 199.627C623.401 199.745 618.607 200.993 612.603 202.417C606.6 203.842 601.806 204.893 601.719 204.765C601.633 204.637 606.503 203.41 612.517 201.985C618.531 200.561 623.401 199.5 623.401 199.627Z" fill="#6EACDA"/>
<path d="M626.068 185.285C626.068 185.403 621.274 186.65 615.27 188.075C609.267 189.499 604.408 190.55 604.376 190.433C604.343 190.315 609.17 189.067 615.173 187.643C621.177 186.218 626.025 185.167 626.068 185.285Z" fill="#6EACDA"/>
<path d="M626.932 171.532C626.932 171.65 622.149 172.897 616.134 174.312C610.12 175.727 605.272 176.787 605.24 176.67C605.207 176.552 610.023 175.304 616.037 173.89C622.051 172.475 626.9 171.414 626.932 171.532Z" fill="#6EACDA"/>
<path d="M614.579 159.96C610.277 161.289 605.874 162.333 601.406 163.084C603.517 162.353 605.682 161.758 607.885 161.305C610.078 160.71 612.315 160.261 614.579 159.96Z" fill="#6EACDA"/>
<path d="M608.112 153.034C605.983 153.766 603.8 154.36 601.579 154.812C599.404 155.405 597.185 155.854 594.939 156.158C597.049 155.425 599.214 154.831 601.417 154.38C603.612 153.791 605.849 153.341 608.112 153.034Z" fill="#6EACDA"/>
<path d="M532.054 173.104C532.054 173.221 527.584 174.086 522.012 175.068C516.441 176.051 511.895 176.758 511.862 176.64C511.83 176.522 516.343 175.658 521.915 174.675C527.487 173.693 532.032 172.976 532.054 173.104Z" fill="#6EACDA"/>
<path d="M540.908 154.527C540.908 154.645 536.06 155.608 530.013 156.679C523.967 157.749 519.054 158.516 519.032 158.398C519.01 158.28 523.88 157.317 529.927 156.246C535.973 155.176 540.886 154.409 540.908 154.527Z" fill="#6EACDA"/>
<path d="M558.195 137.454C558.195 137.572 552.04 138.77 544.385 140.126C536.729 141.481 530.542 142.523 530.542 142.356C530.542 142.189 536.697 141.039 544.352 139.684C552.008 138.328 558.173 137.336 558.195 137.454Z" fill="#6EACDA"/>
<path d="M280.547 244.315L304.712 242.606L306.699 265.898L282.545 267.607L285.849 306.302L254.125 308.542L250.811 269.847L184.255 274.552L184.319 249.011L238.21 134.752L271.034 132.434L280.547 244.315ZM197.406 250.209L248.737 246.575L242.712 175.992L241.903 175.805L239.743 181.13L197.406 250.209Z" fill="#E0E0E0"/>
<path d="M265.754 233.038L289.908 231.328L291.917 254.62L267.763 256.329L271.067 295.025L239.3 297.274L235.996 258.579L153.935 264.375L151.635 246.692L223.385 123.416L256.199 121.088L265.754 233.038ZM182.613 238.932L233.945 235.307L227.909 164.724L227.099 164.537L224.94 169.862L182.613 238.932Z" fill="#6EACDA"/>
<g opacity="0.4">
<path d="M265.754 233.038L289.908 231.328L291.917 254.62L267.763 256.329L271.067 295.025L239.3 297.274L235.996 258.579L153.935 264.375L151.635 246.692L223.385 123.416L256.199 121.088L265.754 233.038ZM182.613 238.932L233.945 235.307L227.909 164.724L227.099 164.537L224.94 169.862L182.613 238.932Z" fill="black"/>
</g>
<path d="M244.721 234.442L268.875 232.733L270.862 256.025L246.708 257.734L250.012 296.43L218.245 298.718L214.941 260.023L132.88 265.819L130.58 248.137L202.297 124.84L235.111 122.522L244.721 234.442ZM161.58 240.337L212.911 236.712L206.919 166.099L206.109 165.923L203.949 171.237L161.58 240.337Z" fill="#6EACDA"/>
<path d="M192.58 223.685C192.262 223.893 191.922 224.071 191.565 224.216C190.895 224.54 189.923 224.982 188.714 225.523C186.306 226.603 182.948 228.047 179.223 229.589C175.498 231.132 172.107 232.537 169.635 233.44C168.404 233.922 167.4 234.285 166.698 234.541C166.352 234.688 165.99 234.804 165.618 234.884C165.966 234.705 166.327 234.547 166.698 234.413L169.592 233.214L179.137 229.285L188.671 225.306L191.5 224.059C191.849 223.91 192.21 223.785 192.58 223.685Z" fill="#6EACDA"/>
<path d="M204.046 204.863C203.701 205.057 203.34 205.228 202.967 205.374C202.286 205.689 201.293 206.121 200.073 206.641C197.622 207.683 194.221 209.068 190.452 210.571C186.684 212.074 183.24 213.361 180.735 214.265C179.482 214.716 178.467 215.08 177.765 215.316C177.419 215.459 177.057 215.568 176.686 215.64C177.035 215.47 177.396 215.319 177.765 215.188L180.691 214.039L190.409 210.247L200.127 206.425L203.053 205.266C203.372 205.109 203.704 204.974 204.046 204.863Z" fill="#6EACDA"/>
<path d="M264.081 221.436C263.853 221.609 263.607 221.76 263.346 221.888C262.85 222.163 262.137 222.546 261.252 223.008C259.47 223.941 256.987 225.189 254.212 226.515C251.437 227.841 248.889 228.981 247.031 229.776L244.872 230.759C244.606 230.88 244.327 230.979 244.041 231.053C244.279 230.891 244.536 230.752 244.807 230.641L246.967 229.609L254.093 226.259L261.176 222.851L263.336 221.819C263.565 221.663 263.815 221.534 264.081 221.436Z" fill="#6EACDA"/>
<path d="M289.865 234.541C289.632 234.712 289.383 234.863 289.12 234.993C288.634 235.268 287.911 235.651 287.025 236.112C285.244 237.046 282.706 238.293 279.985 239.619C277.265 240.946 274.662 242.085 272.816 242.891C271.887 243.284 271.132 243.608 270.602 243.814C270.337 243.938 270.058 244.037 269.771 244.109C270.009 243.946 270.266 243.808 270.538 243.696L272.697 242.665L279.813 239.315L286.896 235.906L289.055 234.875C289.311 234.736 289.582 234.624 289.865 234.541Z" fill="#6EACDA"/>
<path d="M290.977 246.26C290.745 246.431 290.495 246.582 290.232 246.712C289.747 246.987 289.023 247.37 288.138 247.832C286.356 248.814 283.873 250.013 281.098 251.339C278.323 252.665 275.775 253.805 273.928 254.601C273 255.003 272.244 255.318 271.769 255.583C271.503 255.707 271.225 255.805 270.937 255.878C271.175 255.715 271.432 255.577 271.704 255.465L273.863 254.434L280.979 251.084L288.062 247.675L290.222 246.643C290.457 246.491 290.711 246.362 290.977 246.26Z" fill="#6EACDA"/>
<path d="M267.676 256.732C267.46 256.909 267.221 257.06 266.964 257.184C266.489 257.449 265.798 257.832 264.934 258.294C263.217 259.218 260.82 260.465 258.131 261.782C255.443 263.098 252.981 264.228 251.178 265.023C250.282 265.426 249.547 265.74 249.018 265.947C248.763 266.075 248.491 266.174 248.208 266.241C248.441 266.081 248.691 265.943 248.954 265.829C249.515 265.554 250.217 265.22 251.037 264.846L257.926 261.516L264.783 258.127L266.867 257.145C267.118 256.979 267.39 256.84 267.676 256.732Z" fill="#6EACDA"/>
<path d="M268.702 269.385C268.483 269.558 268.244 269.71 267.989 269.837C267.514 270.112 266.823 270.485 265.96 270.947C264.243 271.87 261.835 273.118 259.157 274.434C256.479 275.751 254.007 276.88 252.203 277.676C251.307 278.079 250.573 278.393 250.044 278.6C249.789 278.728 249.517 278.827 249.234 278.894C249.467 278.734 249.716 278.596 249.979 278.482L252.063 277.499L258.952 274.169L265.808 270.78L267.892 269.798C268.143 269.631 268.415 269.493 268.702 269.385Z" fill="#6EACDA"/>
<path d="M269.728 282.018C269.509 282.192 269.27 282.343 269.015 282.47C268.54 282.745 267.849 283.118 266.985 283.58C265.269 284.504 262.861 285.751 260.183 287.068C257.505 288.384 255.022 289.514 253.229 290.309C252.333 290.712 251.599 291.026 251.07 291.233C250.814 291.361 250.542 291.46 250.26 291.527C250.49 291.364 250.74 291.226 251.005 291.115L253.089 290.133L259.978 286.802L266.834 283.413L268.918 282.431C269.169 282.265 269.441 282.126 269.728 282.018Z" fill="#6EACDA"/>
<path d="M263.023 208.066C262.792 208.24 262.543 208.391 262.278 208.518C261.792 208.793 261.079 209.176 260.183 209.638C258.401 210.62 255.929 211.819 253.154 213.145C250.379 214.471 247.831 215.61 245.973 216.406L243.814 217.339C243.548 217.461 243.269 217.56 242.982 217.634C243.221 217.471 243.478 217.333 243.749 217.222L245.909 216.239L253.024 212.889L260.107 209.481L262.267 208.449C262.503 208.297 262.756 208.169 263.023 208.066Z" fill="#6EACDA"/>
<path d="M261.964 194.696C261.734 194.87 261.484 195.021 261.219 195.148C260.733 195.423 260.021 195.806 259.125 196.268C257.343 197.201 254.87 198.449 252.085 199.775C249.299 201.101 246.772 202.241 244.915 203.036L242.756 204.019C242.487 204.143 242.205 204.242 241.913 204.313C242.157 204.152 242.417 204.014 242.691 203.901L244.85 202.869L251.966 199.5L259.049 196.091L261.209 195.059C261.446 194.914 261.699 194.792 261.964 194.696Z" fill="#6EACDA"/>
<path d="M260.356 179.096C260.138 179.266 259.899 179.411 259.643 179.528C259.179 179.793 258.499 180.157 257.656 180.609C255.961 181.493 253.596 182.691 250.951 183.949C248.306 185.206 245.887 186.297 244.116 187.053C243.231 187.436 242.507 187.731 242.011 187.937C241.757 188.056 241.489 188.148 241.212 188.212C241.44 188.058 241.686 187.926 241.946 187.819L243.997 186.837L250.778 183.644L257.527 180.393C258.337 180.01 259.017 179.676 259.578 179.41C259.824 179.281 260.085 179.175 260.356 179.096Z" fill="#6EACDA"/>
<path d="M259.405 162.818C259.193 162.99 258.957 163.135 258.704 163.251C258.239 163.516 257.559 163.879 256.706 164.331C255.011 165.215 252.657 166.414 250.012 167.671C247.366 168.929 244.937 170.019 243.166 170.775C242.291 171.159 241.568 171.453 241.071 171.66C240.816 171.777 240.548 171.869 240.272 171.935C240.502 171.779 240.748 171.644 241.006 171.532L243.058 170.55L249.839 167.357L256.576 164.105C257.397 163.722 258.077 163.388 258.628 163.123C258.877 163 259.137 162.898 259.405 162.818Z" fill="#6EACDA"/>
<path d="M258.218 146.128C257.994 146.314 257.748 146.475 257.483 146.609L255.389 147.788C253.607 148.771 251.124 150.087 248.338 151.482C245.552 152.877 243.004 154.095 241.136 154.95C240.207 155.382 239.452 155.716 238.923 155.932C238.653 156.063 238.371 156.172 238.08 156.256C238.316 156.081 238.573 155.933 238.847 155.814L241.006 154.733L248.144 151.177L255.238 147.572L257.397 146.482C257.659 146.343 257.934 146.225 258.218 146.128Z" fill="#6EACDA"/>
<path d="M257.527 130.263C257.284 130.433 257.024 130.581 256.749 130.705C256.242 130.97 255.508 131.343 254.59 131.795C252.743 132.699 250.174 133.907 247.291 135.194C244.408 136.481 241.773 137.572 239.84 138.348C238.879 138.741 238.102 139.045 237.551 139.242C237.279 139.371 236.988 139.467 236.688 139.526C236.939 139.369 237.207 139.235 237.487 139.124L239.722 138.141L247.107 134.9L254.449 131.589L256.685 130.607C256.95 130.464 257.233 130.349 257.527 130.263Z" fill="#6EACDA"/>
<path d="M209.283 187.564C209.337 187.672 204.522 189.951 198.486 192.662C192.45 195.374 187.559 197.486 187.505 197.378C187.451 197.27 192.256 194.981 198.302 192.27C204.349 189.558 209.218 187.446 209.283 187.564Z" fill="#6EACDA"/>
<path d="M207.415 173.958C206.35 174.832 205.136 175.542 203.82 176.061C202.572 176.705 201.22 177.166 199.814 177.426C201.031 176.767 202.293 176.18 203.593 175.668C204.827 175.027 206.104 174.456 207.415 173.958Z" fill="#6EACDA"/>
<path d="M310.521 247.262C317.701 261.674 325.389 271.104 342.341 283.983C362.857 299.622 392.355 304.711 417.87 297.432C443.385 290.152 467.096 270.613 474.32 247.193" fill="#E0E0E0"/>
<path d="M392.377 290.81C444.276 290.81 486.348 252.533 486.348 205.315C486.348 158.098 444.276 119.82 392.377 119.82C340.478 119.82 298.406 158.098 298.406 205.315C298.406 252.533 340.478 290.81 392.377 290.81Z" fill="#6EACDA"/>
<path opacity="0.3" d="M363.278 124.29C360.211 126.53 364.638 131.108 367.651 133.406C370.663 135.705 374.248 138.436 373.838 142.002C364.239 143.505 354.283 145.146 346.293 150.224C334.47 157.749 329.406 171.09 323.165 182.917C319.364 190.138 314.894 197.073 311.449 204.431C308.005 211.789 305.576 219.746 306.148 227.733C306.72 235.719 310.661 243.775 317.863 248.363C325.065 252.95 335.69 253.274 342.395 248.127C342.611 250.367 342.834 252.613 343.065 254.866L340.851 276.802L395.433 280.397L401.684 131.314V120.223C401.684 120.223 369.508 119.752 363.278 124.29Z" fill="black"/>
<path d="M474.676 205.6C470.789 203.586 466.254 203.174 461.794 203.262C457.322 203.443 452.898 204.176 448.643 205.443C444.997 206.36 441.509 207.732 438.277 209.52L438.72 210.669C450.747 213.502 463.498 212.223 474.557 207.074C474.87 206.926 475.777 206.583 475.712 206.268C475.648 205.954 474.87 205.699 474.676 205.6Z" fill="#263238"/>
<path d="M318.198 208.184C317.28 209.539 317.766 211.426 318.544 212.85C319.402 214.241 320.571 215.453 321.977 216.406C326.102 219.501 331.069 221.937 336.403 222.182C341.737 222.428 347.427 220.08 349.77 215.709C350.353 214.638 351.4 212.988 351.4 212.988C350.099 212.266 348.729 211.651 347.308 211.151C342.503 209.461 337.99 207.535 332.915 206.7C327.956 205.868 322.837 206.384 318.198 208.184Z" fill="#263238"/>
<path d="M456.46 155.893C453.502 152.946 417.406 140.273 417.406 140.273L383.145 142.464C383.145 142.464 366.441 146.393 353.905 150.539C350.122 151.781 346.668 153.735 343.771 156.274C340.874 158.814 338.599 161.88 337.094 165.274L318.198 208.164C318.198 208.164 320.984 206.73 328.996 206.828C337.266 206.936 351.368 212.968 351.368 212.968L342.395 277.549C370.005 294.475 403.207 295.988 435.384 281.321L435.567 272.106L439.033 210.375C442.618 205.944 462.107 200.187 475.68 206.249C475.712 206.268 462.583 162.013 456.46 155.893Z" fill="#455A64"/>
<path d="M435.934 171.011C435.934 170.747 435.981 170.485 436.074 170.235C436.25 169.545 436.484 168.868 436.776 168.211C437.716 166.023 439.076 164.004 440.793 162.249C442.503 160.487 444.538 159.011 446.807 157.887C447.503 157.548 448.225 157.256 448.967 157.013C449.225 156.898 449.502 156.822 449.787 156.787C449.787 156.865 448.708 157.268 447.012 158.162C442.618 160.516 439.156 164.075 437.122 168.329C436.312 169.931 436.01 171.011 435.934 171.011Z" fill="#263238"/>
<path d="M436.021 209.706C435.891 209.706 435.751 201.7 435.707 191.818C435.664 181.935 435.707 173.929 435.88 173.919C436.053 173.909 436.15 181.935 436.193 191.818C436.237 201.7 436.161 209.706 436.021 209.706Z" fill="#263238"/>
<path d="M355.795 174.941C355.935 174.941 355.039 183.35 353.808 193.684C352.577 204.019 351.476 212.349 351.346 212.349C351.217 212.349 352.102 203.94 353.333 193.606C354.564 183.271 355.622 174.941 355.795 174.941Z" fill="#263238"/>
<path d="M422.049 141.982C422.077 142.191 422.077 142.402 422.049 142.611C422.065 143.205 422.04 143.799 421.973 144.389C421.729 146.579 421.087 148.717 420.073 150.716C418.562 153.693 416.289 156.297 413.443 158.309C409.894 160.722 405.635 162.115 401.211 162.311C396.786 162.507 392.398 161.497 388.609 159.41C385.559 157.656 383.018 155.261 381.202 152.425C379.982 150.524 379.117 148.453 378.643 146.295C378.514 145.711 378.424 145.121 378.373 144.527C378.344 144.321 378.344 144.113 378.373 143.908C378.437 143.908 378.481 144.763 378.858 146.266C379.401 148.38 380.301 150.404 381.525 152.268C383.355 155.025 385.875 157.351 388.879 159.056C392.6 161.085 396.898 162.067 401.231 161.876C405.564 161.686 409.739 160.332 413.227 157.985C416.03 156.024 418.287 153.49 419.814 150.588C420.838 148.623 421.523 146.525 421.843 144.37C422.027 142.847 421.984 141.982 422.049 141.982Z" fill="#263238"/>
<path d="M351.919 198.616C351.563 198.547 351.219 198.438 350.893 198.291C350.256 198.056 349.316 197.712 348.161 197.309C342.132 195.202 335.84 193.78 329.427 193.075C328.197 192.938 327.203 192.839 326.512 192.78C326.148 192.766 325.786 192.717 325.432 192.633C325.791 192.594 326.153 192.594 326.512 192.633C327.203 192.633 328.207 192.692 329.449 192.79C335.925 193.333 342.274 194.764 348.28 197.034C349.424 197.476 350.342 197.859 350.958 198.144C351.297 198.267 351.619 198.425 351.919 198.616Z" fill="#FAFAFA"/>
<path d="M435.459 195.177C435.459 195.305 417.103 194.883 394.537 194.195C371.97 193.507 353.625 192.928 353.625 192.8C353.625 192.672 371.981 193.105 394.558 193.782C417.136 194.46 435.459 195.059 435.459 195.177Z" fill="#FAFAFA"/>
<path d="M467.917 183.703C467.489 183.741 467.059 183.741 466.632 183.703C465.8 183.703 464.612 183.635 463.144 183.644C455.466 183.679 447.881 185.178 440.879 188.045C439.541 188.595 438.461 189.028 437.737 189.411C437.368 189.611 436.978 189.776 436.571 189.902C436.908 189.658 437.269 189.444 437.651 189.264C438.353 188.871 439.411 188.35 440.739 187.76C444.225 186.245 447.892 185.101 451.666 184.352C455.441 183.619 459.296 183.29 463.155 183.369C464.324 183.381 465.491 183.447 466.653 183.566C467.078 183.578 467.501 183.624 467.917 183.703Z" fill="#FAFAFA"/>
<path d="M355.622 171.66C355.568 171.719 354.661 171.07 353.085 170.176C351.048 169.031 348.875 168.102 346.606 167.406C344.318 166.723 341.953 166.278 339.555 166.08C337.709 165.932 336.554 165.962 336.554 165.883C336.817 165.817 337.09 165.784 337.364 165.785C338.101 165.744 338.84 165.744 339.577 165.785C342.02 165.887 344.436 166.293 346.757 166.993C349.078 167.694 351.281 168.686 353.301 169.94C353.92 170.31 354.512 170.717 355.071 171.159C355.277 171.304 355.462 171.472 355.622 171.66Z" fill="#FAFAFA"/>
<path d="M429.769 170.196C429.536 170.224 429.3 170.224 429.067 170.196L427.07 170.078L419.716 169.597C413.519 169.194 404.945 168.713 395.465 168.369C385.985 168.025 377.39 167.897 371.171 167.858L363.807 167.809H361.798C361.569 167.826 361.337 167.826 361.107 167.809C361.337 167.788 361.569 167.788 361.798 167.809L363.807 167.75C365.545 167.701 368.061 167.661 371.171 167.652C377.39 167.652 385.996 167.652 395.487 168.035C404.978 168.418 413.551 168.909 419.749 169.39C422.848 169.626 425.353 169.842 427.08 170.009L429.078 170.216C429.307 170.193 429.538 170.187 429.769 170.196Z" fill="#FAFAFA"/>
<path d="M377.595 149.792C374.885 149.847 372.174 149.758 369.476 149.527C366.767 149.437 364.066 149.201 361.388 148.82C364.098 148.765 366.809 148.854 369.508 149.085C372.217 149.169 374.918 149.405 377.595 149.792Z" fill="#FAFAFA"/>
<path d="M442.067 148.898C442.067 149.016 437.36 149.114 431.572 149.114C425.785 149.114 421.077 149.016 421.077 148.898C421.077 148.78 425.774 148.672 431.572 148.672C437.37 148.672 442.067 148.771 442.067 148.898Z" fill="#FAFAFA"/>
<path d="M436.658 226.642C436.658 226.642 436.582 226.642 436.442 226.642H435.783H433.278C431.119 226.642 427.944 226.642 424.046 226.574C416.25 226.456 405.474 226.122 393.608 225.434C381.741 224.746 370.998 223.833 363.245 223.047C359.38 222.654 356.249 222.31 354.078 222.065L351.595 221.75L350.947 221.662L350.731 221.613H350.958L351.606 221.662L354.1 221.888L363.288 222.742C371.041 223.45 381.763 224.314 393.64 225.002C405.518 225.69 416.315 226.073 424.046 226.269L433.278 226.475L435.783 226.544H436.442L436.658 226.642Z" fill="#FAFAFA"/>
<path d="M437.295 254.07L437.068 254.129L436.388 254.266L433.775 254.738C432.63 254.944 431.237 255.19 429.607 255.406C427.976 255.622 426.13 255.936 424.068 256.153C422.005 256.369 419.749 256.663 417.33 256.86C414.911 257.056 412.298 257.233 409.567 257.4C404.081 257.665 398.046 257.764 391.718 257.567C385.391 257.371 379.377 256.86 373.978 256.241C371.257 255.897 368.676 255.593 366.268 255.19C363.861 254.787 361.636 254.433 359.606 254.05C357.576 253.667 355.741 253.284 354.143 252.95C352.545 252.616 351.163 252.292 350.04 251.968L347.47 251.319L346.8 251.143C346.72 251.129 346.643 251.103 346.574 251.064H346.811L347.492 251.201L350.083 251.761C351.163 252.017 352.588 252.321 354.197 252.626C355.806 252.93 357.63 253.333 359.671 253.667C361.712 254.001 363.936 254.414 366.344 254.748C368.752 255.082 371.322 255.426 374.032 255.73C379.431 256.32 385.466 256.801 391.783 257.017C398.1 257.233 404.125 257.125 409.588 256.889C412.32 256.732 414.922 256.614 417.341 256.379C419.759 256.143 422.027 255.966 424.078 255.74C426.13 255.514 427.987 255.259 429.618 255.052C431.248 254.846 432.652 254.64 433.796 254.463L436.42 254.07L437.111 253.972C437.219 254.06 437.295 254.06 437.295 254.07Z" fill="#FAFAFA"/>
<path d="M435.524 277.499L435.297 277.578L434.617 277.765L431.982 278.462C431.41 278.6 430.773 278.776 430.071 278.934L427.771 279.405L425.126 279.936C424.186 280.112 423.182 280.24 422.124 280.407C421.066 280.574 419.965 280.741 418.831 280.898L415.224 281.291L413.324 281.488L411.359 281.625L407.256 281.91C401.139 282.161 395.013 282.129 388.9 281.812C382.422 281.419 376.256 280.702 370.695 279.847L366.657 279.13L364.724 278.786L362.867 278.384L359.336 277.627L356.097 276.812C351.663 275.714 347.315 274.342 343.086 272.705C343.169 272.712 343.249 272.732 343.324 272.764L344.004 272.971L346.585 273.806C347.146 273.983 347.762 274.199 348.442 274.405L350.688 275.043L353.268 275.78C354.186 276.036 355.169 276.252 356.194 276.517L359.434 277.293L362.964 278.03L364.822 278.413L366.754 278.747L370.793 279.444C376.332 280.27 382.465 280.967 388.943 281.36C395.027 281.68 401.124 281.723 407.213 281.488L411.305 281.232L413.27 281.105L415.16 280.908L418.755 280.545C419.9 280.407 421.001 280.23 422.048 280.093C423.096 279.955 424.1 279.808 425.039 279.651L427.696 279.15L429.995 278.727C430.697 278.58 431.334 278.413 431.917 278.285L434.574 277.666L435.265 277.519L435.524 277.499Z" fill="#FAFAFA"/>
<path opacity="0.2" d="M346.79 244.688C362.32 241.907 376.813 235.567 388.9 226.269C391.06 224.629 393.316 222.801 396.113 222.713C399.255 222.615 401.868 224.756 404.265 226.642C413.775 234.025 425.232 239.032 437.511 241.172C439.281 238.657 438.515 235.199 436.56 232.802C434.606 230.405 431.68 228.872 428.851 227.34L402.321 213.253C400.313 212.182 398.089 211.082 395.789 211.416C394.284 211.743 392.881 212.378 391.686 213.273L350.277 239.796C348.463 240.965 346.423 242.979 347.61 244.708" fill="black"/>
<path d="M320.811 207.703C320.811 207.703 314.602 224.501 313.717 227.399C312.011 233.028 313.609 247.695 328.661 247.695C346.908 247.695 413.497 208.606 413.497 208.606L399.892 201.15L345.904 217.182L347.977 211.642C347.977 211.642 333.012 204.598 320.811 207.703Z" fill="#FFBE9D"/>
<path d="M400.173 201.72C400.173 201.72 417.978 180.658 417.978 180.383C417.978 180.108 428.549 171.876 428.549 171.876C428.549 171.876 430.881 171.974 430.708 173.359C430.536 174.744 426.746 179.636 426.746 179.636C426.291 180.731 425.677 181.765 424.921 182.711C423.841 184.116 418.626 192.535 418.626 192.535C418.626 192.535 423.603 188.193 424.51 188.605C424.764 188.687 424.995 188.817 425.189 188.985C425.384 189.154 425.537 189.358 425.639 189.584C425.741 189.811 425.789 190.054 425.781 190.298C425.772 190.542 425.707 190.782 425.59 191.002C425.083 192.387 420.407 196.641 420.407 196.641C420.407 196.641 417.665 205.423 414.62 207.919L406.997 212.536L400.173 201.72Z" fill="#FFBE9D"/>
<path d="M416.747 196.15C416.813 196.609 416.779 197.076 416.645 197.523C416.512 197.969 416.282 198.388 415.97 198.753C415.362 199.567 414.702 200.348 413.994 201.091C413.19 202.011 412.579 203.056 412.19 204.176C411.748 205.365 411.413 206.553 410.949 207.595C410.557 208.529 409.982 209.391 409.254 210.139C408.751 210.636 408.136 211.029 407.45 211.288C407.204 211.395 406.935 211.452 406.662 211.455C407.559 211.106 408.357 210.575 408.994 209.903C409.656 209.161 410.178 208.325 410.538 207.428C410.96 206.445 411.273 205.227 411.737 204.019C412.14 202.849 412.789 201.761 413.648 200.816C414.426 199.962 415.181 199.254 415.678 198.567C416.228 197.844 416.593 197.018 416.747 196.15Z" fill="#EB996E"/>
<path d="M426.735 180.157C426.735 180.157 426.551 179.97 426.163 179.735C425.605 179.421 424.942 179.299 424.295 179.391C423.33 179.549 422.456 180.007 421.822 180.688C421.055 181.424 420.343 182.377 419.522 183.32C417.913 185.226 416.434 186.935 415.343 188.163C414.796 188.869 414.178 189.526 413.497 190.128C413.949 189.383 414.473 188.676 415.063 188.016C416.088 186.739 417.525 185 419.133 183.104C419.954 182.122 420.677 181.218 421.498 180.452C422.212 179.727 423.19 179.259 424.251 179.135C424.61 179.095 424.974 179.119 425.322 179.206C425.671 179.294 425.997 179.444 426.281 179.646C426.67 179.902 426.756 180.157 426.735 180.157Z" fill="#EB996E"/>
<path d="M416.887 201.091C416.747 201.042 417.438 199.126 417.967 196.788C418.496 194.45 418.615 192.437 418.755 192.437C418.944 193.922 418.838 195.426 418.442 196.877C418.193 198.352 417.667 199.778 416.887 201.091Z" fill="#EB996E"/>
<path d="M468.651 204.186C468.651 204.186 475.194 221.21 476.079 224.118C477.451 228.597 476.187 244.413 461.136 244.413C442.888 244.413 376.31 205.315 376.31 205.315L388.879 197.535L443.892 213.872L441.733 208.164C450 204.235 459.441 202.84 468.651 204.186Z" fill="#FFBE9D"/>
<path d="M389.624 198.439C389.624 198.439 371.818 177.367 371.818 177.092C371.818 176.817 361.258 168.595 361.258 168.595C361.258 168.595 358.926 168.683 359.099 170.068C359.272 171.453 363.051 176.355 363.051 176.355C363.512 177.446 364.129 178.476 364.886 179.42C365.966 180.835 371.181 189.195 371.181 189.195C371.181 189.195 366.204 184.853 365.286 185.314C365.032 185.397 364.801 185.528 364.606 185.698C364.412 185.867 364.259 186.072 364.157 186.299C364.055 186.526 364.007 186.77 364.015 187.015C364.024 187.26 364.089 187.501 364.206 187.721C364.714 189.106 369.389 193.36 369.389 193.36C369.389 193.36 372.132 202.132 375.176 204.628L382.789 209.245L389.624 198.439Z" fill="#FFBE9D"/>
<path d="M373.06 192.859C373.209 193.739 373.578 194.576 374.14 195.305C374.647 195.983 375.392 196.69 376.181 197.555C377.04 198.496 377.689 199.58 378.092 200.747C378.545 201.965 378.869 203.144 379.29 204.156C379.651 205.056 380.173 205.896 380.834 206.642C381.47 207.313 382.269 207.841 383.167 208.184C382.893 208.187 382.622 208.13 382.378 208.017C381.686 207.759 381.069 207.359 380.575 206.848C379.846 206.098 379.269 205.236 378.869 204.303C378.416 203.262 378.081 202.083 377.628 200.895C377.245 199.775 376.637 198.729 375.835 197.81C375.124 197.069 374.464 196.288 373.859 195.472C373.543 195.106 373.309 194.687 373.172 194.238C373.035 193.79 372.997 193.321 373.06 192.859Z" fill="#EB996E"/>
<path d="M363.073 176.905C363.073 176.905 363.137 176.64 363.526 176.336C364.102 175.936 364.825 175.754 365.545 175.825C366.611 175.944 367.591 176.416 368.299 177.151C369.14 177.991 369.93 178.873 370.663 179.794C372.283 181.699 373.719 183.438 374.734 184.705C375.328 185.368 375.856 186.078 376.31 186.827C375.637 186.22 375.019 185.562 374.464 184.863C373.384 183.635 371.894 181.915 370.285 180.019C369.465 179.037 368.741 178.123 367.985 177.387C367.35 176.708 366.477 176.25 365.513 176.09C364.863 176.001 364.199 176.119 363.634 176.424C363.245 176.679 363.105 176.905 363.073 176.905Z" fill="#EB996E"/>
<path d="M372.898 197.8C371.479 195.11 370.844 192.133 371.052 189.155C371.192 189.155 371.322 191.12 371.84 193.507C372.358 195.894 373.06 197.761 372.898 197.8Z" fill="#EB996E"/>
<path d="M405.172 221.357C405.097 221.456 398.327 217.801 390.056 213.184C381.785 208.567 375.112 204.736 375.187 204.628C375.263 204.52 382.022 208.184 390.304 212.801C398.586 217.418 405.291 221.249 405.172 221.357Z" fill="#EB996E"/>
<path d="M445.015 214.382C444.817 214.356 444.622 214.313 444.432 214.255L442.78 213.813L436.733 212.113C431.626 210.65 424.586 208.606 416.833 206.298C409.081 203.989 402.073 201.857 397.009 200.266C394.483 199.47 392.442 198.812 391.038 198.301L389.429 197.741C389.235 197.689 389.05 197.613 388.879 197.515C389.077 197.547 389.272 197.593 389.462 197.653L391.103 198.134L397.128 199.932L416.985 205.826L436.83 211.72L442.834 213.557L444.464 214.078C444.663 214.155 444.849 214.257 445.015 214.382Z" fill="#EB996E"/>
<path d="M393.986 68.0301C387.258 68.0268 380.793 70.404 375.957 74.659C371.121 78.914 368.293 84.7133 368.072 90.8308C367.651 102.187 367.359 114.732 367.759 120.793C368.579 133.377 382.519 134.733 382.519 134.733V142.434C382.515 144.571 382.973 146.687 383.869 148.661C384.765 150.636 386.079 152.431 387.738 153.943C389.397 155.455 391.367 156.654 393.536 157.472C395.705 158.291 398.03 158.712 400.378 158.712C405.058 158.713 409.552 157.043 412.893 154.062C416.235 151.081 418.157 147.026 418.248 142.768L419.328 92.2552C419.461 89.1396 418.906 86.0314 417.695 83.1143C416.485 80.1973 414.644 77.5306 412.282 75.2721C409.919 73.0136 407.082 71.209 403.94 69.9651C400.797 68.7212 397.413 68.0632 393.986 68.0301Z" fill="#FFBE9D"/>
<path d="M382.508 134.762C388.901 134.6 395.096 132.709 400.302 129.33C400.302 129.33 396.372 138.701 382.508 138.171V134.762Z" fill="#EB996E"/>
<path d="M372.294 98.1003C372.542 98.336 374.032 97.3144 376.159 97.3045C378.286 97.2947 379.852 98.2869 380.079 98.0217C380.305 97.7564 379.938 97.4912 379.258 97.0393C378.335 96.4614 377.236 96.1593 376.116 96.1748C375.008 96.1782 373.931 96.5016 373.039 97.0982C372.391 97.5698 372.164 97.9922 372.294 98.1003Z" fill="#263238"/>
<path d="M393.414 97.7368C393.662 97.9627 395.13 96.9214 397.257 96.8821C399.385 96.8428 400.972 97.7662 401.199 97.5207C401.425 97.2751 401.047 97 400.356 96.5383C399.421 95.9738 398.315 95.6888 397.193 95.7229C396.085 95.7475 395.015 96.0915 394.137 96.7053C393.414 97.2063 393.23 97.6385 393.414 97.7368Z" fill="#263238"/>
<path d="M385.337 111.146C384.197 110.881 383.026 110.742 381.849 110.733C381.299 110.733 380.77 110.625 380.672 110.291C380.603 109.785 380.705 109.271 380.964 108.818C381.407 107.6 381.882 106.323 382.368 104.987C384.322 99.5345 385.704 95.0549 385.467 94.9861C385.229 94.9174 383.447 99.279 381.493 104.731C381.029 106.077 380.575 107.354 380.154 108.582C379.847 109.198 379.782 109.892 379.971 110.547C380.059 110.716 380.189 110.865 380.35 110.982C380.511 111.099 380.698 111.182 380.899 111.225C381.203 111.291 381.516 111.318 381.828 111.303C383 111.382 384.179 111.329 385.337 111.146Z" fill="#263238"/>
<path d="M391.988 93.2768C392.323 93.7484 394.342 93.0804 396.836 92.8446C399.331 92.6088 401.468 92.8446 401.674 92.2847C401.76 92.0391 401.296 91.6167 400.378 91.3023C399.166 90.9127 397.872 90.7783 396.595 90.9093C395.318 91.0403 394.09 91.4333 393.003 92.0587C392.193 92.5499 391.848 93.0509 391.988 93.2768Z" fill="#263238"/>
<path d="M371.592 93.2081C371.862 93.7288 373.524 93.6403 375.371 94.0627C377.217 94.4852 378.696 95.1434 379.182 94.7897C379.409 94.6031 379.28 94.1217 378.707 93.5617C377.918 92.8562 376.929 92.3634 375.85 92.1379C374.771 91.9125 373.645 91.9633 372.596 92.2847C371.818 92.5696 371.473 92.9625 371.592 93.2081Z" fill="#263238"/>
<path d="M393.522 115.301C393.435 115.409 392.949 115.154 392.118 114.948C391.058 114.684 389.939 114.684 388.879 114.948C387.831 115.245 386.893 115.799 386.169 116.549C385.585 117.129 385.326 117.59 385.186 117.531C385.046 117.472 385.11 116.932 385.607 116.166C386.296 115.164 387.363 114.427 388.609 114.093C389.857 113.762 391.196 113.864 392.366 114.378C393.241 114.761 393.608 115.223 393.522 115.301Z" fill="#263238"/>
<path d="M374.237 99.8194C374.254 100.281 374.469 100.719 374.836 101.039C375.204 101.358 375.694 101.534 376.202 101.529C376.451 101.537 376.699 101.499 376.932 101.418C377.165 101.338 377.377 101.216 377.557 101.059C377.738 100.903 377.881 100.715 377.981 100.507C378.08 100.299 378.132 100.075 378.135 99.8488C378.115 99.3815 377.895 98.9398 377.522 98.6185C377.148 98.2971 376.651 98.1216 376.137 98.1297C375.89 98.1258 375.645 98.1665 375.415 98.2496C375.185 98.3326 374.976 98.4563 374.799 98.6135C374.623 98.7706 374.482 98.9581 374.385 99.1651C374.289 99.3721 374.238 99.5945 374.237 99.8194Z" fill="#263238"/>
<path d="M395.292 99.2987C395.312 99.7617 395.529 100.199 395.898 100.519C396.268 100.838 396.759 101.013 397.268 101.008C397.518 101.016 397.767 100.978 398 100.897C398.234 100.816 398.447 100.693 398.627 100.535C398.807 100.377 398.951 100.189 399.05 99.9796C399.148 99.7706 399.2 99.5458 399.201 99.3184C399.181 98.8554 398.964 98.4177 398.595 98.0984C398.226 97.7792 397.734 97.6036 397.225 97.6091C396.975 97.6012 396.726 97.639 396.493 97.7202C396.259 97.8015 396.046 97.9245 395.866 98.0821C395.686 98.2396 395.542 98.4285 395.444 98.6375C395.345 98.8465 395.294 99.0713 395.292 99.2987Z" fill="#263238"/>
<path d="M428.246 91.6854C428.582 91.3503 428.834 90.9525 428.983 90.5198C429.132 90.0871 429.175 89.63 429.11 89.1804C428.83 88.198 427.609 87.5693 427.188 86.587C426.767 85.6046 427.188 84.5142 427.188 83.4729C426.994 82.0152 426.19 80.6817 424.942 79.7497C424.824 79.6416 424.694 79.5434 424.565 79.4452C423.574 77.4598 422.343 75.5816 420.893 73.8457L424.478 76.8714C425.731 73.6983 420.634 68.0891 416.434 66.4387C413.532 65.4616 410.342 65.4616 407.44 66.4387C407.44 66.4387 396.858 59.1888 386.492 61.5269C380.143 62.9808 373.762 65.4563 369.465 71.2424C368.584 71.6611 367.806 72.2385 367.179 72.9393C366.552 73.6402 366.088 74.45 365.815 75.3192C365.038 77.4804 364.876 79.8381 363.656 81.8421C362.803 83.296 361.399 84.7892 361.831 86.3512C362.198 87.6577 363.72 88.4731 364.206 89.7502C364.692 91.0272 364.034 92.4222 364.055 93.7779C364.096 94.8163 364.523 95.8113 365.266 96.6001C366.01 97.3889 367.026 97.9248 368.147 98.1199C368.774 94.7111 369.227 91.2434 369.497 87.8051C371.322 88.8857 375.166 89.9368 382.616 87.6381L392.215 82.7263C392.215 82.7263 387.475 86.4592 389.786 87.088C391.751 87.6283 402.041 82.5396 405.118 80.9777C406.031 80.501 407.082 80.2886 408.131 80.3686C409.534 80.5061 411.176 81.2134 411.521 83.7086C411.813 85.8404 410.441 105.861 412.471 105.871C413.616 105.871 418.021 104.132 418.766 103.67V113.376C419.161 113.173 419.488 112.878 419.716 112.521L424.316 106.549C425.42 105.22 426.358 103.783 427.113 102.265C427.886 100.727 428.068 98.9975 427.631 97.3537C427.286 96.2436 426.551 95.1532 426.756 94.0038C427.045 93.1348 427.556 92.3403 428.246 91.6854Z" fill="#263238"/>
<path d="M402.332 60.4168C402.484 60.1614 403.185 60.1515 404.157 60.5543C405.398 61.1287 406.457 61.9811 407.236 63.0313C408.014 64.0814 408.486 65.2947 408.606 66.5566C408.606 67.5389 408.379 68.1185 408.055 68.148C407.364 68.148 406.705 66.1833 405.215 64.2185C403.725 62.2538 402.052 60.9866 402.332 60.4168Z" fill="#263238"/>
<path d="M367.564 74.5235C367.83 75.0004 368.197 75.4246 368.644 75.7711C369.301 76.1921 370.06 76.4643 370.856 76.5651C371.652 76.6659 372.463 76.5924 373.222 76.3507C374.281 76.0211 375.286 75.5652 376.213 74.995C377.239 74.4056 378.297 73.6983 379.549 73.1187C380.855 72.4278 382.364 72.1223 383.868 72.2444C385.419 72.4932 386.914 72.971 388.295 73.659C389.633 74.3398 391.097 74.7894 392.614 74.9852C394.008 75.0634 395.391 74.7178 396.545 74.0029C398.812 72.6472 400.302 70.8102 402.052 69.6805C403.333 68.691 404.922 68.09 406.597 67.9613C407.052 67.9472 407.507 67.9935 407.947 68.0989C408.238 68.1971 408.39 68.2462 408.379 68.2659C407.798 68.1512 407.202 68.105 406.608 68.1283C405.004 68.3316 403.502 68.9603 402.289 69.9359C400.648 71.0558 399.147 72.883 396.804 74.3369C395.569 75.1167 394.083 75.4972 392.582 75.4175C391.02 75.2182 389.512 74.7586 388.133 74.0618C386.805 73.3909 385.364 72.9229 383.868 72.6767C382.467 72.5698 381.064 72.8505 379.841 73.4822C378.642 74.0323 377.574 74.72 376.526 75.3094C375.564 75.8855 374.517 76.3353 373.416 76.6454C372.612 76.8887 371.754 76.9487 370.919 76.8202C370.083 76.6918 369.294 76.3788 368.622 75.9086C368.267 75.6425 367.983 75.3067 367.791 74.9263C367.685 74.8083 367.607 74.6709 367.564 74.5235Z" fill="#455A64"/>
<path d="M426.767 83.8756C426.767 83.8756 426.767 83.964 426.659 84.1016C426.527 84.3051 426.363 84.4904 426.173 84.6517C425.435 85.2236 424.497 85.5371 423.528 85.5358C422.091 85.5224 420.706 85.0455 419.619 84.19C418.315 83.1906 417.131 82.0676 416.088 80.8401C414.14 78.6639 412.48 76.2866 411.143 73.7573C410.636 72.7749 410.279 71.9792 410.063 71.4193C409.921 71.1341 409.82 70.8337 409.761 70.5253C409.837 70.5253 410.387 71.7238 411.467 73.6197C412.88 76.0801 414.558 78.4067 416.477 80.5651C417.501 81.7637 418.647 82.8721 419.9 83.8756C420.905 84.6881 422.185 85.163 423.528 85.2214C424.437 85.2487 425.329 84.9998 426.065 84.5141C426.314 84.315 426.548 84.1018 426.767 83.8756Z" fill="#455A64"/>
<path d="M426.886 95.3693C426.886 95.3693 426.67 95.5068 426.227 95.6345C425.6 95.8079 424.95 95.9005 424.294 95.9096C422.134 95.8901 420.028 95.2846 418.248 94.1708C416.488 93.0536 414.923 91.7025 413.605 90.1627C413.023 89.5539 412.506 88.896 412.061 88.198C412.722 88.7264 413.329 89.3084 413.875 89.9368C415.237 91.3941 416.797 92.688 418.518 93.7876C420.243 94.8545 422.255 95.4727 424.338 95.5755C425.192 95.5668 426.044 95.4978 426.886 95.3693Z" fill="#455A64"/>
<path d="M415.009 98.3655C415.246 98.2672 424.381 95.4184 424.532 104.014C424.683 112.61 415.138 110.989 415.117 110.743C415.095 110.498 415.009 98.3655 415.009 98.3655Z" fill="#FFBE9D"/>
<path d="M417.913 107.443C417.913 107.443 418.075 107.541 418.356 107.659C418.751 107.804 419.192 107.804 419.587 107.659C420.58 107.315 421.401 105.851 421.422 104.299C421.433 103.56 421.263 102.829 420.926 102.157C420.832 101.889 420.668 101.645 420.448 101.447C420.228 101.248 419.958 101.101 419.662 101.018C419.472 100.975 419.271 100.995 419.095 101.074C418.919 101.153 418.78 101.286 418.701 101.45C418.572 101.686 418.637 101.863 418.583 101.873C418.529 101.882 418.377 101.735 418.453 101.381C418.497 101.163 418.628 100.967 418.82 100.831C419.078 100.651 419.404 100.569 419.727 100.605C420.117 100.669 420.482 100.823 420.789 101.051C421.095 101.28 421.331 101.576 421.476 101.912C421.885 102.656 422.092 103.477 422.081 104.309C422.081 106.048 421.098 107.688 419.738 108.061C419.485 108.131 419.218 108.149 418.957 108.113C418.695 108.078 418.446 107.989 418.226 107.855C417.924 107.649 417.881 107.452 417.913 107.443Z" fill="#EB996E"/>
<path d="M325.67 344.192C325.67 346.628 323.64 348.033 319.688 348.033H312.227V333.808H319.234C322.83 333.808 324.838 335.193 324.838 337.492C324.867 338.148 324.684 338.797 324.312 339.359C323.939 339.921 323.394 340.372 322.744 340.655C323.61 340.839 324.378 341.294 324.913 341.94C325.448 342.587 325.716 343.384 325.67 344.192ZM314.462 335.459V339.978H319.04C321.318 339.978 322.603 339.202 322.603 337.698C322.603 336.195 321.318 335.429 319.04 335.429L314.462 335.459ZM323.413 344.025C323.413 342.384 322.074 341.657 319.591 341.657H314.462V346.383H319.591C322.074 346.383 323.413 345.675 323.413 344.025Z" fill="#6EACDA"/>
<path d="M339.08 344.477H330.788L329.071 348.033H326.771L333.844 333.808H336.057L343.151 348.033H340.808L339.08 344.477ZM338.303 342.856L334.923 335.881L331.555 342.856H338.303Z" fill="#6EACDA"/>
<path d="M345.462 333.808H352.048C357.069 333.808 360.492 336.696 360.492 340.921C360.492 345.145 357.069 348.033 352.048 348.033H345.462V333.808ZM351.94 346.265C355.795 346.265 358.278 344.113 358.278 340.921C358.278 337.728 355.795 335.577 351.94 335.577H347.718V346.265H351.94Z" fill="#6EACDA"/>
<path d="M380.348 348.033L376.98 343.661C376.666 343.661 376.332 343.661 375.997 343.661H372.132V347.994H369.907V333.808H375.997C380.057 333.808 382.476 335.685 382.476 338.72C382.526 339.709 382.216 340.686 381.593 341.498C380.97 342.31 380.069 342.912 379.031 343.21L382.745 347.984L380.348 348.033ZM380.284 338.769C380.284 336.736 378.783 335.577 375.965 335.577H372.164V341.942H375.965C378.783 341.942 380.284 340.803 380.284 338.769Z" fill="#6EACDA"/>
<path d="M397.473 346.265V348.033H386.125V333.808H397.16V335.577H388.36V339.978H396.199V341.707H388.36V346.294L397.473 346.265Z" fill="#6EACDA"/>
<path d="M417.168 349.33C416.692 349.858 416.092 350.282 415.411 350.571C414.731 350.86 413.989 351.006 413.238 351C411.273 351 409.739 350.224 407.548 348.171C406.012 348.019 404.557 347.466 403.359 346.578C402.161 345.69 401.271 344.506 400.797 343.168C400.322 341.831 400.284 340.397 400.686 339.039C401.088 337.682 401.914 336.46 403.063 335.52C404.212 334.581 405.635 333.964 407.161 333.744C408.687 333.524 410.25 333.711 411.662 334.282C413.074 334.854 414.274 335.784 415.117 336.962C415.96 338.14 416.41 339.515 416.412 340.921C416.447 342.563 415.853 344.164 414.733 345.451C413.612 346.738 412.033 347.63 410.269 347.974C410.626 348.392 411.078 348.734 411.594 348.978C412.111 349.222 412.678 349.362 413.259 349.389C413.806 349.391 414.346 349.283 414.841 349.072C415.335 348.861 415.773 348.554 416.121 348.171L417.168 349.33ZM408.131 346.383C409.314 346.365 410.465 346.03 411.439 345.42C412.413 344.809 413.168 343.95 413.607 342.95C414.047 341.951 414.152 340.856 413.909 339.802C413.667 338.748 413.088 337.783 412.244 337.028C411.401 336.273 410.331 335.762 409.169 335.558C408.008 335.355 406.805 335.468 405.714 335.884C404.623 336.299 403.691 336.999 403.035 337.896C402.38 338.792 402.03 339.844 402.03 340.921C402.012 341.646 402.157 342.367 402.455 343.039C402.753 343.712 403.198 344.322 403.764 344.833C404.33 345.344 405.004 345.745 405.745 346.012C406.487 346.278 407.28 346.404 408.077 346.383H408.131Z" fill="#6EACDA"/>
<path d="M419.63 341.942V333.858H421.865V341.864C421.865 345.017 423.452 346.432 426.26 346.432C429.067 346.432 430.687 345.017 430.687 341.864V333.858H432.846V341.942C432.846 346.068 430.373 348.239 426.238 348.239C422.103 348.239 419.63 346.019 419.63 341.942Z" fill="#6EACDA"/>
<path d="M448.762 346.265V348.033H437.424V333.808H448.481V335.577H439.692V339.978H447.52V341.707H439.692V346.294L448.762 346.265Z" fill="#6EACDA"/>
<path d="M450.943 346.402L451.774 344.821C453.229 345.903 455.056 346.487 456.935 346.471C459.635 346.471 460.79 345.489 460.79 344.271C460.79 340.803 451.332 342.994 451.332 337.708C451.332 335.518 453.2 333.651 457.313 333.651C459.085 333.621 460.829 334.057 462.334 334.909L461.6 336.53C460.308 335.784 458.811 335.385 457.281 335.38C454.625 335.38 453.48 336.363 453.48 337.63C453.48 341.107 462.95 338.927 462.95 344.153C462.95 346.324 461.028 348.19 456.903 348.19C454.748 348.243 452.64 347.611 450.943 346.402Z" fill="#6EACDA"/>
<path d="M469.115 335.577H463.716V333.808H476.673V335.577H471.275V348.033H469.061L469.115 335.577Z" fill="#6EACDA"/>
<path d="M333.51 111.94L323.77 94.77C329.79 84.9898 331.934 73.3114 329.78 62.0306C327.626 50.7499 321.331 40.6828 312.131 33.8084C302.931 26.934 291.492 23.7496 280.064 24.8812C268.635 26.0128 258.043 31.3786 250.37 39.9236C242.697 48.4687 238.498 59.5749 238.598 71.059C238.698 82.5431 243.091 93.5743 250.912 101.984C258.733 110.394 269.417 115.574 280.864 116.506C292.31 117.438 303.691 114.054 312.77 107.02L333.51 111.94Z" fill="#FAFAFA"/>
<path d="M333.51 111.94L312.71 107.17C312.693 107.168 312.677 107.162 312.662 107.153C312.648 107.144 312.636 107.132 312.626 107.118C312.617 107.103 312.61 107.087 312.608 107.071C312.605 107.054 312.606 107.036 312.61 107.02L312.79 107.2C309.871 109.456 306.7 111.366 303.34 112.89C299.335 114.678 295.096 115.887 290.75 116.48C288.342 116.817 285.91 116.941 283.48 116.85C282.23 116.78 280.96 116.74 279.67 116.64L275.79 116.05C264.234 113.777 253.976 107.191 247.1 97.63C243.278 92.3376 240.632 86.289 239.34 79.89C238.017 73.123 238.201 66.1477 239.88 59.46C241.618 52.4761 244.991 46.0051 249.72 40.58L251.6 38.52C252.22 37.82 252.95 37.25 253.6 36.62C254.262 35.9787 254.956 35.3713 255.68 34.8L257.88 33.15C258.609 32.5963 259.374 32.0919 260.17 31.64L262.49 30.23L265 29C265.799 28.5804 266.624 28.213 267.47 27.9C273.989 25.316 281.005 24.2292 288 24.72C294.629 25.1743 301.078 27.0791 306.89 30.3C317.327 36.1115 325.129 45.7144 328.68 57.12C330.107 61.965 330.781 67.0003 330.68 72.05C330.576 76.4503 329.835 80.8123 328.48 85C327.332 88.461 325.785 91.7767 323.87 94.88V94.76C330.05 105.76 333.08 111.22 333.51 111.99L323.66 94.88C323.65 94.8597 323.645 94.8375 323.645 94.815C323.645 94.7925 323.65 94.7703 323.66 94.75C325.549 91.6581 327.069 88.3556 328.19 84.91C329.531 80.7331 330.265 76.3855 330.37 72C330.46 66.9936 329.786 62.0028 328.37 57.2C324.802 45.9225 317.047 36.4419 306.7 30.71C300.944 27.5304 294.561 25.6529 288 25.21C281.064 24.7196 274.106 25.7926 267.64 28.35C266.808 28.6616 265.996 29.0256 265.21 29.44L262.8 30.61L260.5 32C259.712 32.4416 258.956 32.9396 258.24 33.49L256.06 35.12C255.343 35.6846 254.656 36.2853 254 36.92C253.34 37.54 252.62 38.11 252 38.8L250.14 40.8C245.459 46.1616 242.124 52.5619 240.41 59.47C238.74 66.0802 238.549 72.9774 239.85 79.67C241.13 86.0002 243.741 91.9859 247.51 97.23C254.303 106.718 264.454 113.261 275.9 115.53L279.74 116.13C281.02 116.24 282.28 116.27 283.52 116.34C285.929 116.44 288.342 116.327 290.73 116C298.718 114.948 306.285 111.797 312.66 106.87C312.684 106.847 312.716 106.834 312.75 106.834C312.784 106.834 312.816 106.847 312.84 106.87C312.859 106.89 312.87 106.917 312.87 106.945C312.87 106.973 312.859 107 312.84 107.02L312.76 106.82L333.51 111.94Z" fill="#263238"/>
<path d="M299.472 61.4759L293.957 55.819L268.594 80.5436L274.109 86.2004L299.472 61.4759Z" fill="#6EACDA"/>
<path d="M274.476 55.5684L268.819 61.0829L293.544 86.4457L299.201 80.9312L274.476 55.5684Z" fill="#6EACDA"/>
<path d="M713.66 476.3C713.66 476.44 562.66 476.56 376.53 476.56C190.4 476.56 39.3701 476.44 39.3701 476.3C39.3701 476.16 190.29 476 376.53 476C562.77 476 713.66 476.15 713.66 476.3Z" fill="#263238"/>
<path d="M87.13 416.92V405.71C73.13 405.71 75.49 397.07 75.49 368.3C75.49 348.55 76.1101 338.07 68.21 338.07C60.91 338.07 59.2101 343.19 59.2101 365.66C59.1601 407.29 64.72 416.92 87.13 416.92Z" fill="#6EACDA"/>
<path d="M101.72 451.6V440.4C115.72 440.4 113.36 431.75 113.36 402.99C113.36 383.23 112.74 372.75 120.64 372.75C127.94 372.75 129.64 377.87 129.64 400.35C129.69 442 124.13 451.6 101.72 451.6Z" fill="#6EACDA"/>
<g opacity="0.3">
<path d="M106.61 439.87L108.8 451.18L104.99 451.52L104.42 440.26L106.61 439.87Z" fill="black"/>
</g>
<path d="M94.81 302.58C83.74 302.58 84.56 317.06 84.56 334.8V475.87H105.06V334.8C105.06 317.06 105.88 302.58 94.81 302.58Z" fill="#6EACDA"/>
<path d="M94.81 302.58C83.74 302.58 84.56 317.06 84.56 334.8V475.87H105.06V334.8C105.06 317.06 105.88 302.58 94.81 302.58Z" fill="#6EACDA"/>
<path d="M88.8499 476.31C88.8411 476.16 88.8411 476.01 88.8499 475.86C88.8499 475.54 88.8499 475.1 88.8499 474.54V469.45C88.8499 465 88.9199 458.62 88.9699 450.74C89.1199 434.91 89.3199 413.1 89.5499 389C89.7799 364.9 90.0999 343.08 90.2799 327.26C90.2799 323.31 90.3799 319.73 90.6099 316.6C90.783 313.907 91.1675 311.232 91.7599 308.6C92.134 306.939 92.6389 305.311 93.2699 303.73C93.4799 303.19 93.6799 302.79 93.7999 302.52C93.9199 302.25 93.9999 302.11 93.9999 302.11L93.8499 302.54C93.7399 302.82 93.5599 303.22 93.3599 303.77C92.7832 305.361 92.3122 306.987 91.9499 308.64C91.4225 311.279 91.0882 313.953 90.9499 316.64C90.7499 319.76 90.7299 323.33 90.6999 327.28C90.5499 343.11 90.3499 364.92 90.1199 389.03C89.8899 413.14 89.5699 434.94 89.3899 450.76C89.2699 458.64 89.1699 465.03 89.0999 469.47C89.0999 471.66 89.0299 473.37 88.9999 474.56C88.9999 475.12 88.9999 475.56 88.9999 475.88C88.9999 476.2 88.8499 476.31 88.8499 476.31Z" fill="#263238"/>
<path d="M98.0998 476.11C98.0998 476.11 98.0998 475.95 98.0998 475.66C98.0998 475.37 98.0998 474.9 98.0998 474.34C98.0998 473.16 98.0998 471.45 98.0998 469.27C98.0998 464.85 98.0998 458.49 98.1898 450.64C98.3098 434.89 98.4799 413.16 98.6599 389.17C98.8399 365.18 99.1298 343.44 99.2898 327.69C99.2898 323.76 99.3698 320.2 99.2898 317.08C99.1989 314.401 98.9518 311.73 98.5499 309.08C98.3052 307.413 97.9714 305.761 97.5499 304.13C97.3999 303.59 97.2898 303.13 97.1998 302.86C97.1098 302.59 97.0898 302.43 97.0898 302.43C97.8735 304.575 98.4429 306.793 98.7898 309.05C99.2265 311.698 99.5036 314.369 99.6199 317.05C99.7799 320.18 99.7698 323.74 99.7498 327.67C99.6298 343.43 99.4598 365.15 99.2698 389.15C99.0798 413.15 98.8098 434.87 98.6498 450.62C98.5398 458.47 98.4598 464.83 98.3998 469.25C98.3998 471.43 98.3199 473.14 98.2999 474.32C98.2999 474.88 98.2999 475.32 98.2999 475.64C98.2999 475.96 98.0998 476.11 98.0998 476.11Z" fill="#263238"/>
<path d="M105.27 451.42C104.947 449.534 104.793 447.623 104.81 445.71C104.654 443.802 104.677 441.884 104.88 439.98C105.203 441.866 105.353 443.777 105.33 445.69C105.48 447.598 105.46 449.516 105.27 451.42Z" fill="#263238"/>
<path d="M121.19 372.88C121.236 373.147 121.256 373.419 121.25 373.69V376C121.25 378.07 121.31 381 121.36 384.52C121.36 391.77 121.45 401.68 121.51 412.64C121.51 418.12 121.51 423.41 120.51 428.11C119.774 432.316 117.981 436.267 115.3 439.59C113.503 441.839 111.177 443.608 108.53 444.74C107.574 445.154 106.564 445.43 105.53 445.56C106.529 445.286 107.511 444.952 108.47 444.56C111.041 443.381 113.291 441.601 115.03 439.37C117.615 436.066 119.334 432.168 120.03 428.03C120.96 423.38 121.03 418.14 120.96 412.65V384.53C120.96 380.97 120.96 378.07 121.02 376C121.02 375 121.02 374.26 121.02 373.69C121.055 373.416 121.112 373.145 121.19 372.88Z" fill="#263238"/>
<path d="M84.54 405.29C84.8867 409.573 84.8867 413.877 84.54 418.16C84.1934 413.877 84.1934 409.573 84.54 405.29Z" fill="#263238"/>
<path d="M67.67 338.08C67.6853 338.353 67.6853 338.627 67.67 338.9V341.26C67.61 343.35 67.53 346.26 67.42 349.92C67.21 357.23 66.79 367.33 66.93 378.49C67.06 384.06 67.02 389.41 68.17 394.1C69.0228 398.283 70.8755 402.198 73.57 405.51C75.4334 407.708 77.85 409.369 80.57 410.32C81.5806 410.623 82.614 410.843 83.66 410.98C82.5913 410.998 81.5269 410.839 80.51 410.51C77.7173 409.617 75.2256 407.97 73.31 405.75C70.5273 402.421 68.6074 398.457 67.72 394.21C66.52 389.45 66.55 384.06 66.42 378.5C66.28 367.32 66.76 357.21 67.07 349.9C67.24 346.29 67.38 343.35 67.48 341.25L67.61 338.9C67.6045 338.625 67.6246 338.351 67.67 338.08Z" fill="#263238"/>
<g opacity="0.3">
<path d="M81.77 416.69L82.18 405.18L84.57 405.58V416.87C84.57 416.87 82.18 416.73 81.77 416.69Z" fill="black"/>
</g>
<path d="M61.3899 376.15C60.6306 376.52 59.8037 376.731 58.9599 376.77C58.1367 376.98 57.2794 377.021 56.4399 376.89C57.2015 376.515 58.032 376.3 58.8799 376.26C59.6991 376.044 60.555 376.007 61.3899 376.15Z" fill="#263238"/>
<path d="M61.1499 365C60.2991 365.094 59.4379 365.012 58.6199 364.76C57.7679 364.675 56.9415 364.42 56.1899 364.01C57.0408 363.922 57.9008 364.003 58.7199 364.25C59.572 364.335 60.3984 364.59 61.1499 365Z" fill="#263238"/>
<path d="M56.6899 347.17C57.6072 347.292 58.4726 347.666 59.1899 348.25C60.4599 349.09 61.2499 350.05 61.1899 350.14C60.388 349.739 59.6333 349.249 58.9399 348.68C58.1367 348.261 57.3822 347.755 56.6899 347.17Z" fill="#263238"/>
<path d="M63.8699 335.78C64.4293 336.487 64.8469 337.295 65.0999 338.16C65.5157 338.959 65.7705 339.832 65.8499 340.73C64.8634 339.21 64.184 337.511 63.8499 335.73L63.8699 335.78Z" fill="#263238"/>
<path d="M74.0498 336.54C73.7513 337.638 73.2859 338.683 72.6698 339.64C72.2067 340.676 71.586 341.634 70.8298 342.48C71.6036 340.352 72.6887 338.35 74.0498 336.54Z" fill="#263238"/>
<path d="M77.49 349.9C76.8382 350.337 76.1026 350.633 75.33 350.77C74.5996 351.059 73.8139 351.182 73.03 351.13C73.6818 350.693 74.4174 350.397 75.19 350.26C75.9205 349.971 76.7061 349.848 77.49 349.9Z" fill="#263238"/>
<path d="M71.79 364.26C71.69 364.36 71.05 363.82 70.36 363.07C69.67 362.32 69.21 361.63 69.36 361.53C69.51 361.43 70.11 361.97 70.79 362.72C71.47 363.47 71.9 364.16 71.79 364.26Z" fill="#263238"/>
<path d="M76.47 378.65C76.37 378.76 75.47 378.06 74.47 377.1C73.47 376.14 72.7 375.28 72.8 375.18C72.9 375.08 73.8 375.76 74.8 376.72C75.8 377.68 76.57 378.55 76.47 378.65Z" fill="#263238"/>
<path d="M62.63 384.81C62.73 384.92 61.92 385.81 60.83 386.86C60.2195 387.545 59.4871 388.112 58.67 388.53C58.57 388.42 59.38 387.53 60.47 386.53C61.076 385.827 61.8087 385.243 62.63 384.81Z" fill="#263238"/>
<path d="M64.37 397.44C64.23 397.44 64.37 396.53 64.74 395.5C65.11 394.47 65.47 393.68 65.6 393.73C65.73 393.78 65.6 394.64 65.23 395.67C64.86 396.7 64.5 397.49 64.37 397.44Z" fill="#263238"/>
<path d="M65.6399 412.07C65.8508 410.996 66.2252 409.961 66.7499 409C67.1276 407.97 67.6641 407.005 68.3399 406.14C68.1316 407.218 67.7572 408.257 67.2299 409.22C66.8489 410.246 66.3126 411.207 65.6399 412.07Z" fill="#263238"/>
<path d="M74.0799 418.75C73.9858 417.78 74.0671 416.801 74.3199 415.86C74.4018 414.887 74.6629 413.938 75.0899 413.06C75.1773 414.031 75.0926 415.009 74.8399 415.95C74.7509 416.92 74.4937 417.868 74.0799 418.75Z" fill="#263238"/>
<path d="M78.49 396.64C77.68 396.721 76.862 396.629 76.09 396.37C75.2802 396.281 74.4991 396.018 73.8 395.6C74.6101 395.519 75.4281 395.611 76.2 395.87C77.0104 395.957 77.792 396.219 78.49 396.64Z" fill="#263238"/>
<path d="M77.4899 388C76.8242 388.126 76.1378 388.088 75.4899 387.89C74.3999 387.68 73.4899 387.4 73.5599 387.26C73.6299 387.12 74.4899 387.17 75.5599 387.38C76.6299 387.59 77.5199 387.89 77.4899 388Z" fill="#263238"/>
<g opacity="0.3">
<path d="M67.6401 338.69C68.0001 338.69 68.2101 343.14 67.9201 350.29C67.7901 353.86 67.5401 358.1 67.2601 362.81C66.9801 367.52 66.6601 372.67 66.5501 378.07C66.3425 383.08 66.7692 388.097 67.8201 393C68.2707 395.122 68.8893 397.206 69.6701 399.23C70.3523 400.961 71.2422 402.603 72.3201 404.12C73.8885 406.323 75.9817 408.1 78.4101 409.29C80.1501 410.13 81.2401 410.4 81.2001 410.61C81.1601 410.82 80.0301 410.83 78.0401 410.24C75.2157 409.304 72.7246 407.567 70.8701 405.24C69.5844 403.664 68.5119 401.926 67.6801 400.07C66.7677 397.961 66.0319 395.78 65.4801 393.55C64.2495 388.463 63.7312 383.23 63.9401 378C64.0601 372.5 64.4601 367.32 64.8701 362.61C65.2801 357.9 65.7201 353.68 66.0801 350.14C66.8401 343.07 67.2801 338.68 67.6401 338.69Z" fill="black"/>
</g>
<path d="M115.49 424.18C114.007 424.527 112.463 424.527 110.98 424.18C111.703 423.921 112.477 423.832 113.24 423.92C114 423.833 114.77 423.922 115.49 424.18Z" fill="#263238"/>
<path d="M115.36 413.29C114.627 413.392 113.88 413.32 113.18 413.08C112.01 412.83 111.08 412.5 111.12 412.36C111.85 412.264 112.592 412.336 113.29 412.57C114.026 412.647 114.735 412.893 115.36 413.29Z" fill="#263238"/>
<path d="M115.89 401.12C115.028 401.289 114.142 401.289 113.28 401.12C112.404 401.131 111.535 400.971 110.72 400.65C111.575 400.462 112.458 400.445 113.32 400.6C114.203 400.599 115.077 400.775 115.89 401.12Z" fill="#263238"/>
<path d="M114.17 390.34C113.463 390.291 112.778 390.075 112.17 389.71C111.1 389.24 110.29 388.71 110.35 388.61C111.057 388.659 111.742 388.875 112.35 389.24C113.41 389.71 114.23 390.21 114.17 390.34Z" fill="#263238"/>
<path d="M115.23 381.18C114.422 380.949 113.69 380.507 113.11 379.9C112.11 379 111.41 378.09 111.51 378C111.61 377.91 112.43 378.63 113.44 379.5C114.45 380.37 115.31 381.06 115.23 381.18Z" fill="#263238"/>
<path d="M118.4 374.42C118.27 374.48 117.75 373.67 117.24 372.61C116.73 371.55 116.41 370.61 116.54 370.61C116.67 370.61 117.19 371.36 117.71 372.42C118.23 373.48 118.53 374.36 118.4 374.42Z" fill="#263238"/>
<path d="M127.45 372C127.56 372.1 127.06 372.88 126.45 373.85C125.84 374.82 125.39 375.62 125.26 375.56C125.13 375.5 125.4 374.56 126.01 373.56C126.62 372.56 127.34 371.94 127.45 372Z" fill="#263238"/>
<path d="M131.68 384C130.127 384.651 128.408 384.791 126.77 384.4C127.565 384.164 128.391 384.052 129.22 384.07C130.031 383.914 130.862 383.891 131.68 384Z" fill="#263238"/>
<path d="M131.55 392.59C131.62 392.72 130.69 393.35 129.48 394.01C128.78 394.483 127.991 394.807 127.16 394.96C127.751 394.359 128.454 393.88 129.23 393.55C129.934 393.083 130.722 392.757 131.55 392.59Z" fill="#263238"/>
<path d="M131.8 406.69C131.74 406.82 130.89 406.54 129.9 406.07C128.91 405.6 128.15 405.07 128.21 404.97C128.27 404.87 129.13 405.12 130.12 405.6C131.11 406.08 131.86 406.56 131.8 406.69Z" fill="#263238"/>
<path d="M131 414.47C131.06 414.6 130.37 415.06 129.46 415.47C128.55 415.88 127.75 416.17 127.68 416.04C127.61 415.91 128.31 415.44 129.23 415.04C130.15 414.64 131 414.34 131 414.47Z" fill="#263238"/>
<path d="M128.91 430.93C128.81 431.03 128.13 430.45 127.39 429.64C126.65 428.83 126.15 428.11 126.26 428.01C126.37 427.91 127.05 428.49 127.78 429.29C128.51 430.09 129 430.83 128.91 430.93Z" fill="#263238"/>
<path d="M123.59 445.28C123.246 444.452 123.005 443.586 122.87 442.7C122.57 441.859 122.365 440.987 122.26 440.1C123.284 441.623 123.754 443.452 123.59 445.28Z" fill="#263238"/>
<path d="M113.94 452.71C113.739 451.878 113.711 451.013 113.86 450.17C113.839 449.316 113.989 448.466 114.3 447.67C114.523 449.344 114.4 451.045 113.94 452.67V452.71Z" fill="#263238"/>
<path d="M113.36 436C113.28 436.12 112.36 435.65 111.3 434.95C110.24 434.25 109.44 433.6 109.52 433.48C109.6 433.36 110.52 433.82 111.58 434.48C112.64 435.14 113.44 435.88 113.36 436Z" fill="#263238"/>
<path d="M125.7 410.12C125.61 410.23 124.91 409.78 124.14 409.12C123.37 408.46 122.82 407.84 122.92 407.73C123.02 407.62 123.71 408.07 124.48 408.73C125.25 409.39 125.8 410 125.7 410.12Z" fill="#263238"/>
<path d="M118.84 392.49C118.94 392.59 118.3 393.38 117.42 394.25C116.54 395.12 115.74 395.76 115.63 395.65C115.52 395.54 116.17 394.76 117.05 393.88C117.93 393 118.74 392.38 118.84 392.49Z" fill="#263238"/>
<path d="M126.36 378.63C126.43 378.76 125.82 379.24 125 379.72C124.18 380.2 123.45 380.47 123.38 380.35C123.31 380.23 123.92 379.74 124.74 379.26C125.56 378.78 126.29 378.51 126.36 378.63Z" fill="#263238"/>
<path d="M118.5 442.84C118.37 442.9 117.97 442.27 117.62 441.45C117.27 440.63 117.08 439.9 117.22 439.84C117.36 439.78 117.74 440.41 118.1 441.24C118.46 442.07 118.63 442.78 118.5 442.84Z" fill="#263238"/>
<path d="M86.9999 349.53C86.0807 349.734 85.1323 349.771 84.1999 349.64C83.2558 349.678 82.3129 349.539 81.4199 349.23C82.3392 349.026 83.2875 348.989 84.2199 349.12C85.1641 349.081 86.1073 349.22 86.9999 349.53Z" fill="#263238"/>
<path d="M86.0899 333.44C85.1812 333.342 84.2992 333.074 83.4899 332.65C82.6189 332.389 81.8071 331.961 81.0999 331.39C82.006 331.477 82.8861 331.742 83.6899 332.17C84.5613 332.442 85.3749 332.872 86.0899 333.44Z" fill="#263238"/>
<path d="M87.5501 313.48C86.564 313.533 85.5868 313.27 84.7601 312.73C83.8476 312.345 83.0784 311.684 82.5601 310.84C82.6701 310.73 83.6401 311.56 85.0001 312.27C86.3601 312.98 87.5801 313.33 87.5501 313.48Z" fill="#263238"/>
<path d="M91.2399 304.16C90.6007 303.515 90.0885 302.755 89.7299 301.92C89.2215 301.165 88.8618 300.32 88.6699 299.43C89.8301 300.822 90.7035 302.429 91.2399 304.16Z" fill="#263238"/>
<path d="M104 301.43C103.614 302.301 103.072 303.095 102.4 303.77C101.4 304.96 100.52 305.86 100.4 305.77C100.784 304.9 101.323 304.107 101.99 303.43C103 302.24 103.85 301.34 104 301.43Z" fill="#263238"/>
<path d="M107.19 315.21C107.28 315.33 106.42 316.08 105.28 316.89C104.637 317.451 103.884 317.873 103.07 318.13C102.99 318.02 103.85 317.27 104.98 316.46C105.624 315.898 106.376 315.472 107.19 315.21Z" fill="#263238"/>
<path d="M108.68 334.32C107.324 335.046 105.818 335.446 104.28 335.49C104.925 335.061 105.655 334.778 106.42 334.66C107.138 334.377 107.911 334.261 108.68 334.32Z" fill="#263238"/>
<path d="M107.8 350.51C106.932 350.719 106.033 350.759 105.15 350.63C104.255 350.675 103.361 350.539 102.52 350.23C103.388 350.025 104.287 349.984 105.17 350.11C106.064 350.076 106.956 350.212 107.8 350.51Z" fill="#263238"/>
<path d="M108.1 366.9C107.359 367.599 106.508 368.17 105.58 368.59C104.735 369.159 103.798 369.578 102.81 369.83C103.551 369.132 104.403 368.561 105.33 368.14C106.176 367.571 107.113 367.152 108.1 366.9Z" fill="#263238"/>
<path d="M85.4899 374.86C84.5312 374.919 83.5696 374.807 82.6499 374.53C81.6963 374.413 80.7715 374.125 79.9199 373.68C80.8793 373.622 81.8414 373.737 82.7599 374.02C83.7134 374.132 84.6385 374.416 85.4899 374.86Z" fill="#263238"/>
<path d="M85.9998 389.14C86.0998 389.25 85.1298 390.2 83.8398 391.26C83.1106 391.974 82.2653 392.559 81.3398 392.99C81.9399 392.164 82.6733 391.445 83.5098 390.86C84.2368 390.15 85.0787 389.569 85.9998 389.14Z" fill="#263238"/>
<path d="M86.3598 431.77C85.3318 431.247 84.388 430.573 83.5598 429.77C82.6179 429.098 81.782 428.289 81.0798 427.37C82.1093 427.896 83.056 428.57 83.8898 429.37C84.8305 430.04 85.6634 430.849 86.3598 431.77Z" fill="#263238"/>
<path d="M85.7898 443.79C85.8898 443.9 85.1099 444.71 84.0499 445.6C83.4682 446.201 82.7708 446.677 81.9998 447C81.8998 446.9 82.6798 446.08 83.7398 445.19C84.3215 444.59 85.0189 444.113 85.7898 443.79Z" fill="#263238"/>
<path d="M106.89 417C106.98 417.12 106 418 104.7 419C103.963 419.66 103.113 420.182 102.19 420.54C102.802 419.751 103.546 419.074 104.39 418.54C105.13 417.888 105.975 417.367 106.89 417Z" fill="#263238"/>
<path d="M107.22 396.54C106.589 397.301 105.747 397.858 104.8 398.14C103.912 398.582 102.91 398.739 101.93 398.59C102.805 398.231 103.7 397.92 104.61 397.66C105.458 397.236 106.329 396.863 107.22 396.54Z" fill="#263238"/>
<path d="M107.52 381.55C106.716 381.511 105.931 381.296 105.22 380.92C104.446 380.697 103.728 380.316 103.11 379.8C103.913 379.84 104.698 380.055 105.41 380.43C106.183 380.653 106.902 381.034 107.52 381.55Z" fill="#263238"/>
<path d="M108.66 457.52C107.86 458.183 106.954 458.707 105.98 459.07C105.077 459.591 104.094 459.956 103.07 460.15C103.873 459.491 104.778 458.967 105.75 458.6C106.652 458.079 107.636 457.714 108.66 457.52Z" fill="#263238"/>
<path d="M85.81 362.48C84.7721 361.902 83.8252 361.174 83 360.32C82.0638 359.594 81.2355 358.739 80.54 357.78C81.574 358.36 82.5201 359.084 83.35 359.93C84.2884 360.657 85.117 361.516 85.81 362.48Z" fill="#263238"/>
<path d="M109.27 354.86C108.599 355.604 107.804 356.227 106.92 356.7C106.127 357.312 105.234 357.783 104.28 358.09C104.953 357.351 105.748 356.732 106.63 356.26C107.424 355.647 108.317 355.173 109.27 354.86Z" fill="#263238"/>
<path d="M85.2099 322.87C85.2099 323.02 84.2099 323 83.1099 322.87C82.4086 322.851 81.7224 322.662 81.1099 322.32C81.7963 322.151 82.5134 322.151 83.1999 322.32C83.9033 322.346 84.5913 322.534 85.2099 322.87Z" fill="#263238"/>
<path d="M107.51 324.05C107.51 324.18 106.68 324.62 105.51 325.05C104.842 325.37 104.111 325.537 103.37 325.54C103.32 325.4 104.2 324.96 105.37 324.54C106.034 324.208 106.768 324.04 107.51 324.05Z" fill="#263238"/>
<path d="M95.79 359C95.4154 359.874 94.8871 360.673 94.23 361.36C93.23 362.57 92.37 363.49 92.23 363.36C92.6156 362.485 93.154 361.686 93.82 361C94.8 359.81 95.68 358.9 95.79 359Z" fill="#263238"/>
<path d="M95.7699 343.71C95.6899 343.82 94.7699 343.25 93.9699 342.14C93.4325 341.517 93.1346 340.723 93.1299 339.9C93.2699 339.9 93.6699 340.81 94.3999 341.84C95.1299 342.87 95.8599 343.59 95.7699 343.71Z" fill="#263238"/>
<path d="M95.48 322C95.57 322.12 94.76 322.9 93.96 324C93.16 325.1 92.68 326.14 92.54 326.08C92.6091 325.197 92.9596 324.359 93.54 323.69C94.38 322.52 95.4 321.88 95.48 322Z" fill="#263238"/>
<path d="M93.7199 381C93.71 380.259 93.8744 379.526 94.1999 378.86C94.3805 378.127 94.7222 377.444 95.1999 376.86C95.2098 377.605 95.0418 378.342 94.7099 379.01C94.2899 380.15 93.8499 381 93.7199 381Z" fill="#263238"/>
<path d="M90.4199 412.42C89.6513 411.427 89.0221 410.334 88.5499 409.17C87.9275 408.08 87.4597 406.909 87.1599 405.69C87.9215 406.682 88.5408 407.776 88.9999 408.94C89.6296 410.03 90.1074 411.201 90.4199 412.42Z" fill="#263238"/>
<path d="M96.3 417.34C95.8927 418.664 95.3252 419.934 94.61 421.12C94.0426 422.387 93.3168 423.576 92.45 424.66C92.859 423.337 93.4265 422.067 94.14 420.88C94.7058 419.613 95.4317 418.423 96.3 417.34Z" fill="#263238"/>
<path d="M96 450.86C95.2371 449.916 94.6109 448.869 94.14 447.75C93.5163 446.71 93.048 445.585 92.75 444.41C93.5129 445.354 94.1391 446.401 94.61 447.52C95.2337 448.56 95.702 449.685 96 450.86Z" fill="#263238"/>
<path d="M94.0001 461.1C93.7375 461.956 93.3132 462.754 92.7501 463.45C91.9401 464.66 91.1801 465.58 91.0601 465.5C91.3268 464.647 91.7545 463.852 92.3201 463.16C93.1401 461.94 93.8901 461 94.0001 461.1Z" fill="#263238"/>
<g opacity="0.3">
<path d="M98.6799 305.67C99.3999 305.67 99.9799 343.67 99.9799 390.52C99.9799 437.37 99.3999 475.38 98.6799 475.38C97.9599 475.38 97.3799 437.38 97.3799 390.52C97.3799 343.66 97.9999 305.67 98.6799 305.67Z" fill="black"/>
</g>
<g opacity="0.3">
<path d="M122.23 374.17C122.58 374.17 123 378.5 123.23 385.53C123.46 392.56 123.41 402.23 123.6 412.92C123.757 418.05 123.318 423.181 122.29 428.21C121.782 430.432 121.041 432.594 120.08 434.66C119.236 436.424 118.284 438.133 117.23 439.78C116.337 441.217 115.155 442.453 113.76 443.41C112.703 444.088 111.545 444.594 110.33 444.91C108.33 445.42 107.27 445.43 107.24 445.28C107.21 445.13 108.24 444.73 109.99 443.96C111.031 443.513 112.009 442.931 112.9 442.23C114.032 441.276 114.972 440.116 115.67 438.81C116.571 437.171 117.386 435.485 118.11 433.76C118.924 431.807 119.537 429.777 119.94 427.7C120.794 422.849 121.149 417.923 121 413C120.81 402.28 121.15 392.57 121.39 385.57C121.63 378.57 121.86 374.18 122.23 374.17Z" fill="black"/>
</g>
<path d="M658.8 395.58C655.668 394.212 653.168 391.712 651.8 388.58C651.25 387.29 651.23 385.3 652.61 385.01C653.45 384.84 654.21 385.49 654.82 386.1L660.94 392.16C660.343 390.559 660.072 388.855 660.145 387.147C660.217 385.44 660.63 383.765 661.36 382.22C661.88 381.12 662.97 379.95 664.11 380.37C665.01 380.7 665.3 381.81 665.46 382.76C665.953 385.68 666.44 388.6 666.92 391.52C667.74 388.109 669.392 384.955 671.73 382.34C672.58 381.34 673.94 380.47 675.02 381.15C676.1 381.83 675.92 383.15 675.72 384.22C675.207 386.953 674.437 389.632 673.42 392.22C676.056 389.897 679.418 388.564 682.93 388.45C683.437 388.375 683.954 388.419 684.441 388.576C684.929 388.734 685.373 389.002 685.74 389.36C686.69 390.55 685.86 392.36 684.85 393.47C681.85 396.86 674.85 397.73 670.31 397.47" fill="#6EACDA"/>
<path d="M685.85 402.79C674.85 394.17 655.66 392.95 642.99 398.79C628.68 405.34 619.31 420.57 617.92 435.16C616.59 449.03 623.27 463.1 628.92 475.82L684.21 476.08C690.84 465.08 697.74 452.85 698.21 440.08C698.68 427.31 695.92 410.72 685.85 402.79Z" fill="#455A64"/>
<path d="M661.05 395.18L660.8 395.26L660.08 395.42L658.9 395.68C658.363 395.778 657.835 395.919 657.32 396.1C653.971 397.065 650.804 398.579 647.95 400.58C643.748 403.589 640.134 407.345 637.29 411.66C635.606 414.213 634.112 416.887 632.82 419.66C631.463 422.64 630.313 425.711 629.38 428.85C627.664 434.947 627.346 441.353 628.45 447.59C629.357 452.681 630.75 457.674 632.61 462.5C634.15 466.65 635.51 469.96 636.42 472.27C636.85 473.39 637.2 474.27 637.42 474.92C637.52 475.21 637.61 475.43 637.68 475.62C637.75 475.81 637.75 475.86 637.75 475.86C637.75 475.86 637.75 475.79 637.63 475.64L637.32 474.96C637.05 474.33 636.68 473.45 636.2 472.34C635.2 470.06 633.82 466.77 632.2 462.63C630.271 457.786 628.831 452.761 627.9 447.63C626.753 441.31 627.064 434.811 628.81 428.63C629.75 425.466 630.909 422.372 632.28 419.37C633.597 416.597 635.115 413.923 636.82 411.37C639.716 407.022 643.399 403.254 647.68 400.26C650.575 398.259 653.797 396.777 657.2 395.88C657.722 395.713 658.257 395.589 658.8 395.51L659.99 395.3L660.72 395.18C660.829 395.162 660.941 395.162 661.05 395.18Z" fill="#263238"/>
<path d="M677.15 475.6C677.222 475.319 677.309 475.042 677.41 474.77L678.24 472.44C678.96 470.44 680.02 467.49 681.24 463.85C682.46 460.21 683.87 455.85 685.08 450.93C686.431 445.6 687.255 440.151 687.54 434.66C687.776 429.167 687.207 423.668 685.85 418.34C684.76 413.989 683.017 409.828 680.68 406C679.103 403.417 677.205 401.044 675.03 398.94C674.29 398.16 673.61 397.67 673.2 397.28C672.974 397.097 672.763 396.897 672.57 396.68C672.815 396.833 673.049 397.003 673.27 397.19C673.7 397.56 674.4 398.03 675.17 398.79C677.412 400.855 679.369 403.209 680.99 405.79C683.403 409.629 685.208 413.819 686.34 418.21C687.729 423.581 688.316 429.128 688.08 434.67C687.791 440.197 686.95 445.681 685.57 451.04C684.33 455.98 682.89 460.34 681.57 463.97C680.25 467.6 679.17 470.5 678.39 472.5C678 473.5 677.69 474.23 677.47 474.8C677.389 475.076 677.282 475.344 677.15 475.6Z" fill="#263238"/>
<path d="M666.47 395.5C666.422 395.776 666.348 396.047 666.25 396.31C666.08 396.88 665.84 397.64 665.54 398.6C665.24 399.56 664.83 400.81 664.41 402.23C663.99 403.65 663.49 405.23 663 407.05C662 410.63 660.88 414.93 659.78 419.73C658.68 424.53 657.7 429.85 656.86 435.46C656.02 441.07 655.5 446.46 655.16 451.38C655.03 453.84 654.87 456.17 654.85 458.38C654.85 459.47 654.8 460.53 654.78 461.54C654.76 462.55 654.78 463.54 654.78 464.46C654.78 466.33 654.85 468.01 654.9 469.46C654.95 470.91 655.01 472.21 655.09 473.25C655.17 474.29 655.19 475.05 655.23 475.64C655.258 475.919 655.258 476.201 655.23 476.48C655.172 476.206 655.132 475.929 655.11 475.65C655.11 475.06 654.98 474.26 654.87 473.26C654.76 472.26 654.66 470.95 654.6 469.47C654.54 467.99 654.41 466.31 654.4 464.47C654.4 463.54 654.4 462.56 654.4 461.54C654.4 460.52 654.4 459.46 654.4 458.37C654.4 456.17 654.55 453.83 654.66 451.37C654.97 446.44 655.5 441.04 656.32 435.37C657.14 429.7 658.21 424.37 659.32 419.6C660.43 414.83 661.57 410.5 662.65 406.93C663.16 405.13 663.65 403.53 664.14 402.12C664.63 400.71 664.99 399.5 665.35 398.52C665.71 397.54 665.95 396.82 666.16 396.26C666.243 395.999 666.347 395.745 666.47 395.5Z" fill="#263238"/>
<path d="M619.68 439.54C618.505 440.356 617.236 441.028 615.9 441.54C614.633 442.211 613.29 442.728 611.9 443.08C613.069 442.26 614.335 441.589 615.67 441.08C616.939 440.405 618.285 439.888 619.68 439.54Z" fill="#263238"/>
<path d="M621.43 423.65C618.599 422.402 615.916 420.842 613.43 419C614.889 419.538 616.282 420.243 617.58 421.1C618.955 421.802 620.247 422.658 621.43 423.65Z" fill="#263238"/>
<path d="M631.52 410.53C630.149 408.449 629.076 406.187 628.33 403.81C629.701 405.891 630.774 408.153 631.52 410.53Z" fill="#263238"/>
<path d="M645.38 398.14C644.595 397.497 643.919 396.73 643.38 395.87C642.711 395.104 642.173 394.232 641.79 393.29C642.581 393.927 643.258 394.695 643.79 395.56C644.468 396.32 645.006 397.193 645.38 398.14Z" fill="#263238"/>
<path d="M625.94 458.94C624.748 459.886 623.449 460.688 622.07 461.33C620.776 462.13 619.393 462.778 617.95 463.26C620.445 461.522 623.129 460.073 625.95 458.94H625.94Z" fill="#263238"/>
<path d="M642.45 449.28C640.024 448.306 637.735 447.022 635.64 445.46C636.888 445.856 638.075 446.421 639.17 447.14C640.355 447.702 641.458 448.422 642.45 449.28Z" fill="#263238"/>
<path d="M647.05 427.2C644.928 428.683 642.484 429.639 639.92 429.99C641.054 429.399 642.239 428.911 643.46 428.53C644.618 427.989 645.819 427.544 647.05 427.2Z" fill="#263238"/>
<path d="M652.3 410.56C651.62 409.784 651.13 408.859 650.87 407.86C650.452 406.918 650.267 405.889 650.33 404.86C650.755 405.772 651.09 406.723 651.33 407.7C651.75 408.618 652.075 409.576 652.3 410.56Z" fill="#263238"/>
<path d="M640.58 470.94C641.415 468.403 642.571 465.984 644.02 463.74C643.691 465.039 643.193 466.29 642.54 467.46C642.042 468.701 641.383 469.871 640.58 470.94Z" fill="#263238"/>
<path d="M668.45 465C667.204 464.245 666.108 463.265 665.22 462.11C664.212 461.057 663.415 459.822 662.87 458.47C663 458.39 664.08 459.98 665.62 461.77C666.619 462.796 667.564 463.875 668.45 465Z" fill="#263238"/>
<path d="M678.11 440.71C676.927 441.692 675.635 442.534 674.26 443.22C672.965 444.054 671.584 444.745 670.14 445.28C671.327 444.3 672.622 443.458 674 442.77C675.29 441.935 676.669 441.244 678.11 440.71Z" fill="#263238"/>
<path d="M671.61 425.76C672.478 424.583 673.485 423.515 674.61 422.58C675.611 421.52 676.732 420.581 677.95 419.78C676.092 422.03 673.966 424.045 671.62 425.78L671.61 425.76Z" fill="#263238"/>
<path d="M671.91 409.89C670.813 409.323 669.803 408.602 668.91 407.75C667.888 407.035 666.973 406.18 666.19 405.21C668.322 406.494 670.264 408.069 671.96 409.89H671.91Z" fill="#263238"/>
<path d="M690.33 399.4C688.413 401.057 686.28 402.447 683.99 403.53C685.9 401.864 688.034 400.474 690.33 399.4Z" fill="#263238"/>
<path d="M697.43 413.94C695.348 414.429 693.2 414.581 691.07 414.39C693.15 413.888 695.3 413.735 697.43 413.94Z" fill="#263238"/>
<path d="M702.06 431.13C700.727 431.259 699.382 431.215 698.06 431C696.705 430.957 695.361 430.742 694.06 430.36C695.393 430.226 696.738 430.266 698.06 430.48C699.416 430.526 700.76 430.745 702.06 431.13Z" fill="#263238"/>
<path d="M699.77 453.3C698.419 452.306 697.175 451.173 696.06 449.92C694.821 448.794 693.705 447.54 692.73 446.18C695.298 448.311 697.643 450.696 699.73 453.3H699.77Z" fill="#263238"/>
<path d="M693.72 470.38C692.295 469.372 691.033 468.152 689.98 466.76C688.796 465.476 687.821 464.015 687.09 462.43C687.22 462.35 688.55 464.24 690.38 466.43C692.21 468.62 693.82 470.27 693.72 470.38Z" fill="#263238"/>
<g opacity="0.3">
<path d="M672.57 396.68C672.66 396.54 673.76 397.07 675.57 398.31C678.108 400.144 680.356 402.349 682.24 404.85C685.043 408.593 687.116 412.83 688.35 417.34C689.844 422.818 690.538 428.483 690.41 434.16C690.321 439.816 689.563 445.442 688.15 450.92C687.015 455.36 685.541 459.706 683.74 463.92C680.65 471.1 678.06 475.18 677.74 475.03C677.42 474.88 679.38 470.49 681.98 463.25C684.58 456.01 687.64 445.75 687.76 434.12C687.883 428.693 687.291 423.273 686 418C684.936 413.711 683.147 409.636 680.71 405.95C679.034 403.464 677.085 401.173 674.9 399.12C673.36 397.66 672.46 396.84 672.57 396.68Z" fill="black"/>
</g>
<g opacity="0.3">
<path d="M666.07 394.68C666.43 394.76 665.71 399.32 664.35 406.68C662.99 414.04 661 424 659.28 435.19C658.43 440.78 657.77 446.12 657.28 450.99C657.07 453.42 656.83 455.74 656.7 457.91C656.57 460.08 656.44 462.1 656.35 463.91C656.03 471.3 656.1 475.91 655.7 475.91C655.3 475.91 654.7 471.35 654.51 463.86C654.51 461.99 654.51 459.94 654.51 457.74C654.51 455.54 654.7 453.19 654.85 450.74C655.22 445.81 655.85 440.4 656.66 434.74C658.4 423.46 660.66 413.41 662.51 406.18C664.36 398.95 665.72 394.61 666.07 394.68Z" fill="black"/>
</g>
<g opacity="0.3">
<path d="M659.59 394.11C659.59 394.3 658.37 394.79 656.14 395.8C653.01 397.203 650.029 398.914 647.24 400.91C638.019 407.455 631.578 417.21 629.18 428.26C628.527 431.375 628.192 434.548 628.18 437.73C628.174 440.713 628.398 443.692 628.85 446.64C629.66 451.674 630.877 456.633 632.49 461.47C633.84 465.63 635.09 468.97 635.91 471.29C636.73 473.61 637.13 474.93 636.91 475C636.69 475.07 636.04 473.9 634.91 471.69C633.78 469.48 632.28 466.23 630.68 462.08C628.783 457.202 627.363 452.152 626.44 447C625.904 443.932 625.62 440.825 625.59 437.71C625.564 434.35 625.9 430.998 626.59 427.71C627.983 421.344 630.709 415.345 634.59 410.11C637.769 405.869 641.685 402.235 646.15 399.38C649.126 397.455 652.344 395.931 655.72 394.85C658.17 394.12 659.54 394 659.59 394.11Z" fill="black"/>
</g>
</svg>
