<svg width="628" height="596" viewBox="0 0 628 596" fill="none" xmlns="http://www.w3.org/2000/svg">
<path d="M55.6534 307.715C55.6534 307.715 58.605 394.731 135.12 452.662C211.636 510.593 317.642 514.789 403.465 520.296C489.287 525.803 555.152 479.697 565.2 410.048C575.248 340.399 509.559 319.897 473.977 240.546C438.394 161.194 441.559 135.125 366.275 86.3246C290.99 37.5241 173.152 67.4314 111.407 151.038C49.6622 234.645 55.6534 307.715 55.6534 307.715Z" fill="#6EACDA"/>
<path opacity="0.7" d="M55.6534 307.715C55.6534 307.715 58.605 394.731 135.12 452.662C211.636 510.593 317.642 514.789 403.465 520.296C489.287 525.803 555.152 479.697 565.2 410.048C575.248 340.399 509.559 319.897 473.977 240.546C438.394 161.194 441.559 135.125 366.275 86.3246C290.99 37.5241 173.152 67.4314 111.407 151.038C49.6622 234.645 55.6534 307.715 55.6534 307.715Z" fill="white"/>
<path d="M142.477 135.686C143.16 136.311 143.701 137.066 144.098 137.951C144.501 138.837 144.703 139.846 144.703 140.979C144.703 141.988 144.534 142.948 144.195 143.859C143.857 144.771 143.368 145.555 142.73 146.213C142.06 146.896 141.272 147.43 140.367 147.814C139.462 148.192 138.385 148.381 137.135 148.381C136.126 148.381 135.172 148.215 134.273 147.883C133.375 147.551 132.584 147.069 131.9 146.438C131.223 145.819 130.686 145.067 130.289 144.182C129.892 143.296 129.693 142.31 129.693 141.223C129.693 140.09 129.885 139.064 130.27 138.146C130.66 137.222 131.194 136.431 131.871 135.773C132.542 135.129 133.336 134.634 134.254 134.289C135.178 133.938 136.161 133.762 137.203 133.762C138.238 133.762 139.208 133.931 140.113 134.27C141.025 134.608 141.812 135.08 142.477 135.686ZM139.967 145.598C140.26 145.005 140.471 144.335 140.602 143.586C140.732 142.837 140.797 141.991 140.797 141.047C140.797 140.246 140.738 139.468 140.621 138.713C140.51 137.951 140.318 137.274 140.045 136.682C139.765 136.089 139.394 135.614 138.932 135.256C138.469 134.898 137.893 134.719 137.203 134.719C136.025 134.719 135.13 135.279 134.518 136.398C133.906 137.512 133.6 139.087 133.6 141.125C133.6 141.991 133.665 142.808 133.795 143.576C133.932 144.344 134.143 145.015 134.43 145.588C134.723 146.167 135.094 146.62 135.543 146.945C135.992 147.264 136.546 147.424 137.203 147.424C137.848 147.424 138.401 147.261 138.863 146.936C139.326 146.61 139.693 146.164 139.967 145.598ZM158.883 135.686C159.566 136.311 160.107 137.066 160.504 137.951C160.908 138.837 161.109 139.846 161.109 140.979C161.109 141.988 160.94 142.948 160.602 143.859C160.263 144.771 159.775 145.555 159.137 146.213C158.466 146.896 157.678 147.43 156.773 147.814C155.868 148.192 154.791 148.381 153.541 148.381C152.532 148.381 151.578 148.215 150.68 147.883C149.781 147.551 148.99 147.069 148.307 146.438C147.63 145.819 147.092 145.067 146.695 144.182C146.298 143.296 146.1 142.31 146.1 141.223C146.1 140.09 146.292 139.064 146.676 138.146C147.066 137.222 147.6 136.431 148.277 135.773C148.948 135.129 149.742 134.634 150.66 134.289C151.585 133.938 152.568 133.762 153.609 133.762C154.645 133.762 155.615 133.931 156.52 134.27C157.431 134.608 158.219 135.08 158.883 135.686ZM156.373 145.598C156.666 145.005 156.878 144.335 157.008 143.586C157.138 142.837 157.203 141.991 157.203 141.047C157.203 140.246 157.145 139.468 157.027 138.713C156.917 137.951 156.725 137.274 156.451 136.682C156.171 136.089 155.8 135.614 155.338 135.256C154.876 134.898 154.299 134.719 153.609 134.719C152.431 134.719 151.536 135.279 150.924 136.398C150.312 137.512 150.006 139.087 150.006 141.125C150.006 141.991 150.071 142.808 150.201 143.576C150.338 144.344 150.549 145.015 150.836 145.588C151.129 146.167 151.5 146.62 151.949 146.945C152.398 147.264 152.952 147.424 153.609 147.424C154.254 147.424 154.807 147.261 155.27 146.936C155.732 146.61 156.1 146.164 156.373 145.598ZM175.475 137.609C175.475 138.391 175.312 139.064 174.986 139.631C174.667 140.191 174.225 140.646 173.658 140.998C173.072 141.363 172.402 141.626 171.646 141.789C170.898 141.952 170.055 142.033 169.117 142.033H167.984V145.93C167.984 146.164 168.027 146.369 168.111 146.545C168.202 146.714 168.372 146.851 168.619 146.955C168.749 147.007 168.961 147.062 169.254 147.121C169.547 147.18 169.794 147.219 169.996 147.238V148H162.486V147.238C162.675 147.219 162.926 147.193 163.238 147.16C163.551 147.121 163.769 147.076 163.893 147.023C164.146 146.919 164.312 146.792 164.391 146.643C164.475 146.493 164.518 146.285 164.518 146.018V136.242C164.518 136.014 164.479 135.819 164.4 135.656C164.322 135.487 164.153 135.347 163.893 135.236C163.71 135.158 163.466 135.09 163.16 135.031C162.861 134.966 162.636 134.924 162.486 134.904V134.143H170.133C171.923 134.143 173.261 134.429 174.146 135.002C175.032 135.568 175.475 136.438 175.475 137.609ZM171.666 138.107C171.666 137.066 171.454 136.294 171.031 135.793C170.615 135.285 169.869 135.031 168.795 135.031H167.984V141.115H168.395C169.462 141.115 170.273 140.871 170.826 140.383C171.386 139.888 171.666 139.13 171.666 138.107ZM182.32 148.371C181.474 148.371 180.683 148.267 179.947 148.059C179.218 147.85 178.6 147.603 178.092 147.316L177.418 148H176.588L176.461 142.99H177.301C177.49 143.465 177.73 143.967 178.023 144.494C178.316 145.021 178.655 145.493 179.039 145.91C179.436 146.346 179.879 146.701 180.367 146.975C180.862 147.248 181.438 147.385 182.096 147.385C182.981 147.385 183.658 147.17 184.127 146.74C184.602 146.304 184.84 145.757 184.84 145.1C184.84 144.559 184.638 144.107 184.234 143.742C183.837 143.371 183.219 143.052 182.379 142.785C181.832 142.609 181.327 142.447 180.865 142.297C180.41 142.147 179.98 141.994 179.576 141.838C178.645 141.467 177.952 140.936 177.496 140.246C177.047 139.556 176.822 138.785 176.822 137.932C176.822 137.391 176.939 136.874 177.174 136.379C177.408 135.878 177.75 135.428 178.199 135.031C178.629 134.66 179.179 134.357 179.85 134.123C180.52 133.889 181.249 133.771 182.037 133.771C182.805 133.771 183.525 133.879 184.195 134.094C184.866 134.302 185.393 134.514 185.777 134.729L186.373 134.143H187.223L187.301 138.869H186.461C186.266 138.361 186.035 137.844 185.768 137.316C185.507 136.783 185.23 136.34 184.938 135.988C184.618 135.611 184.251 135.311 183.834 135.09C183.417 134.862 182.929 134.748 182.369 134.748C181.666 134.748 181.09 134.947 180.641 135.344C180.198 135.741 179.977 136.232 179.977 136.818C179.977 137.372 180.169 137.824 180.553 138.176C180.943 138.527 181.549 138.837 182.369 139.104C182.851 139.266 183.342 139.429 183.844 139.592C184.345 139.755 184.791 139.911 185.182 140.061C186.126 140.425 186.842 140.93 187.33 141.574C187.825 142.212 188.072 143.007 188.072 143.957C188.072 144.556 187.932 145.135 187.652 145.695C187.372 146.255 186.995 146.721 186.52 147.092C185.999 147.502 185.396 147.818 184.713 148.039C184.029 148.26 183.232 148.371 182.32 148.371ZM195.309 148.371C194.462 148.371 193.671 148.267 192.936 148.059C192.206 147.85 191.588 147.603 191.08 147.316L190.406 148H189.576L189.449 142.99H190.289C190.478 143.465 190.719 143.967 191.012 144.494C191.305 145.021 191.643 145.493 192.027 145.91C192.424 146.346 192.867 146.701 193.355 146.975C193.85 147.248 194.426 147.385 195.084 147.385C195.969 147.385 196.646 147.17 197.115 146.74C197.59 146.304 197.828 145.757 197.828 145.1C197.828 144.559 197.626 144.107 197.223 143.742C196.826 143.371 196.207 143.052 195.367 142.785C194.82 142.609 194.316 142.447 193.854 142.297C193.398 142.147 192.968 141.994 192.564 141.838C191.633 141.467 190.94 140.936 190.484 140.246C190.035 139.556 189.811 138.785 189.811 137.932C189.811 137.391 189.928 136.874 190.162 136.379C190.396 135.878 190.738 135.428 191.188 135.031C191.617 134.66 192.167 134.357 192.838 134.123C193.508 133.889 194.238 133.771 195.025 133.771C195.794 133.771 196.513 133.879 197.184 134.094C197.854 134.302 198.382 134.514 198.766 134.729L199.361 134.143H200.211L200.289 138.869H199.449C199.254 138.361 199.023 137.844 198.756 137.316C198.495 136.783 198.219 136.34 197.926 135.988C197.607 135.611 197.239 135.311 196.822 135.09C196.406 134.862 195.917 134.748 195.357 134.748C194.654 134.748 194.078 134.947 193.629 135.344C193.186 135.741 192.965 136.232 192.965 136.818C192.965 137.372 193.157 137.824 193.541 138.176C193.932 138.527 194.537 138.837 195.357 139.104C195.839 139.266 196.331 139.429 196.832 139.592C197.333 139.755 197.779 139.911 198.17 140.061C199.114 140.425 199.83 140.93 200.318 141.574C200.813 142.212 201.061 143.007 201.061 143.957C201.061 144.556 200.921 145.135 200.641 145.695C200.361 146.255 199.983 146.721 199.508 147.092C198.987 147.502 198.385 147.818 197.701 148.039C197.018 148.26 196.22 148.371 195.309 148.371ZM207.027 146.379C207.027 146.893 206.835 147.339 206.451 147.717C206.074 148.094 205.624 148.283 205.104 148.283C204.576 148.283 204.12 148.098 203.736 147.727C203.359 147.349 203.17 146.9 203.17 146.379C203.17 145.858 203.359 145.409 203.736 145.031C204.12 144.647 204.576 144.455 205.104 144.455C205.624 144.455 206.074 144.647 206.451 145.031C206.835 145.415 207.027 145.865 207.027 146.379ZM213.59 146.379C213.59 146.893 213.398 147.339 213.014 147.717C212.636 148.094 212.187 148.283 211.666 148.283C211.139 148.283 210.683 148.098 210.299 147.727C209.921 147.349 209.732 146.9 209.732 146.379C209.732 145.858 209.921 145.409 210.299 145.031C210.683 144.647 211.139 144.455 211.666 144.455C212.187 144.455 212.636 144.647 213.014 145.031C213.398 145.415 213.59 145.865 213.59 146.379ZM142.662 157.609C142.662 158.391 142.499 159.064 142.174 159.631C141.855 160.191 141.412 160.646 140.846 160.998C140.26 161.363 139.589 161.626 138.834 161.789C138.085 161.952 137.242 162.033 136.305 162.033H135.172V165.93C135.172 166.164 135.214 166.369 135.299 166.545C135.39 166.714 135.559 166.851 135.807 166.955C135.937 167.007 136.148 167.062 136.441 167.121C136.734 167.18 136.982 167.219 137.184 167.238V168H129.674V167.238C129.863 167.219 130.113 167.193 130.426 167.16C130.738 167.121 130.956 167.076 131.08 167.023C131.334 166.919 131.5 166.792 131.578 166.643C131.663 166.493 131.705 166.285 131.705 166.018V156.242C131.705 156.014 131.666 155.819 131.588 155.656C131.51 155.487 131.34 155.347 131.08 155.236C130.898 155.158 130.654 155.09 130.348 155.031C130.048 154.966 129.824 154.924 129.674 154.904V154.143H137.32C139.111 154.143 140.449 154.429 141.334 155.002C142.219 155.568 142.662 156.438 142.662 157.609ZM138.854 158.107C138.854 157.066 138.642 156.294 138.219 155.793C137.802 155.285 137.057 155.031 135.982 155.031H135.172V161.115H135.582C136.65 161.115 137.46 160.871 138.014 160.383C138.574 159.888 138.854 159.13 138.854 158.107ZM158.736 168H151.188V167.238C151.539 167.212 151.952 167.15 152.428 167.053C152.903 166.949 153.141 166.822 153.141 166.672C153.141 166.62 153.134 166.561 153.121 166.496C153.115 166.431 153.089 166.343 153.043 166.232L151.861 163.361H147.076C146.965 163.628 146.842 163.941 146.705 164.299C146.575 164.657 146.461 164.976 146.363 165.256C146.24 165.62 146.165 165.884 146.139 166.047C146.119 166.21 146.109 166.324 146.109 166.389C146.109 166.597 146.266 166.776 146.578 166.926C146.897 167.069 147.424 167.173 148.16 167.238V168H142.477V167.238C142.691 167.225 142.932 167.193 143.199 167.141C143.473 167.082 143.688 167.004 143.844 166.906C144.111 166.75 144.335 166.558 144.518 166.33C144.706 166.102 144.863 165.832 144.986 165.52C145.742 163.69 146.497 161.857 147.252 160.021C148.014 158.186 148.854 156.161 149.771 153.947H151.725C153.001 157.085 154 159.566 154.723 161.389C155.445 163.212 156.061 164.722 156.568 165.92C156.653 166.115 156.76 166.294 156.891 166.457C157.021 166.613 157.206 166.763 157.447 166.906C157.63 167.01 157.841 167.089 158.082 167.141C158.323 167.193 158.541 167.225 158.736 167.238V168ZM151.461 162.395L149.449 157.375L147.467 162.395H151.461ZM174.303 162.365C174.101 162.385 173.922 162.408 173.766 162.434C173.609 162.46 173.414 162.512 173.18 162.59C172.913 162.674 172.737 162.814 172.652 163.01C172.568 163.205 172.525 163.41 172.525 163.625V165.236C172.525 165.562 172.529 165.826 172.535 166.027C172.542 166.223 172.551 166.467 172.564 166.76C171.913 167.15 170.95 167.518 169.674 167.863C168.404 168.208 167.236 168.381 166.168 168.381C165.165 168.381 164.225 168.228 163.346 167.922C162.467 167.616 161.695 167.157 161.031 166.545C160.367 165.939 159.843 165.188 159.459 164.289C159.081 163.391 158.893 162.362 158.893 161.203C158.893 160.122 159.072 159.123 159.43 158.205C159.788 157.287 160.305 156.496 160.982 155.832C161.646 155.174 162.454 154.667 163.404 154.309C164.361 153.951 165.419 153.771 166.578 153.771C167.366 153.771 168.095 153.869 168.766 154.064C169.436 154.253 169.99 154.458 170.426 154.68L171.031 154.143H171.881L171.969 159.201H171.109C170.615 157.684 170.022 156.558 169.332 155.822C168.642 155.087 167.77 154.719 166.715 154.719C165.465 154.719 164.498 155.266 163.814 156.359C163.137 157.453 162.799 158.96 162.799 160.881C162.799 162.919 163.131 164.514 163.795 165.666C164.465 166.818 165.413 167.395 166.637 167.395C167.21 167.395 167.717 167.31 168.16 167.141C168.609 166.965 168.958 166.763 169.205 166.535V163.723C169.205 163.488 169.163 163.293 169.078 163.137C168.993 162.974 168.824 162.834 168.57 162.717C168.375 162.626 168.131 162.551 167.838 162.492C167.545 162.434 167.301 162.391 167.105 162.365V161.604H174.303V162.365ZM182.652 168H174.967V167.238C175.143 167.225 175.4 167.206 175.738 167.18C176.083 167.154 176.321 167.115 176.451 167.062C176.692 166.965 176.855 166.838 176.939 166.682C177.031 166.519 177.076 166.314 177.076 166.066V156.242C177.076 156.021 177.034 155.826 176.949 155.656C176.865 155.487 176.699 155.35 176.451 155.246C176.295 155.181 176.064 155.116 175.758 155.051C175.452 154.979 175.188 154.93 174.967 154.904V154.143H182.652V154.904C182.457 154.924 182.213 154.953 181.92 154.992C181.627 155.025 181.38 155.074 181.178 155.139C180.924 155.223 180.755 155.357 180.67 155.539C180.585 155.715 180.543 155.917 180.543 156.145V165.959C180.543 166.193 180.585 166.395 180.67 166.564C180.761 166.727 180.93 166.861 181.178 166.965C181.314 167.023 181.539 167.082 181.852 167.141C182.171 167.193 182.438 167.225 182.652 167.238V168ZM199.869 154.904C199.687 154.924 199.426 154.96 199.088 155.012C198.749 155.064 198.443 155.191 198.17 155.393C197.929 155.568 197.757 155.871 197.652 156.301C197.555 156.724 197.506 157.349 197.506 158.176V168.078H195.768L187.135 157.365V163.869C187.135 164.676 187.187 165.292 187.291 165.715C187.402 166.132 187.577 166.438 187.818 166.633C187.994 166.776 188.274 166.903 188.658 167.014C189.042 167.124 189.348 167.199 189.576 167.238V168H183.619V167.238C183.873 167.219 184.163 167.173 184.488 167.102C184.82 167.023 185.097 166.906 185.318 166.75C185.572 166.561 185.745 166.278 185.836 165.9C185.934 165.516 185.982 164.875 185.982 163.977V157.414C185.982 157.089 185.93 156.783 185.826 156.496C185.729 156.203 185.572 155.952 185.357 155.744C185.13 155.523 184.866 155.35 184.566 155.227C184.273 155.096 183.938 154.995 183.561 154.924V154.143H188.775L196.354 163.518V158.273C196.354 157.44 196.298 156.822 196.188 156.418C196.077 156.008 195.901 155.705 195.66 155.51C195.471 155.36 195.191 155.233 194.82 155.129C194.449 155.018 194.15 154.943 193.922 154.904V154.143H199.869V154.904ZM215.787 168H208.238V167.238C208.59 167.212 209.003 167.15 209.479 167.053C209.954 166.949 210.191 166.822 210.191 166.672C210.191 166.62 210.185 166.561 210.172 166.496C210.165 166.431 210.139 166.343 210.094 166.232L208.912 163.361H204.127C204.016 163.628 203.893 163.941 203.756 164.299C203.626 164.657 203.512 164.976 203.414 165.256C203.29 165.62 203.215 165.884 203.189 166.047C203.17 166.21 203.16 166.324 203.16 166.389C203.16 166.597 203.316 166.776 203.629 166.926C203.948 167.069 204.475 167.173 205.211 167.238V168H199.527V167.238C199.742 167.225 199.983 167.193 200.25 167.141C200.523 167.082 200.738 167.004 200.895 166.906C201.161 166.75 201.386 166.558 201.568 166.33C201.757 166.102 201.913 165.832 202.037 165.52C202.792 163.69 203.548 161.857 204.303 160.021C205.064 158.186 205.904 156.161 206.822 153.947H208.775C210.051 157.085 211.051 159.566 211.773 161.389C212.496 163.212 213.111 164.722 213.619 165.92C213.704 166.115 213.811 166.294 213.941 166.457C214.072 166.613 214.257 166.763 214.498 166.906C214.68 167.01 214.892 167.089 215.133 167.141C215.374 167.193 215.592 167.225 215.787 167.238V168ZM208.512 162.395L206.5 157.375L204.518 162.395H208.512ZM236.92 154.904C236.738 154.924 236.477 154.96 236.139 155.012C235.8 155.064 235.494 155.191 235.221 155.393C234.98 155.568 234.807 155.871 234.703 156.301C234.605 156.724 234.557 157.349 234.557 158.176V168.078H232.818L224.186 157.365V163.869C224.186 164.676 224.238 165.292 224.342 165.715C224.452 166.132 224.628 166.438 224.869 166.633C225.045 166.776 225.325 166.903 225.709 167.014C226.093 167.124 226.399 167.199 226.627 167.238V168H220.67V167.238C220.924 167.219 221.214 167.173 221.539 167.102C221.871 167.023 222.148 166.906 222.369 166.75C222.623 166.561 222.796 166.278 222.887 165.9C222.984 165.516 223.033 164.875 223.033 163.977V157.414C223.033 157.089 222.981 156.783 222.877 156.496C222.779 156.203 222.623 155.952 222.408 155.744C222.18 155.523 221.917 155.35 221.617 155.227C221.324 155.096 220.989 154.995 220.611 154.924V154.143H225.826L233.404 163.518V158.273C233.404 157.44 233.349 156.822 233.238 156.418C233.128 156.008 232.952 155.705 232.711 155.51C232.522 155.36 232.242 155.233 231.871 155.129C231.5 155.018 231.201 154.943 230.973 154.904V154.143H236.92V154.904ZM250.602 155.686C251.285 156.311 251.826 157.066 252.223 157.951C252.626 158.837 252.828 159.846 252.828 160.979C252.828 161.988 252.659 162.948 252.32 163.859C251.982 164.771 251.493 165.555 250.855 166.213C250.185 166.896 249.397 167.43 248.492 167.814C247.587 168.192 246.51 168.381 245.26 168.381C244.251 168.381 243.297 168.215 242.398 167.883C241.5 167.551 240.709 167.069 240.025 166.438C239.348 165.819 238.811 165.067 238.414 164.182C238.017 163.296 237.818 162.31 237.818 161.223C237.818 160.09 238.01 159.064 238.395 158.146C238.785 157.222 239.319 156.431 239.996 155.773C240.667 155.129 241.461 154.634 242.379 154.289C243.303 153.938 244.286 153.762 245.328 153.762C246.363 153.762 247.333 153.931 248.238 154.27C249.15 154.608 249.938 155.08 250.602 155.686ZM248.092 165.598C248.385 165.005 248.596 164.335 248.727 163.586C248.857 162.837 248.922 161.991 248.922 161.047C248.922 160.246 248.863 159.468 248.746 158.713C248.635 157.951 248.443 157.274 248.17 156.682C247.89 156.089 247.519 155.614 247.057 155.256C246.594 154.898 246.018 154.719 245.328 154.719C244.15 154.719 243.255 155.279 242.643 156.398C242.031 157.512 241.725 159.087 241.725 161.125C241.725 161.991 241.79 162.808 241.92 163.576C242.057 164.344 242.268 165.015 242.555 165.588C242.848 166.167 243.219 166.62 243.668 166.945C244.117 167.264 244.671 167.424 245.328 167.424C245.973 167.424 246.526 167.261 246.988 166.936C247.451 166.61 247.818 166.164 248.092 165.598ZM271.568 157.678H270.826C270.637 157.15 270.312 156.617 269.85 156.076C269.387 155.536 268.928 155.217 268.473 155.119C268.277 155.074 268.004 155.048 267.652 155.041C267.307 155.028 267.021 155.021 266.793 155.021H264.781V160.373H266.207C266.565 160.373 266.891 160.331 267.184 160.246C267.477 160.161 267.743 159.999 267.984 159.758C268.134 159.608 268.284 159.344 268.434 158.967C268.59 158.589 268.691 158.26 268.736 157.98H269.479V163.762H268.736C268.697 163.488 268.596 163.146 268.434 162.736C268.277 162.32 268.128 162.033 267.984 161.877C267.77 161.643 267.516 161.483 267.223 161.398C266.93 161.307 266.591 161.262 266.207 161.262H264.781V165.256C264.781 165.673 264.811 166.005 264.869 166.252C264.934 166.493 265.051 166.678 265.221 166.809C265.383 166.932 265.605 167.014 265.885 167.053C266.171 167.092 266.559 167.111 267.047 167.111C267.275 167.111 267.548 167.108 267.867 167.102C268.186 167.095 268.466 167.076 268.707 167.043C268.98 167.01 269.234 166.962 269.469 166.896C269.71 166.831 269.889 166.737 270.006 166.613C270.318 166.294 270.67 165.809 271.061 165.158C271.451 164.501 271.708 164.009 271.832 163.684H272.545L272.281 168H259.283V167.238C259.465 167.225 259.713 167.199 260.025 167.16C260.338 167.121 260.559 167.076 260.689 167.023C260.937 166.919 261.103 166.789 261.188 166.633C261.272 166.47 261.314 166.265 261.314 166.018V156.242C261.314 156.008 261.279 155.816 261.207 155.666C261.135 155.51 260.963 155.37 260.689 155.246C260.52 155.168 260.283 155.096 259.977 155.031C259.671 154.966 259.439 154.924 259.283 154.904V154.143H271.568V157.678ZM289.635 154.904C289.452 154.924 289.192 154.96 288.854 155.012C288.515 155.064 288.209 155.191 287.936 155.393C287.695 155.568 287.522 155.871 287.418 156.301C287.32 156.724 287.271 157.349 287.271 158.176V168.078H285.533L276.9 157.365V163.869C276.9 164.676 276.952 165.292 277.057 165.715C277.167 166.132 277.343 166.438 277.584 166.633C277.76 166.776 278.04 166.903 278.424 167.014C278.808 167.124 279.114 167.199 279.342 167.238V168H273.385V167.238C273.639 167.219 273.928 167.173 274.254 167.102C274.586 167.023 274.863 166.906 275.084 166.75C275.338 166.561 275.51 166.278 275.602 165.9C275.699 165.516 275.748 164.875 275.748 163.977V157.414C275.748 157.089 275.696 156.783 275.592 156.496C275.494 156.203 275.338 155.952 275.123 155.744C274.895 155.523 274.632 155.35 274.332 155.227C274.039 155.096 273.704 154.995 273.326 154.924V154.143H278.541L286.119 163.518V158.273C286.119 157.44 286.064 156.822 285.953 156.418C285.842 156.008 285.667 155.705 285.426 155.51C285.237 155.36 284.957 155.233 284.586 155.129C284.215 155.018 283.915 154.943 283.688 154.904V154.143H289.635V154.904ZM297.779 168.371C296.764 168.371 295.813 168.208 294.928 167.883C294.042 167.551 293.271 167.072 292.613 166.447C291.969 165.835 291.461 165.08 291.09 164.182C290.719 163.277 290.533 162.284 290.533 161.203C290.533 160.129 290.719 159.136 291.09 158.225C291.467 157.307 291.995 156.512 292.672 155.842C293.336 155.184 294.133 154.676 295.064 154.318C295.995 153.954 296.992 153.771 298.053 153.771C298.821 153.771 299.521 153.866 300.152 154.055C300.784 154.237 301.318 154.445 301.754 154.68L302.359 154.143H303.209L303.297 159.201H302.438C301.949 157.658 301.363 156.525 300.68 155.803C299.996 155.08 299.163 154.719 298.18 154.719C296.956 154.719 296.025 155.259 295.387 156.34C294.749 157.414 294.43 158.924 294.43 160.871C294.43 161.971 294.537 162.912 294.752 163.693C294.973 164.468 295.26 165.093 295.611 165.568C295.989 166.063 296.435 166.428 296.949 166.662C297.464 166.89 298.033 167.004 298.658 167.004C299.57 167.004 300.38 166.757 301.09 166.262C301.806 165.767 302.457 165.018 303.043 164.016L303.883 164.523C303.603 165.096 303.284 165.611 302.926 166.066C302.568 166.516 302.154 166.903 301.686 167.229C301.171 167.587 300.602 167.867 299.977 168.068C299.358 168.27 298.626 168.371 297.779 168.371ZM317.633 155.686C318.316 156.311 318.857 157.066 319.254 157.951C319.658 158.837 319.859 159.846 319.859 160.979C319.859 161.988 319.69 162.948 319.352 163.859C319.013 164.771 318.525 165.555 317.887 166.213C317.216 166.896 316.428 167.43 315.523 167.814C314.618 168.192 313.541 168.381 312.291 168.381C311.282 168.381 310.328 168.215 309.43 167.883C308.531 167.551 307.74 167.069 307.057 166.438C306.38 165.819 305.842 165.067 305.445 164.182C305.048 163.296 304.85 162.31 304.85 161.223C304.85 160.09 305.042 159.064 305.426 158.146C305.816 157.222 306.35 156.431 307.027 155.773C307.698 155.129 308.492 154.634 309.41 154.289C310.335 153.938 311.318 153.762 312.359 153.762C313.395 153.762 314.365 153.931 315.27 154.27C316.181 154.608 316.969 155.08 317.633 155.686ZM315.123 165.598C315.416 165.005 315.628 164.335 315.758 163.586C315.888 162.837 315.953 161.991 315.953 161.047C315.953 160.246 315.895 159.468 315.777 158.713C315.667 157.951 315.475 157.274 315.201 156.682C314.921 156.089 314.55 155.614 314.088 155.256C313.626 154.898 313.049 154.719 312.359 154.719C311.181 154.719 310.286 155.279 309.674 156.398C309.062 157.512 308.756 159.087 308.756 161.125C308.756 161.991 308.821 162.808 308.951 163.576C309.088 164.344 309.299 165.015 309.586 165.588C309.879 166.167 310.25 166.62 310.699 166.945C311.148 167.264 311.702 167.424 312.359 167.424C313.004 167.424 313.557 167.261 314.02 166.936C314.482 166.61 314.85 166.164 315.123 165.598ZM337.154 154.904C336.972 154.924 336.712 154.96 336.373 155.012C336.035 155.064 335.729 155.191 335.455 155.393C335.214 155.568 335.042 155.871 334.938 156.301C334.84 156.724 334.791 157.349 334.791 158.176V168.078H333.053L324.42 157.365V163.869C324.42 164.676 324.472 165.292 324.576 165.715C324.687 166.132 324.863 166.438 325.104 166.633C325.279 166.776 325.559 166.903 325.943 167.014C326.327 167.124 326.633 167.199 326.861 167.238V168H320.904V167.238C321.158 167.219 321.448 167.173 321.773 167.102C322.105 167.023 322.382 166.906 322.604 166.75C322.857 166.561 323.03 166.278 323.121 165.9C323.219 165.516 323.268 164.875 323.268 163.977V157.414C323.268 157.089 323.215 156.783 323.111 156.496C323.014 156.203 322.857 155.952 322.643 155.744C322.415 155.523 322.151 155.35 321.852 155.227C321.559 155.096 321.223 154.995 320.846 154.924V154.143H326.061L333.639 163.518V158.273C333.639 157.44 333.583 156.822 333.473 156.418C333.362 156.008 333.186 155.705 332.945 155.51C332.757 155.36 332.477 155.233 332.105 155.129C331.734 155.018 331.435 154.943 331.207 154.904V154.143H337.154V154.904ZM350.914 158.107H350.162C349.96 157.515 349.635 156.88 349.186 156.203C348.743 155.526 348.333 155.161 347.955 155.109C347.747 155.083 347.49 155.061 347.184 155.041C346.878 155.021 346.614 155.012 346.393 155.012H345.934V165.881C345.934 166.115 345.976 166.324 346.061 166.506C346.145 166.682 346.311 166.822 346.559 166.926C346.708 166.984 346.939 167.046 347.252 167.111C347.571 167.17 347.841 167.212 348.062 167.238V168H340.338V167.238C340.527 167.219 340.79 167.193 341.129 167.16C341.474 167.121 341.708 167.076 341.832 167.023C342.086 166.919 342.255 166.779 342.34 166.604C342.424 166.428 342.467 166.219 342.467 165.979V155.012H342.008C341.786 155.012 341.523 155.021 341.217 155.041C340.911 155.061 340.654 155.083 340.445 155.109C340.068 155.161 339.654 155.526 339.205 156.203C338.762 156.88 338.44 157.515 338.238 158.107H337.486V154.143H350.914V158.107ZM367.633 168H362.32C361.402 166.594 360.637 165.474 360.025 164.641C359.42 163.807 358.665 162.844 357.76 161.75H357.223V165.959C357.223 166.193 357.265 166.392 357.35 166.555C357.441 166.717 357.61 166.854 357.857 166.965C357.981 167.017 358.173 167.072 358.434 167.131C358.701 167.183 358.928 167.219 359.117 167.238V168H351.725V167.238C351.913 167.219 352.161 167.193 352.467 167.16C352.779 167.121 353.001 167.076 353.131 167.023C353.378 166.919 353.544 166.789 353.629 166.633C353.714 166.47 353.756 166.265 353.756 166.018V156.242C353.756 156.008 353.72 155.812 353.648 155.656C353.577 155.5 353.404 155.363 353.131 155.246C352.923 155.161 352.675 155.09 352.389 155.031C352.109 154.973 351.887 154.93 351.725 154.904V154.143H359.498C361.236 154.143 362.555 154.416 363.453 154.963C364.358 155.503 364.811 156.324 364.811 157.424C364.811 158.394 364.531 159.175 363.971 159.768C363.417 160.354 362.571 160.812 361.432 161.145C361.874 161.717 362.389 162.382 362.975 163.137C363.567 163.892 364.182 164.663 364.82 165.451C365.022 165.705 365.296 166.018 365.641 166.389C365.992 166.753 366.301 166.978 366.568 167.062C366.718 167.108 366.907 167.147 367.135 167.18C367.369 167.212 367.535 167.232 367.633 167.238V168ZM360.982 157.697C360.982 156.773 360.722 156.099 360.201 155.676C359.687 155.246 358.951 155.031 357.994 155.031H357.223V160.832H357.965C358.922 160.832 359.664 160.581 360.191 160.08C360.719 159.579 360.982 158.785 360.982 157.697ZM382.721 168H375.172V167.238C375.523 167.212 375.937 167.15 376.412 167.053C376.887 166.949 377.125 166.822 377.125 166.672C377.125 166.62 377.118 166.561 377.105 166.496C377.099 166.431 377.073 166.343 377.027 166.232L375.846 163.361H371.061C370.95 163.628 370.826 163.941 370.689 164.299C370.559 164.657 370.445 164.976 370.348 165.256C370.224 165.62 370.149 165.884 370.123 166.047C370.104 166.21 370.094 166.324 370.094 166.389C370.094 166.597 370.25 166.776 370.562 166.926C370.882 167.069 371.409 167.173 372.145 167.238V168H366.461V167.238C366.676 167.225 366.917 167.193 367.184 167.141C367.457 167.082 367.672 167.004 367.828 166.906C368.095 166.75 368.32 166.558 368.502 166.33C368.691 166.102 368.847 165.832 368.971 165.52C369.726 163.69 370.481 161.857 371.236 160.021C371.998 158.186 372.838 156.161 373.756 153.947H375.709C376.985 157.085 377.984 159.566 378.707 161.389C379.43 163.212 380.045 164.722 380.553 165.92C380.637 166.115 380.745 166.294 380.875 166.457C381.005 166.613 381.191 166.763 381.432 166.906C381.614 167.01 381.826 167.089 382.066 167.141C382.307 167.193 382.525 167.225 382.721 167.238V168ZM375.445 162.395L373.434 157.375L371.451 162.395H375.445ZM395.338 155.568C396.184 156.122 396.868 156.861 397.389 157.785C397.91 158.703 398.17 159.829 398.17 161.164C398.17 162.336 397.936 163.358 397.467 164.23C397.005 165.096 396.389 165.806 395.621 166.359C394.84 166.913 393.951 167.326 392.955 167.6C391.965 167.867 390.927 168 389.84 168H382.857V167.238C383.066 167.232 383.326 167.212 383.639 167.18C383.951 167.147 384.16 167.108 384.264 167.062C384.498 166.965 384.661 166.835 384.752 166.672C384.843 166.503 384.889 166.301 384.889 166.066V156.242C384.889 156.021 384.846 155.822 384.762 155.646C384.677 155.464 384.511 155.318 384.264 155.207C384.016 155.096 383.753 155.021 383.473 154.982C383.199 154.943 382.988 154.917 382.838 154.904V154.143H390.211C390.999 154.143 391.842 154.243 392.74 154.445C393.639 154.647 394.505 155.021 395.338 155.568ZM393.346 165.5C393.665 164.979 393.896 164.361 394.039 163.645C394.189 162.922 394.264 162.092 394.264 161.154C394.264 160.236 394.166 159.4 393.971 158.645C393.775 157.889 393.489 157.245 393.111 156.711C392.734 156.177 392.262 155.764 391.695 155.471C391.135 155.178 390.497 155.031 389.781 155.031C389.553 155.031 389.293 155.038 389 155.051C388.714 155.057 388.499 155.064 388.355 155.07V165.588C388.355 165.822 388.385 166.031 388.443 166.213C388.508 166.389 388.616 166.545 388.766 166.682C388.915 166.818 389.098 166.926 389.312 167.004C389.534 167.076 389.82 167.111 390.172 167.111C390.908 167.111 391.539 166.975 392.066 166.701C392.594 166.428 393.02 166.027 393.346 165.5ZM414.576 168H407.027V167.238C407.379 167.212 407.792 167.15 408.268 167.053C408.743 166.949 408.98 166.822 408.98 166.672C408.98 166.62 408.974 166.561 408.961 166.496C408.954 166.431 408.928 166.343 408.883 166.232L407.701 163.361H402.916C402.805 163.628 402.682 163.941 402.545 164.299C402.415 164.657 402.301 164.976 402.203 165.256C402.079 165.62 402.005 165.884 401.979 166.047C401.959 166.21 401.949 166.324 401.949 166.389C401.949 166.597 402.105 166.776 402.418 166.926C402.737 167.069 403.264 167.173 404 167.238V168H398.316V167.238C398.531 167.225 398.772 167.193 399.039 167.141C399.312 167.082 399.527 167.004 399.684 166.906C399.951 166.75 400.175 166.558 400.357 166.33C400.546 166.102 400.702 165.832 400.826 165.52C401.581 163.69 402.337 161.857 403.092 160.021C403.854 158.186 404.693 156.161 405.611 153.947H407.564C408.84 157.085 409.84 159.566 410.562 161.389C411.285 163.212 411.9 164.722 412.408 165.92C412.493 166.115 412.6 166.294 412.73 166.457C412.861 166.613 413.046 166.763 413.287 166.906C413.469 167.01 413.681 167.089 413.922 167.141C414.163 167.193 414.381 167.225 414.576 167.238V168ZM407.301 162.395L405.289 157.375L403.307 162.395H407.301Z" fill="#03346E"/>
<path d="M428.912 485.395C478.995 485.395 519.595 473.963 519.595 459.862C519.595 445.761 478.995 434.329 428.912 434.329C378.829 434.329 338.228 445.761 338.228 459.862C338.228 473.963 378.829 485.395 428.912 485.395Z" fill="#263238" stroke="#263238" stroke-width="1.193" stroke-linecap="round" stroke-linejoin="round"/>
<path d="M428.911 446.07C471.804 446.07 507.725 454.414 517.158 465.726C518.647 464.09 519.507 462.022 519.595 459.862C519.595 445.748 478.988 434.317 428.911 434.317C378.835 434.317 338.216 445.748 338.216 459.862C338.304 462.022 339.163 464.09 340.652 465.726C350.085 454.462 386.006 446.07 428.911 446.07Z" fill="white" stroke="#263238" stroke-width="1.193" stroke-linecap="round" stroke-linejoin="round"/>
<path d="M416.527 482.188C386.233 480.889 363.373 475.036 363.373 467.884C363.389 467.103 363.647 466.345 364.114 465.703" stroke="white" stroke-width="1.193" stroke-linecap="round" stroke-linejoin="round"/>
<path d="M486.826 460.923C492.013 463.009 494.977 465.393 494.977 467.932C494.977 475.954 465.511 482.45 429.175 482.45H427.605" stroke="white" stroke-width="1.193" stroke-linecap="round" stroke-linejoin="round"/>
<path d="M372.228 460.648C383.62 456.322 404.884 453.401 429.175 453.401C442.997 453.3 456.802 454.373 470.422 456.608" stroke="white" stroke-width="1.193" stroke-linecap="round" stroke-linejoin="round"/>
<path d="M415.661 472.914C407.987 471.901 402.849 470.053 402.849 467.932C402.849 464.725 414.643 462.127 429.225 462.127C443.808 462.127 455.539 464.725 455.539 467.932C455.539 470.685 446.872 472.986 435.242 473.582" stroke="white" stroke-width="1.193" stroke-linecap="round" stroke-linejoin="round"/>
<path d="M64.7091 357.219C104.261 346.55 187.483 325.499 233.415 323.914C295.16 321.84 399.408 364.371 464.494 371.821C529.58 379.271 573.314 377.149 573.314 377.149" stroke="#263238" stroke-width="1.193" stroke-linecap="round" stroke-linejoin="round"/>
<path d="M42.704 363.31C42.704 363.31 46.1203 362.32 52.1115 360.663" stroke="#263238" stroke-width="1.193" stroke-linecap="round" stroke-linejoin="round"/>
<path d="M555.742 296.951C532.944 292.198 509.619 290.105 486.286 290.717C438.03 292.255 385.806 298.31 321.235 306.213C256.664 314.116 164.712 270.453 102.188 286.652C39.6645 302.851 44.4122 307.727 44.4122 307.727" stroke="#263238" stroke-width="1.193" stroke-linecap="round" stroke-linejoin="round"/>
<path d="M573.527 301.338C573.527 301.338 571.091 300.575 566.682 299.466" stroke="#263238" stroke-width="1.193" stroke-linecap="round" stroke-linejoin="round"/>
<path d="M457.749 188.753C457.054 186.074 455.433 183.693 453.145 181.992C450.857 180.29 448.034 179.365 445.126 179.365C442.219 179.365 439.396 180.29 437.108 181.992C434.82 183.693 433.199 186.074 432.504 188.753H457.749Z" stroke="#263238" stroke-width="1.193" stroke-linecap="round" stroke-linejoin="round"/>
<path d="M585.296 188.753C584.533 185.7 582.797 182.944 580.325 180.86C577.853 178.776 574.765 177.466 571.48 177.107C572.513 171.929 572.327 166.598 570.936 161.496C569.545 156.394 566.982 151.647 563.432 147.595C559.882 143.542 555.432 140.284 550.401 138.055C545.369 135.825 539.881 134.678 534.328 134.696C525.46 134.696 516.875 137.657 510.076 143.059C503.277 148.461 498.697 155.961 497.137 164.246C493.572 161.599 489.294 159.958 484.792 159.508C480.29 159.059 475.746 159.82 471.678 161.704C467.61 163.588 464.182 166.52 461.786 170.165C459.39 173.81 458.121 178.02 458.126 182.316C458.133 184.504 458.467 186.679 459.118 188.777L585.296 188.753Z" stroke="#263238" stroke-width="1.193" stroke-linecap="round" stroke-linejoin="round"/>
<path d="M233.076 217.528C232.73 216.161 231.91 214.945 230.747 214.074C229.583 213.204 228.145 212.731 226.664 212.731C225.183 212.731 223.745 213.204 222.582 214.074C221.418 214.945 220.598 216.161 220.252 217.528H233.076Z" stroke="#263238" stroke-width="1.193" stroke-linecap="round" stroke-linejoin="round"/>
<path d="M297.823 217.528C297.441 215.97 296.562 214.561 295.306 213.494C294.049 212.427 292.476 211.755 290.802 211.568C291.406 209.163 291.488 206.667 291.042 204.231C290.596 201.796 289.633 199.472 288.209 197.401C286.786 195.33 284.933 193.557 282.764 192.188C280.595 190.819 278.155 189.884 275.592 189.44C273.03 188.996 270.399 189.052 267.86 189.604C265.321 190.157 262.927 191.194 260.824 192.653C258.722 194.113 256.954 195.963 255.63 198.092C254.306 200.221 253.452 202.584 253.122 205.036C251.312 203.693 249.141 202.861 246.856 202.632C244.571 202.404 242.265 202.79 240.2 203.746C238.135 204.701 236.395 206.188 235.178 208.037C233.96 209.886 233.315 212.022 233.315 214.202C233.32 215.316 233.489 216.423 233.817 217.492L297.823 217.528Z" stroke="#263238" stroke-width="1.193" stroke-linecap="round" stroke-linejoin="round"/>
<path d="M291.304 236.767C291.087 235.904 290.571 235.135 289.837 234.585C289.103 234.034 288.195 233.735 287.26 233.735C286.325 233.735 285.417 234.034 284.683 234.585C283.949 235.135 283.432 235.904 283.215 236.767H291.304Z" stroke="#263238" stroke-width="1.193" stroke-linecap="round" stroke-linejoin="round"/>
<path d="M332.174 236.767C331.93 235.787 331.373 234.903 330.58 234.236C329.786 233.568 328.795 233.149 327.741 233.036C327.877 232.34 327.944 231.634 327.942 230.926C327.904 228.083 326.757 225.354 324.723 223.267C322.688 221.179 319.911 219.882 316.927 219.626C313.943 219.369 310.965 220.172 308.568 221.878C306.172 223.584 304.527 226.074 303.952 228.864C302.809 228.017 301.438 227.493 299.996 227.35C298.554 227.206 297.099 227.451 295.796 228.055C294.493 228.659 293.396 229.598 292.628 230.765C291.86 231.933 291.454 233.281 291.455 234.657C291.456 235.359 291.562 236.057 291.769 236.731L332.174 236.767Z" stroke="#263238" stroke-width="1.193" stroke-linecap="round" stroke-linejoin="round"/>
<path d="M204.288 374.085C203.846 374.091 203.411 373.98 203.032 373.763C202.483 373.442 202.085 372.932 201.922 372.339C201.758 371.747 201.841 371.117 202.153 370.581C202.769 369.556 358.06 208.838 429.112 149.906C429.36 149.717 429.674 149.624 429.991 149.646C430.308 149.668 430.605 149.804 430.821 150.025C431.027 150.262 431.129 150.565 431.106 150.872C431.082 151.178 430.935 151.464 430.695 151.67C359.995 210.352 207.001 371.904 206.386 372.917C206.177 373.271 205.872 373.565 205.504 373.771C205.135 373.976 204.716 374.084 204.288 374.085Z" fill="#263238"/>
<path d="M212.867 342.104C212.867 342.104 220.566 334.308 225.188 334.308C229.81 334.308 238.54 341.615 238.025 345.513C237.51 349.411 229.81 346.002 229.81 346.002C229.81 346.002 222.613 355.264 215.429 353.797C208.245 352.331 212.867 342.104 212.867 342.104Z" fill="#6EACDA" stroke="#263238" stroke-width="1.193" stroke-linecap="round" stroke-linejoin="round"/>
<path d="M229.848 345.978C229.848 345.978 234.558 349.077 234.972 351.259C235.387 353.44 229.748 359.603 223.48 360.985C217.213 362.368 213.859 358.995 215.743 355.824C217.627 352.653 225.1 346.264 229.848 345.978Z" fill="#6EACDA" stroke="#263238" stroke-width="1.193" stroke-linecap="round" stroke-linejoin="round"/>
<path d="M423.272 317.74V156.474C423.272 156.474 419.843 168.143 419.843 168.99" stroke="#263238" stroke-width="1.193" stroke-linecap="round" stroke-linejoin="round"/>
<path d="M494.135 326.238H363.838V425.318H494.135V326.238Z" fill="#6EACDA" stroke="#263238" stroke-width="1.193" stroke-linecap="round" stroke-linejoin="round"/>
<path d="M425.131 325.821V320.147C425.131 319.771 424.973 319.41 424.693 319.144C424.413 318.878 424.033 318.729 423.636 318.729C423.24 318.729 422.86 318.878 422.579 319.144C422.299 319.41 422.142 319.771 422.142 320.147V325.821H425.131Z" fill="#263238"/>
<path d="M437.088 312.018V312.304C436.966 312.087 436.786 311.905 436.565 311.777C436.344 311.649 436.091 311.58 435.832 311.577C435.432 311.577 435.049 311.728 434.766 311.996C434.484 312.264 434.325 312.628 434.325 313.007V328.158C434.325 329.316 433.841 330.427 432.979 331.247C432.117 332.067 430.948 332.529 429.728 332.532C429.096 332.533 428.471 332.407 427.894 332.163C427.561 332.634 427.416 333.203 427.485 333.766C427.554 334.33 427.833 334.852 428.271 335.238C428.751 335.324 429.239 335.368 429.728 335.369C430.726 335.369 431.714 335.183 432.636 334.82C433.558 334.458 434.395 333.927 435.101 333.257C435.807 332.587 436.366 331.792 436.748 330.917C437.13 330.042 437.327 329.105 437.327 328.158V321.137H440.768L437.088 312.018Z" fill="#263238"/>
<path d="M423.398 154.96C423.398 154.96 426.06 145.984 423.699 146.819C421.338 147.653 423.398 154.96 423.398 154.96Z" stroke="#263238" stroke-width="1.193" stroke-linecap="round" stroke-linejoin="round"/>
<path d="M423.398 154.96C423.398 154.96 413.35 151.587 414.241 154.674C415.133 157.761 423.398 154.96 423.398 154.96Z" stroke="#263238" stroke-width="1.193" stroke-linecap="round" stroke-linejoin="round"/>
<path d="M206.725 233.191C206.725 233.191 194.328 226.599 170.012 229.901C145.696 233.203 141.061 252.227 145.03 272.002C148.999 291.778 171.997 308.525 175.476 307.119C178.955 305.712 174.484 261.441 182.421 252.966C190.359 244.491 216.158 245.91 217.589 239.318C219.021 232.726 206.725 233.191 206.725 233.191Z" fill="#263238" stroke="#263238" stroke-width="1.193" stroke-linecap="round" stroke-linejoin="round"/>
<path d="M163.506 244.932L166.018 260.512C166.018 260.512 150.444 300.861 152.968 306.463C155.493 312.066 179.055 314.044 179.055 314.044C179.055 314.044 217.363 318.443 228.73 314.044C240.097 309.646 234.206 296.868 232.938 293.28C231.669 289.692 224.523 260.917 224.523 260.917C224.523 260.917 227.035 254.122 227.035 250.535C227.035 246.947 226.607 236.946 224.924 234.55C223.241 232.154 193.776 229.353 180.726 231.355C167.676 233.358 161.823 236.552 163.506 244.932Z" fill="#03346E" stroke="#263238" stroke-width="1.193" stroke-linecap="round" stroke-linejoin="round"/>
<path d="M170.251 262.919C170.251 262.919 169.824 297.666 171.934 304.461C174.044 311.255 182.459 319.241 200.131 317.239C217.803 315.236 219.499 299.264 219.499 299.264L218.243 262.121L170.251 262.919Z" fill="white" stroke="#263238" stroke-width="1.193" stroke-linecap="round" stroke-linejoin="round"/>
<path d="M200.558 287.88C200.561 288.475 200.377 289.056 200.031 289.552C199.684 290.048 199.191 290.434 198.613 290.664C198.035 290.893 197.398 290.954 196.783 290.839C196.168 290.725 195.603 290.44 195.159 290.02C194.715 289.6 194.413 289.065 194.29 288.482C194.166 287.899 194.228 287.295 194.468 286.745C194.707 286.196 195.112 285.726 195.633 285.395C196.154 285.064 196.766 284.888 197.393 284.888C197.808 284.886 198.219 284.963 198.603 285.112C198.987 285.262 199.336 285.482 199.63 285.76C199.924 286.038 200.158 286.368 200.317 286.732C200.476 287.096 200.558 287.486 200.558 287.88Z" stroke="#263238" stroke-width="1.193" stroke-miterlimit="10"/>
<path d="M200.131 300.467C200.131 300.864 200.007 301.252 199.775 301.581C199.542 301.911 199.212 302.167 198.826 302.319C198.439 302.47 198.014 302.509 197.605 302.431C197.195 302.352 196.819 302.16 196.524 301.879C196.23 301.598 196.03 301.24 195.95 300.851C195.87 300.462 195.913 300.059 196.075 299.693C196.237 299.327 196.509 299.015 196.858 298.797C197.206 298.578 197.616 298.463 198.034 298.465C198.31 298.465 198.584 298.517 198.839 298.618C199.094 298.718 199.326 298.866 199.521 299.052C199.716 299.238 199.87 299.459 199.975 299.702C200.08 299.945 200.133 300.205 200.131 300.467Z" fill="#263238"/>
<path d="M187.42 275.066C188.764 276.449 189.229 278.106 188.475 278.785C187.722 279.464 185.963 278.892 184.645 277.521C183.326 276.151 182.823 274.494 183.59 273.814C184.356 273.135 186.076 273.695 187.42 275.066Z" fill="#263238"/>
<path d="M204.514 275.066C203.171 276.449 202.693 278.106 203.459 278.785C204.226 279.464 205.971 278.892 207.227 277.521C208.483 276.151 209.049 274.494 208.282 273.814C207.516 273.135 205.858 273.695 204.514 275.066Z" fill="#263238"/>
<path d="M178.427 270.358C179.37 269.037 180.725 268.03 182.302 267.478C183.879 266.927 185.599 266.858 187.219 267.282" stroke="#263238" stroke-width="1.193" stroke-linecap="round" stroke-linejoin="round"/>
<path d="M203.849 267.723C203.849 267.723 209.852 265.971 211.711 270.799" stroke="#263238" stroke-width="1.193" stroke-linecap="round" stroke-linejoin="round"/>
<path d="M224.121 490.651C224.121 490.651 230.74 486.884 234.407 485.406C234.751 485.256 235.103 485.125 235.462 485.013C238.703 483.988 247.884 484.5 256.513 479.375C265.142 474.249 260.834 468.098 254.353 466.561C247.872 465.023 240.863 462.985 240.863 462.985L239.243 438.894C239.243 438.894 219.8 444.02 213.319 446.583C206.838 449.146 210.619 485.525 211.159 488.601C211.699 491.676 211.699 493.726 224.121 490.651Z" fill="#263238" stroke="#263238" stroke-width="1.193" stroke-linecap="round" stroke-linejoin="round"/>
<path d="M245.724 479.375C234.42 481.425 234.42 483.475 221.96 485.525C218.311 486.217 214.589 486.505 210.87 486.384C210.995 487.48 211.096 488.255 211.159 488.601C211.699 491.676 211.699 493.726 224.121 490.651C224.121 490.651 230.74 486.884 234.407 485.406C234.751 485.256 235.103 485.125 235.462 485.013C238.703 483.988 247.884 484.5 256.513 479.375C259.289 477.742 260.708 475.989 261.173 474.321C256.269 476.618 251.078 478.316 245.724 479.375Z" fill="white" stroke="#263238" stroke-width="1.193" stroke-linecap="round" stroke-linejoin="round"/>
<path d="M250.22 466.251C250.22 466.251 249.806 494.215 248.964 500.199C248.123 506.183 249.379 513.788 259.012 513.788C268.646 513.788 287.637 507.828 294.369 506.636C301.101 505.444 312.053 502.631 316.675 492.654C321.297 482.677 293.113 483.857 293.113 483.857L294.796 463.485C294.796 463.485 265.795 469.04 250.22 466.251Z" fill="#263238" stroke="#263238" stroke-width="1.193" stroke-linecap="round" stroke-linejoin="round"/>
<path d="M316.725 492.618C317.241 491.648 317.366 490.534 317.077 489.483C314.192 493.2 310.28 496.088 305.773 497.827C295.725 501.82 276.722 506.171 262.416 508.221C255.872 509.127 251.727 508.114 249.128 506.755C250.057 510.629 252.783 513.812 259.05 513.812C268.734 513.812 287.674 507.852 294.406 506.66C301.139 505.468 312.103 502.595 316.725 492.618Z" fill="white" stroke="#263238" stroke-width="1.193" stroke-linecap="round" stroke-linejoin="round"/>
<path d="M293.163 483.821C293.163 483.821 295.26 490.615 289.395 495.014" stroke="white" stroke-width="1.193" stroke-linecap="round" stroke-linejoin="round"/>
<path d="M247.281 451.47C247.281 451.47 246.628 463.617 247.344 466.048C250.032 475.274 250.886 473.117 271.095 472.711C291.304 472.306 299.468 464.654 301.578 459.862C303.688 455.07 301.578 444.676 300.737 441.076C299.895 437.476 293.201 436.308 290.626 436.689C288.051 437.071 248.537 447.477 247.281 451.47Z" fill="#03346E" stroke="#263238" stroke-width="1.193" stroke-linecap="round" stroke-linejoin="round"/>
<path d="M108.368 481.83V508.674C108.377 509.725 108.688 510.753 109.268 511.648C109.848 512.543 110.675 513.27 111.658 513.752L157.126 536.03C157.935 536.43 158.828 536.65 159.74 536.675C160.651 536.699 161.557 536.528 162.388 536.173L229.371 511.94C230.439 511.485 231.347 510.747 231.984 509.815C232.621 508.882 232.961 507.795 232.963 506.683V474.237L156.347 496.206L108.368 481.83Z" fill="#6EACDA"/>
<mask id="mask0_1161_2849" style="mask-type:luminance" maskUnits="userSpaceOnUse" x="108" y="474" width="125" height="63">
<path d="M108.368 481.83V508.674C108.377 509.725 108.688 510.753 109.268 511.648C109.848 512.543 110.675 513.27 111.658 513.752L157.126 536.03C157.935 536.43 158.828 536.65 159.74 536.675C160.651 536.699 161.557 536.528 162.388 536.173L229.371 511.94C230.439 511.485 231.347 510.747 231.984 509.815C232.621 508.882 232.961 507.795 232.963 506.683V474.237L156.347 496.206L108.368 481.83Z" fill="white"/>
</mask>
<g mask="url(#mask0_1161_2849)">
<path opacity="0.18" d="M159.726 495.24L156.359 496.206L108.368 481.83V508.674C108.377 509.725 108.688 510.753 109.268 511.648C109.848 512.543 110.675 513.27 111.658 513.752L157.126 536.03C157.93 536.429 158.819 536.65 159.726 536.674V495.24Z" fill="black"/>
</g>
<path d="M108.368 481.83V508.674C108.377 509.725 108.688 510.753 109.268 511.648C109.848 512.543 110.675 513.27 111.658 513.752L157.126 536.03C157.935 536.43 158.828 536.65 159.74 536.675C160.651 536.699 161.557 536.528 162.388 536.173L229.371 511.94C230.439 511.485 231.347 510.747 231.984 509.815C232.621 508.882 232.961 507.795 232.963 506.683V474.237L156.347 496.206L108.368 481.83Z" stroke="#263238" stroke-width="1.193" stroke-linecap="round" stroke-linejoin="round"/>
<path d="M178.352 436.51L104.876 458.92C104.302 459.095 103.801 459.438 103.447 459.901C103.092 460.364 102.902 460.922 102.904 461.495V481.377C102.915 481.878 103.073 482.366 103.359 482.787C103.645 483.208 104.048 483.545 104.524 483.761L155.744 506.898C156.089 507.055 156.463 507.144 156.845 507.16C157.227 507.176 157.609 507.12 157.967 506.993L234.872 479.685C235.416 479.493 235.885 479.148 236.218 478.697C236.55 478.245 236.729 477.708 236.731 477.158L236.869 458.503C236.865 457.885 236.64 457.288 236.232 456.807C235.824 456.326 235.256 455.991 234.621 455.857L179.809 436.439C179.325 436.347 178.824 436.372 178.352 436.51Z" fill="white"/>
<mask id="mask1_1161_2849" style="mask-type:luminance" maskUnits="userSpaceOnUse" x="102" y="436" width="135" height="72">
<path d="M178.352 436.51L104.876 458.92C104.302 459.095 103.801 459.438 103.447 459.901C103.092 460.364 102.902 460.922 102.904 461.495V481.377C102.915 481.878 103.073 482.366 103.359 482.787C103.645 483.208 104.048 483.545 104.524 483.761L155.744 506.898C156.089 507.055 156.463 507.144 156.845 507.16C157.227 507.176 157.609 507.12 157.967 506.993L234.872 479.685C235.416 479.493 235.885 479.148 236.218 478.697C236.55 478.245 236.729 477.708 236.731 477.158L236.869 458.503C236.865 457.885 236.64 457.288 236.232 456.807C235.824 456.326 235.256 455.991 234.621 455.857L179.809 436.439C179.325 436.347 178.824 436.372 178.352 436.51Z" fill="white"/>
</mask>
<g mask="url(#mask1_1161_2849)">
<path d="M155.656 506.886C156.001 507.043 156.375 507.132 156.757 507.148C157.139 507.164 157.521 507.108 157.879 506.981L234.872 479.685C235.416 479.493 235.885 479.148 236.218 478.697C236.55 478.245 236.729 477.708 236.731 477.158L236.869 458.503C236.871 457.868 236.63 457.254 236.191 456.774L156.749 484.62L155.656 506.886Z" fill="#6EACDA"/>
<path opacity="0.5" d="M155.656 506.886C156.001 507.043 156.375 507.132 156.757 507.148C157.139 507.164 157.521 507.108 157.879 506.981L234.872 479.685C235.416 479.493 235.885 479.148 236.218 478.697C236.55 478.245 236.729 477.708 236.731 477.158L236.869 458.503C236.871 457.868 236.63 457.254 236.191 456.774L156.749 484.62L155.656 506.886Z" fill="white"/>
<path d="M102.904 461.435V481.318C102.915 481.818 103.073 482.306 103.359 482.727C103.645 483.148 104.048 483.486 104.524 483.702L155.744 506.898C156.086 507.054 156.458 507.144 156.837 507.16V484.619L102.992 460.97C102.943 461.121 102.914 461.277 102.904 461.435Z" fill="#6EACDA"/>
</g>
<path d="M178.352 436.51L104.876 458.92C104.302 459.095 103.801 459.438 103.447 459.901C103.092 460.364 102.902 460.922 102.904 461.495V481.377C102.915 481.878 103.073 482.366 103.359 482.787C103.645 483.208 104.048 483.545 104.524 483.761L155.744 506.898C156.089 507.055 156.463 507.144 156.845 507.16C157.227 507.176 157.609 507.12 157.967 506.993L234.872 479.685C235.416 479.493 235.885 479.148 236.218 478.697C236.55 478.245 236.729 477.708 236.731 477.158L236.869 458.503C236.865 457.885 236.64 457.288 236.232 456.807C235.824 456.326 235.256 455.991 234.621 455.857L179.809 436.439C179.325 436.347 178.824 436.372 178.352 436.51Z" stroke="#263238" stroke-width="1.193" stroke-linecap="round" stroke-linejoin="round"/>
<path d="M279.272 399.94C279.272 399.94 288.943 404.326 294.004 413.123C299.066 421.92 295.26 438.68 292.309 443.877C289.357 449.074 269.588 451.47 262.856 451.47C256.123 451.47 254.855 450.671 254.855 450.671C254.855 450.671 233.39 454.665 219.913 457.06C206.436 459.456 209.865 429.501 214.022 415.913C218.18 402.324 241.805 395.541 251.489 395.541C261.173 395.541 279.272 399.94 279.272 399.94Z" fill="#263238" stroke="#263238" stroke-width="1.193" stroke-linecap="round" stroke-linejoin="round"/>
<path d="M254.855 450.671C254.855 450.671 272.954 444.711 280.528 429.501" stroke="white" stroke-width="1.193" stroke-linecap="round" stroke-linejoin="round"/>
<path d="M272.112 441.874C277.945 439.554 283.237 436.163 287.687 431.897" stroke="white" stroke-width="1.193" stroke-linecap="round" stroke-linejoin="round"/>
<path d="M229.597 413.123C229.597 413.123 234.621 438.286 232.109 448.669C229.597 459.051 214.851 460.66 211.485 459.456C208.119 458.252 209.802 433.495 209.802 421.11C209.802 408.725 222.865 409.523 229.597 413.123Z" fill="#03346E" stroke="#263238" stroke-width="1.193" stroke-linecap="round" stroke-linejoin="round"/>
<path d="M122.259 346.002C122.259 346.002 119.32 362.368 121.418 370.378C122.486 374.84 124.489 379.051 127.308 382.763C127.308 382.763 116.783 397.544 118.893 409.917C121.003 422.29 126.429 423.899 126.429 423.899C126.429 423.899 121.807 446.678 130.197 454.665C138.587 462.651 157.138 471.436 177.762 467.848C198.385 464.26 212.277 463.45 216.484 456.655C220.692 449.861 218.167 419.906 218.167 419.906C218.167 419.906 217.326 386.756 216.484 366.373C215.643 345.99 212.716 329.624 202.593 321.637C192.469 313.651 147.869 326.036 134.405 334.416C120.94 342.795 122.259 346.002 122.259 346.002Z" fill="#6EACDA"/>
<mask id="mask2_1161_2849" style="mask-type:luminance" maskUnits="userSpaceOnUse" x="118" y="319" width="101" height="150">
<path d="M122.259 346.002C122.259 346.002 119.32 362.368 121.418 370.378C122.486 374.84 124.489 379.051 127.308 382.763C127.308 382.763 116.783 397.544 118.893 409.917C121.003 422.29 126.429 423.899 126.429 423.899C126.429 423.899 121.807 446.678 130.197 454.665C138.587 462.651 157.138 471.436 177.762 467.848C198.385 464.26 212.277 463.45 216.484 456.655C220.692 449.861 218.167 419.906 218.167 419.906C218.167 419.906 217.326 386.756 216.484 366.373C215.643 345.99 212.716 329.624 202.593 321.637C192.469 313.651 147.869 326.036 134.405 334.416C120.94 342.795 122.259 346.002 122.259 346.002Z" fill="white"/>
</mask>
<g mask="url(#mask2_1161_2849)">
<path opacity="0.3" d="M125.261 346.002C125.261 346.002 122.309 362.38 124.419 370.378C125.482 374.842 127.486 379.055 130.31 382.763C130.31 382.763 119.785 397.544 121.895 409.917C124.005 422.29 129.431 423.899 129.431 423.899C129.431 423.899 124.796 446.678 133.199 454.665C141.601 462.651 160.19 471.436 180.864 467.848C201.538 464.26 215.391 463.45 219.599 456.655C223.807 449.861 221.282 419.906 221.282 419.906C221.282 419.906 220.441 386.756 219.599 366.373C218.757 345.99 215.831 329.624 205.708 321.637C195.584 313.651 150.984 326.036 137.519 334.416C124.055 342.795 125.261 346.002 125.261 346.002Z" fill="black"/>
</g>
<path d="M122.259 346.002C122.259 346.002 119.32 362.368 121.418 370.378C122.486 374.84 124.489 379.051 127.308 382.763C127.308 382.763 116.783 397.544 118.893 409.917C121.003 422.29 126.429 423.899 126.429 423.899C126.429 423.899 121.807 446.678 130.197 454.665C138.587 462.651 157.138 471.436 177.762 467.848C198.385 464.26 212.277 463.45 216.484 456.655C220.692 449.861 218.167 419.906 218.167 419.906C218.167 419.906 217.326 386.756 216.484 366.373C215.643 345.99 212.716 329.624 202.593 321.637C192.469 313.651 147.869 326.036 134.405 334.416C120.94 342.795 122.259 346.002 122.259 346.002Z" stroke="#263238" stroke-width="1.193" stroke-linecap="round" stroke-linejoin="round"/>
<path d="M127.308 382.763C133.825 386.982 141.28 389.715 149.093 390.748C156.906 391.782 164.864 391.089 172.348 388.723" stroke="#263238" stroke-width="1.193" stroke-linecap="round" stroke-linejoin="round"/>
<path d="M126.467 423.899C126.467 423.899 147.932 443.877 183.301 424.698" stroke="#263238" stroke-width="1.193" stroke-linecap="round" stroke-linejoin="round"/>
<path d="M210.229 326.429C210.229 326.429 202.241 314.843 191.289 308.454C180.336 302.065 152.152 297.273 140.785 295.27C129.418 293.268 117.21 294.078 113.844 305.998C110.478 317.918 110.892 337.956 114.258 346.741C117.624 355.526 131.516 360.723 142.468 354.739C153.42 348.755 183.715 325.571 194.24 324.379C204.766 323.187 209.388 330.828 210.229 326.429Z" fill="#03346E"/>
<mask id="mask3_1161_2849" style="mask-type:luminance" maskUnits="userSpaceOnUse" x="111" y="294" width="100" height="64">
<path d="M210.229 326.429C210.229 326.429 202.241 314.843 191.289 308.454C180.336 302.065 152.152 297.273 140.785 295.27C129.418 293.268 117.21 294.078 113.844 305.998C110.478 317.918 110.892 337.956 114.258 346.741C117.624 355.526 131.516 360.723 142.468 354.739C153.42 348.755 183.715 325.571 194.24 324.379C204.766 323.187 209.388 330.828 210.229 326.429Z" fill="white"/>
</mask>
<g mask="url(#mask3_1161_2849)">
<path opacity="0.3" d="M186.88 324.224C193.298 321.685 177.247 326.25 176.179 324.725C175.112 323.199 187.408 315.594 190.083 314.581C192.758 313.568 174.571 317.12 175.112 314.581C175.652 312.042 192.758 311.529 180.99 308.99C169.221 306.451 130.75 299.848 123.214 297.309C122.637 297.131 122.091 296.874 121.593 296.546C119.645 297.5 117.941 298.848 116.601 300.496C115.262 302.144 114.321 304.051 113.844 306.082C110.478 318.061 110.892 338.039 114.258 346.824C117.197 354.477 128.074 359.4 138.122 356.599C142.757 353.023 147.04 348.326 154.287 343.999C168.693 335.345 180.462 326.715 186.88 324.224Z" fill="black"/>
</g>
<path d="M210.229 326.429C210.229 326.429 202.241 314.843 191.289 308.454C180.336 302.065 152.152 297.273 140.785 295.27C129.418 293.268 117.21 294.078 113.844 305.998C110.478 317.918 110.892 337.956 114.258 346.741C117.624 355.526 131.516 360.723 142.468 354.739C153.42 348.755 183.715 325.571 194.24 324.379C204.766 323.187 209.388 330.828 210.229 326.429Z" stroke="#263238" stroke-width="1.193" stroke-linecap="round" stroke-linejoin="round"/>
<path d="M255.696 380.76C255.696 380.76 265.38 381.952 271.685 384.336C277.99 386.72 282.211 401.513 279.686 403.504C277.162 405.495 272.15 403.11 272.15 403.11C268.191 404.432 264.101 405.367 259.942 405.9C254.855 406.329 249.379 383.562 255.696 380.76Z" fill="#6EACDA" stroke="#263238" stroke-width="1.193" stroke-linecap="round" stroke-linejoin="round"/>
<path d="M223.706 379.557C223.706 379.557 225.389 379.557 234.646 375.563C243.903 371.57 251.489 371.57 257.38 380.331C263.27 389.093 265.795 399.916 262.404 406.305C259.012 412.694 246.415 417.093 239.67 417.093C232.925 417.093 232.134 408.749 232.134 408.749C232.134 408.749 231.292 395.565 227.11 390.773C222.927 385.981 222.023 380.761 223.706 379.557Z" fill="#03346E" stroke="#263238" stroke-width="1.193" stroke-linecap="round" stroke-linejoin="round"/>
<path d="M192.557 326.429C201.814 323.235 213.608 325.237 217.816 336.418C222.023 347.599 225.804 380.355 225.804 380.355C225.804 380.355 236.329 381.547 240.537 385.958C244.744 390.368 246.817 401.537 246.013 407.128C245.209 412.718 230.438 423.1 213.608 423.506C196.778 423.911 184.557 416.354 178.666 395.935C172.775 375.516 175.112 344.488 175.112 344.488C175.112 344.488 177.247 335.345 180.462 333.307" fill="#6EACDA"/>
<mask id="mask4_1161_2849" style="mask-type:luminance" maskUnits="userSpaceOnUse" x="174" y="325" width="73" height="99">
<path d="M192.557 326.429C201.814 323.235 213.608 325.237 217.816 336.418C222.023 347.599 225.804 380.355 225.804 380.355C225.804 380.355 236.329 381.547 240.537 385.958C244.744 390.368 246.817 401.537 246.013 407.128C245.209 412.718 230.438 423.1 213.608 423.506C196.778 423.911 184.557 416.354 178.666 395.935C172.775 375.516 175.112 344.488 175.112 344.488C175.112 344.488 177.247 335.345 180.462 333.307" fill="white"/>
</mask>
<g mask="url(#mask4_1161_2849)">
<path opacity="0.3" d="M246.013 407.128C246.854 401.537 244.757 390.344 240.537 385.958C240.373 385.779 240.172 385.612 239.996 385.445C240.501 389.035 240.803 392.648 240.901 396.268C241.742 419.715 207.215 415.793 200.257 398.807C196.489 389.665 195.434 349.554 184.205 346.514C177.724 344.762 175.513 349.578 174.81 353.976C174.584 365.479 174.986 383.204 178.666 395.935C184.557 416.318 196.765 423.899 213.608 423.506C230.451 423.112 245.171 412.718 246.013 407.128Z" fill="black"/>
</g>
<path d="M192.557 326.429C201.814 323.235 213.608 325.237 217.816 336.418C222.023 347.599 225.804 380.355 225.804 380.355C225.804 380.355 236.329 381.547 240.537 385.958C244.744 390.368 246.817 401.537 246.013 407.128C245.209 412.718 230.438 423.1 213.608 423.506C196.778 423.911 184.557 416.354 178.666 395.935C172.775 375.516 175.112 344.488 175.112 344.488C175.112 344.488 177.247 335.345 180.462 333.307" stroke="#263238" stroke-width="1.193" stroke-linecap="round" stroke-linejoin="round"/>
<path d="M225.804 380.355C225.804 380.355 229.094 394.91 212.189 402.896" stroke="#263238" stroke-width="1.193" stroke-linecap="round" stroke-linejoin="round"/>
</svg>
