<svg width="628" height="596" viewBox="0 0 628 596" fill="none" xmlns="http://www.w3.org/2000/svg">
<path d="M561 424.4H61V424.65H561V424.4Z" fill="#EBEBEB"/>
<path d="M298 379.8H104.91C103.397 379.797 101.948 379.195 100.879 378.124C99.8102 377.053 99.21 375.603 99.21 374.09V102.66C99.2231 101.156 99.8292 99.718 100.896 98.6582C101.964 97.5985 103.406 97.0026 104.91 97H298C299.514 97 300.967 97.6016 302.038 98.6724C303.108 99.7433 303.71 101.196 303.71 102.71V374.09C303.71 375.604 303.108 377.057 302.038 378.128C300.967 379.198 299.514 379.8 298 379.8ZM104.91 97.2C103.464 97.2026 102.077 97.7791 101.056 98.8027C100.034 99.8264 99.46 101.214 99.46 102.66V374.09C99.46 375.536 100.034 376.924 101.056 377.947C102.077 378.971 103.464 379.547 104.91 379.55H298C299.447 379.547 300.834 378.971 301.858 377.948C302.881 376.924 303.457 375.537 303.46 374.09V102.66C303.457 101.213 302.881 99.8255 301.858 98.8021C300.834 97.7787 299.447 97.2026 298 97.2H104.91Z" fill="#EBEBEB"/>
<path d="M514.31 379.8H321.21C319.696 379.797 318.246 379.195 317.175 378.125C316.105 377.054 315.503 375.604 315.5 374.09V102.66C315.516 101.155 316.124 99.7171 317.193 98.6576C318.262 97.5981 319.705 97.0025 321.21 97H514.31C515.812 97.0052 517.252 97.6022 518.317 98.6617C519.382 99.7212 519.987 101.158 520 102.66V374.09C520 375.601 519.401 377.05 518.335 378.121C517.268 379.191 515.821 379.795 514.31 379.8ZM321.21 97.2C319.763 97.2026 318.375 97.7787 317.352 98.8021C316.329 99.8255 315.753 101.213 315.75 102.66V374.09C315.753 375.537 316.329 376.924 317.352 377.948C318.375 378.971 319.763 379.547 321.21 379.55H514.31C515.757 379.547 517.145 378.971 518.168 377.948C519.191 376.924 519.767 375.537 519.77 374.09V102.66C519.767 101.213 519.191 99.8255 518.168 98.8021C517.145 97.7787 515.757 97.2026 514.31 97.2H321.21Z" fill="#EBEBEB"/>
<path d="M510.9 440.49H484.9V440.74H510.9V440.49Z" fill="#EBEBEB"/>
<path d="M417.03 443.21H372V443.46H417.03V443.21Z" fill="#EBEBEB"/>
<path d="M483.9 431.21H423.11V431.46H483.9V431.21Z" fill="#EBEBEB"/>
<path d="M132.69 432.89H113.46V433.14H132.69V432.89Z" fill="#EBEBEB"/>
<path d="M196.89 432.89H141.6V433.14H196.89V432.89Z" fill="#EBEBEB"/>
<path d="M305.14 437.11H230.67V437.36H305.14V437.11Z" fill="#EBEBEB"/>
<path d="M243.31 194.95H141.6V424.4H243.31V194.95Z" fill="#F5F5F5"/>
<path d="M233.75 203H151.14V416.34H233.75V203Z" fill="#E6E6E6"/>
<path d="M228.08 213H156.83V217.88H228.08V213Z" fill="#FAFAFA"/>
<path d="M228.08 224.09H156.83V228.97H228.08V224.09Z" fill="#FAFAFA"/>
<path d="M228.08 235.17H156.83V240.05H228.08V235.17Z" fill="#FAFAFA"/>
<path d="M228.08 246.26H156.83V251.14H228.08V246.26Z" fill="#FAFAFA"/>
<path d="M228.08 257.35H156.83V262.23H228.08V257.35Z" fill="#FAFAFA"/>
<path d="M228.08 268.43H156.83V273.31H228.08V268.43Z" fill="#FAFAFA"/>
<path d="M228.08 279.52H156.83V284.4H228.08V279.52Z" fill="#FAFAFA"/>
<path d="M228.08 290.6H156.83V295.48H228.08V290.6Z" fill="#FAFAFA"/>
<path d="M228.08 301.69H156.83V306.57H228.08V301.69Z" fill="#FAFAFA"/>
<path d="M228.08 312.78H156.83V317.66H228.08V312.78Z" fill="#FAFAFA"/>
<path d="M228.08 323.86H156.83V328.74H228.08V323.86Z" fill="#FAFAFA"/>
<path d="M228.08 334.95H156.83V339.83H228.08V334.95Z" fill="#FAFAFA"/>
<path d="M228.08 346.03H156.83V350.91H228.08V346.03Z" fill="#FAFAFA"/>
<path d="M228.08 357.12H156.83V362H228.08V357.12Z" fill="#FAFAFA"/>
<path d="M228.08 368.21H156.83V373.09H228.08V368.21Z" fill="#FAFAFA"/>
<path d="M228.08 379.29H156.83V384.17H228.08V379.29Z" fill="#FAFAFA"/>
<path d="M228.08 390.38H156.83V395.26H228.08V390.38Z" fill="#FAFAFA"/>
<path d="M228.08 401.46H156.83V406.34H228.08V401.46Z" fill="#FAFAFA"/>
<path d="M113.46 424.39H141.6L141.6 194.94H113.46L113.46 424.39Z" fill="#E6E6E6"/>
<path d="M229.33 191H149.51V194.95H229.33V191Z" fill="#F0F0F0"/>
<path d="M127.43 194.95H149.51V191H127.43V194.95Z" fill="#E0E0E0"/>
<path d="M136.55 211.83C138.234 211.83 139.6 208.499 139.6 204.39C139.6 200.281 138.234 196.95 136.55 196.95C134.866 196.95 133.5 200.281 133.5 204.39C133.5 208.499 134.866 211.83 136.55 211.83Z" fill="#F5F5F5"/>
<path d="M114.46 204.39C114.46 208.5 115.38 211.83 116.52 211.83C117.66 211.83 118.58 208.5 118.58 204.39C118.58 200.28 117.66 197 116.52 197C115.38 197 114.46 200.28 114.46 204.39Z" fill="#F5F5F5"/>
<path d="M136.55 422.39C138.234 422.39 139.6 419.059 139.6 414.95C139.6 410.841 138.234 407.51 136.55 407.51C134.866 407.51 133.5 410.841 133.5 414.95C133.5 419.059 134.866 422.39 136.55 422.39Z" fill="#F5F5F5"/>
<path d="M114.46 415C114.46 419.12 115.38 422.45 116.52 422.45C117.66 422.45 118.58 419.12 118.58 415C118.58 410.88 117.66 407.56 116.52 407.56C115.38 407.56 114.46 410.84 114.46 415Z" fill="#F5F5F5"/>
<path d="M432.66 246.12H353.64V424.39H432.66V246.12Z" fill="#F5F5F5"/>
<path d="M425.24 252.38H361.05V418.14H425.24V252.38Z" fill="#E6E6E6"/>
<path d="M420.83 260.15H365.47V263.94H420.83V260.15Z" fill="#FAFAFA"/>
<path d="M420.83 268.77H365.47V272.56H420.83V268.77Z" fill="#FAFAFA"/>
<path d="M420.83 277.38H365.47V281.17H420.83V277.38Z" fill="#FAFAFA"/>
<path d="M420.83 285.99H365.47V289.78H420.83V285.99Z" fill="#FAFAFA"/>
<path d="M420.83 294.61H365.47V298.4H420.83V294.61Z" fill="#FAFAFA"/>
<path d="M420.83 303.22H365.47V307.01H420.83V303.22Z" fill="#FAFAFA"/>
<path d="M420.83 311.83H365.47V315.62H420.83V311.83Z" fill="#FAFAFA"/>
<path d="M420.83 320.45H365.47V324.24H420.83V320.45Z" fill="#FAFAFA"/>
<path d="M420.83 329.06H365.47V332.85H420.83V329.06Z" fill="#FAFAFA"/>
<path d="M420.83 337.67H365.47V341.46H420.83V337.67Z" fill="#FAFAFA"/>
<path d="M420.83 346.29H365.47V350.08H420.83V346.29Z" fill="#FAFAFA"/>
<path d="M420.83 354.9H365.47V358.69H420.83V354.9Z" fill="#FAFAFA"/>
<path d="M420.83 363.51H365.47V367.3H420.83V363.51Z" fill="#FAFAFA"/>
<path d="M420.83 372.13H365.47V375.92H420.83V372.13Z" fill="#FAFAFA"/>
<path d="M420.83 380.74H365.47V384.53H420.83V380.74Z" fill="#FAFAFA"/>
<path d="M420.83 389.35H365.47V393.14H420.83V389.35Z" fill="#FAFAFA"/>
<path d="M420.83 397.97H365.47V401.76H420.83V397.97Z" fill="#FAFAFA"/>
<path d="M420.83 406.58H365.47V410.37H420.83V406.58Z" fill="#FAFAFA"/>
<path d="M331.78 424.4H353.64V246.13H331.78V424.4Z" fill="#E6E6E6"/>
<path d="M421.81 243.06H359.79V246.13H421.81V243.06Z" fill="#F0F0F0"/>
<path d="M342.62 246.12H359.78V243.05H342.62V246.12Z" fill="#E0E0E0"/>
<path d="M347.35 253.46C347.35 256.66 348.41 259.25 349.71 259.25C351.01 259.25 352.08 256.66 352.08 253.46C352.08 250.26 351.02 247.68 349.71 247.68C348.4 247.68 347.35 250.27 347.35 253.46Z" fill="#F5F5F5"/>
<path d="M332.55 253.46C332.55 256.66 333.27 259.25 334.15 259.25C335.03 259.25 335.76 256.66 335.76 253.46C335.76 250.26 335.04 247.68 334.15 247.68C333.26 247.68 332.55 250.27 332.55 253.46Z" fill="#F5F5F5"/>
<path d="M347.35 417.06C347.35 420.26 348.41 422.84 349.71 422.84C351.01 422.84 352.08 420.26 352.08 417.06C352.08 413.86 351.02 411.28 349.71 411.28C348.4 411.28 347.35 413.87 347.35 417.06Z" fill="#F5F5F5"/>
<path d="M332.55 417.06C332.55 420.26 333.27 422.84 334.15 422.84C335.03 422.84 335.76 420.26 335.76 417.06C335.76 413.86 335.04 411.28 334.15 411.28C333.26 411.28 332.55 413.87 332.55 417.06Z" fill="#F5F5F5"/>
<path d="M349.71 254H303.09C300 253.997 297.037 252.769 294.851 250.585C292.666 248.402 291.435 245.44 291.43 242.35V226.6C291.427 223.775 290.305 221.067 288.308 219.069C286.312 217.07 283.604 215.945 280.78 215.94H243.3V214.94H280.78C283.87 214.945 286.831 216.176 289.015 218.362C291.199 220.547 292.427 223.51 292.43 226.6V242.31C292.427 243.712 292.701 245.101 293.235 246.397C293.77 247.693 294.554 248.871 295.544 249.864C296.534 250.857 297.71 251.645 299.005 252.183C300.3 252.721 301.688 252.999 303.09 253H349.71V254Z" fill="#E0E0E0"/>
<path d="M334.15 417.56H320C316.912 417.555 313.952 416.326 311.768 414.142C309.584 411.958 308.355 408.998 308.35 405.91V314.37C308.345 311.545 307.219 308.838 305.221 306.842C303.223 304.845 300.514 303.723 297.69 303.72H243.3V302.72H297.73C300.82 302.723 303.782 303.951 305.968 306.134C308.154 308.318 309.385 311.28 309.39 314.37V405.91C309.395 408.726 310.513 411.426 312.501 413.421C314.488 415.416 317.184 416.544 320 416.56H334.11L334.15 417.56Z" fill="#E0E0E0"/>
<path d="M492.64 140.71H439.85V146.11H492.64V140.71Z" fill="#F0F0F0"/>
<path d="M425.24 146.12H439.85V140.72H425.24V146.12Z" fill="#E0E0E0"/>
<path d="M492.64 127.49H439.85V132.89H492.64V127.49Z" fill="#F0F0F0"/>
<path d="M425.24 132.88H439.85V127.48H425.24V132.88Z" fill="#E0E0E0"/>
<path d="M492.64 114.26H439.85V119.66H492.64V114.26Z" fill="#F0F0F0"/>
<path d="M425.24 119.66H439.85V114.26H425.24V119.66Z" fill="#E0E0E0"/>
<path d="M492.64 101.03H439.85V106.43H492.64V101.03Z" fill="#F0F0F0"/>
<path d="M425.24 106.43H439.85V101.03H425.24V106.43Z" fill="#E0E0E0"/>
<g opacity="0.4">
<path d="M487.38 87.59H442.83V140.72H487.38V87.59Z" fill="#F0F0F0"/>
<path d="M430.5 140.71H442.83V87.58H430.5V140.71Z" fill="#E0E0E0"/>
</g>
<path d="M356.38 228.54H317.83V232.48H356.38V228.54Z" fill="#F0F0F0"/>
<path d="M307.17 232.48H317.83V228.54H307.17V232.48Z" fill="#E0E0E0"/>
<path d="M356.38 218.88H317.83V222.82H356.38V218.88Z" fill="#F0F0F0"/>
<path d="M307.17 222.82H317.83V218.88H307.17V222.82Z" fill="#E0E0E0"/>
<path d="M356.38 209.22H317.83V213.16H356.38V209.22Z" fill="#F0F0F0"/>
<path d="M307.17 213.17H317.83V209.23H307.17V213.17Z" fill="#E0E0E0"/>
<path d="M356.38 199.56H317.83V203.5H356.38V199.56Z" fill="#F0F0F0"/>
<path d="M307.17 203.51H317.83V199.57H307.17V203.51Z" fill="#E0E0E0"/>
<g opacity="0.4">
<path d="M352.54 189.75H320.01V228.54H352.54V189.75Z" fill="#F0F0F0"/>
<path d="M311.01 228.54H320.01V189.75H311.01V228.54Z" fill="#E0E0E0"/>
</g>
<path d="M533.78 353.55H484.1V358.63H533.78V353.55Z" fill="#F0F0F0"/>
<path d="M470.36 358.63H484.1V353.55H470.36V358.63Z" fill="#E0E0E0"/>
<path d="M533.78 341.1H484.1V346.18H533.78V341.1Z" fill="#F0F0F0"/>
<path d="M470.36 346.18H484.1V341.1H470.36V346.18Z" fill="#E0E0E0"/>
<path d="M533.78 328.65H484.1V333.73H533.78V328.65Z" fill="#F0F0F0"/>
<path d="M470.36 333.74H484.1V328.66H470.36V333.74Z" fill="#E0E0E0"/>
<path d="M533.78 316.21H484.1V321.29H533.78V316.21Z" fill="#F0F0F0"/>
<path d="M470.36 321.28H484.1V316.2H470.36V321.28Z" fill="#E0E0E0"/>
<g opacity="0.4">
<path d="M528.83 303.55H486.9V353.55H528.83V303.55Z" fill="#F0F0F0"/>
<path d="M475.31 353.55H486.91V303.55H475.31V353.55Z" fill="#E0E0E0"/>
</g>
<path d="M311 469.56C418.082 469.56 504.89 464.492 504.89 458.24C504.89 451.988 418.082 446.92 311 446.92C203.917 446.92 117.11 451.988 117.11 458.24C117.11 464.492 203.917 469.56 311 469.56Z" fill="#F5F5F5"/>
<path d="M488.37 157.28H379.48V261.72H488.37V157.28Z" fill="#6EACDA"/>
<path opacity="0.4" d="M488.37 157.28H379.48V261.72H488.37V157.28Z" fill="white"/>
<path opacity="0.7" d="M488.36 157.28H414.14V261.72H488.36V157.28Z" fill="white"/>
<path d="M484.65 162.61H417.85V175.54H484.65V162.61Z" fill="#6EACDA"/>
<path d="M484.65 178.78H417.85V191.71H484.65V178.78Z" fill="#6EACDA"/>
<path d="M484.65 194.95H417.85V207.88H484.65V194.95Z" fill="#6EACDA"/>
<path d="M484.65 211.11H417.85V224.04H484.65V211.11Z" fill="#6EACDA"/>
<path d="M484.65 227.28H417.85V240.21H484.65V227.28Z" fill="#6EACDA"/>
<path d="M484.65 243.45H417.85V256.38H484.65V243.45Z" fill="#6EACDA"/>
<path d="M410.26 162.61H383.37V175.54H410.26V162.61Z" fill="#6EACDA"/>
<path d="M410.26 178.78H383.37V191.71H410.26V178.78Z" fill="#6EACDA"/>
<path d="M410.26 194.95H383.37V207.88H410.26V194.95Z" fill="#6EACDA"/>
<path d="M410.26 211.11H383.37V224.04H410.26V211.11Z" fill="#6EACDA"/>
<path d="M410.26 227.28H383.37V240.21H410.26V227.28Z" fill="#6EACDA"/>
<path d="M410.26 243.45H383.37V256.38H410.26V243.45Z" fill="#6EACDA"/>
<path opacity="0.4" d="M398.47 165.2H385.85V172.96H398.47V165.2Z" fill="#263238"/>
<path opacity="0.4" d="M398.47 181.36H385.85V189.12H398.47V181.36Z" fill="#263238"/>
<path opacity="0.4" d="M398.47 197.53H385.85V205.29H398.47V197.53Z" fill="#263238"/>
<path opacity="0.4" d="M398.47 213.7H385.85V221.46H398.47V213.7Z" fill="#263238"/>
<path opacity="0.4" d="M398.47 229.87H385.85V237.63H398.47V229.87Z" fill="#263238"/>
<path opacity="0.4" d="M398.47 246.04H385.85V253.8H398.47V246.04Z" fill="#263238"/>
<path opacity="0.7" d="M481.38 164.29H479.82V173.85H481.38V164.29Z" fill="white"/>
<path opacity="0.7" d="M478.38 164.29H476.82V173.85H478.38V164.29Z" fill="white"/>
<path opacity="0.7" d="M475.38 164.29H473.82V173.85H475.38V164.29Z" fill="white"/>
<path opacity="0.7" d="M472.38 164.29H470.82V173.85H472.38V164.29Z" fill="white"/>
<path opacity="0.7" d="M469.38 164.29H467.82V173.85H469.38V164.29Z" fill="white"/>
<path opacity="0.7" d="M481.38 180.46H479.82V190.02H481.38V180.46Z" fill="white"/>
<path opacity="0.7" d="M478.38 180.46H476.82V190.02H478.38V180.46Z" fill="white"/>
<path opacity="0.7" d="M475.38 180.46H473.82V190.02H475.38V180.46Z" fill="white"/>
<path opacity="0.7" d="M472.38 180.46H470.82V190.02H472.38V180.46Z" fill="white"/>
<path opacity="0.7" d="M469.38 180.46H467.82V190.02H469.38V180.46Z" fill="white"/>
<path opacity="0.7" d="M481.38 196.63H479.82V206.19H481.38V196.63Z" fill="white"/>
<path opacity="0.7" d="M478.38 196.63H476.82V206.19H478.38V196.63Z" fill="white"/>
<path opacity="0.7" d="M475.38 196.63H473.82V206.19H475.38V196.63Z" fill="white"/>
<path opacity="0.7" d="M472.38 196.63H470.82V206.19H472.38V196.63Z" fill="white"/>
<path opacity="0.7" d="M469.38 196.63H467.82V206.19H469.38V196.63Z" fill="white"/>
<path opacity="0.7" d="M481.38 212.8H479.82V222.37H481.38V212.8Z" fill="white"/>
<path opacity="0.7" d="M478.38 212.8H476.82V222.37H478.38V212.8Z" fill="white"/>
<path opacity="0.7" d="M475.38 212.8H473.82V222.37H475.38V212.8Z" fill="white"/>
<path opacity="0.7" d="M472.38 212.8H470.82V222.37H472.38V212.8Z" fill="white"/>
<path opacity="0.7" d="M469.38 212.8H467.82V222.37H469.38V212.8Z" fill="white"/>
<path opacity="0.7" d="M481.38 228.97H479.82V238.54H481.38V228.97Z" fill="white"/>
<path opacity="0.7" d="M478.38 228.97H476.82V238.54H478.38V228.97Z" fill="white"/>
<path opacity="0.7" d="M475.38 228.97H473.82V238.54H475.38V228.97Z" fill="white"/>
<path opacity="0.7" d="M472.38 228.97H470.82V238.54H472.38V228.97Z" fill="white"/>
<path opacity="0.7" d="M469.38 228.97H467.82V238.54H469.38V228.97Z" fill="white"/>
<path opacity="0.7" d="M481.38 245.14H479.82V254.7H481.38V245.14Z" fill="white"/>
<path opacity="0.7" d="M478.38 245.14H476.82V254.7H478.38V245.14Z" fill="white"/>
<path opacity="0.7" d="M475.38 245.14H473.82V254.7H475.38V245.14Z" fill="white"/>
<path opacity="0.7" d="M472.38 245.14H470.82V254.7H472.38V245.14Z" fill="white"/>
<path opacity="0.7" d="M469.38 245.14H467.82V254.7H469.38V245.14Z" fill="white"/>
<path opacity="0.2" d="M442.44 249.92C442.44 249.606 442.533 249.298 442.708 249.037C442.883 248.775 443.131 248.571 443.421 248.451C443.712 248.331 444.032 248.299 444.34 248.361C444.649 248.422 444.932 248.573 445.154 248.796C445.377 249.018 445.528 249.301 445.589 249.61C445.651 249.918 445.619 250.238 445.499 250.528C445.379 250.819 445.175 251.067 444.913 251.242C444.652 251.417 444.344 251.51 444.03 251.51C443.608 251.51 443.204 251.342 442.906 251.044C442.607 250.746 442.44 250.342 442.44 249.92Z" fill="white"/>
<path opacity="0.2" d="M432.44 249.92C432.44 249.606 432.533 249.298 432.708 249.037C432.883 248.775 433.131 248.571 433.421 248.451C433.712 248.331 434.032 248.299 434.34 248.361C434.649 248.422 434.932 248.573 435.154 248.796C435.377 249.018 435.528 249.301 435.589 249.61C435.651 249.918 435.619 250.238 435.499 250.528C435.379 250.819 435.175 251.067 434.913 251.242C434.652 251.417 434.344 251.51 434.03 251.51C433.608 251.51 433.204 251.342 432.906 251.044C432.607 250.746 432.44 250.342 432.44 249.92Z" fill="white"/>
<path opacity="0.4" d="M422.44 249.92C422.44 249.606 422.533 249.298 422.708 249.037C422.883 248.775 423.131 248.571 423.421 248.451C423.712 248.331 424.032 248.299 424.34 248.361C424.649 248.422 424.932 248.573 425.154 248.796C425.377 249.018 425.528 249.301 425.589 249.61C425.651 249.918 425.619 250.238 425.499 250.528C425.379 250.819 425.175 251.067 424.913 251.242C424.652 251.417 424.344 251.51 424.03 251.51C423.608 251.51 423.204 251.342 422.906 251.044C422.607 250.746 422.44 250.342 422.44 249.92Z" fill="white"/>
<path opacity="0.4" d="M442.44 233.75C442.44 233.436 442.533 233.128 442.708 232.867C442.883 232.605 443.131 232.401 443.421 232.281C443.712 232.161 444.032 232.129 444.34 232.191C444.649 232.252 444.932 232.403 445.154 232.626C445.377 232.848 445.528 233.131 445.589 233.44C445.651 233.748 445.619 234.068 445.499 234.358C445.379 234.649 445.175 234.897 444.913 235.072C444.652 235.247 444.344 235.34 444.03 235.34C443.608 235.34 443.204 235.172 442.906 234.874C442.607 234.576 442.44 234.172 442.44 233.75Z" fill="white"/>
<path opacity="0.2" d="M432.44 233.75C432.44 233.436 432.533 233.128 432.708 232.867C432.883 232.605 433.131 232.401 433.421 232.281C433.712 232.161 434.032 232.129 434.34 232.191C434.649 232.252 434.932 232.403 435.154 232.626C435.377 232.848 435.528 233.131 435.589 233.44C435.651 233.748 435.619 234.068 435.499 234.358C435.379 234.649 435.175 234.897 434.913 235.072C434.652 235.247 434.344 235.34 434.03 235.34C433.608 235.34 433.204 235.172 432.906 234.874C432.607 234.576 432.44 234.172 432.44 233.75Z" fill="white"/>
<path opacity="0.4" d="M422.44 233.75C422.44 233.436 422.533 233.128 422.708 232.867C422.883 232.605 423.131 232.401 423.421 232.281C423.712 232.161 424.032 232.129 424.34 232.191C424.649 232.252 424.932 232.403 425.154 232.626C425.377 232.848 425.528 233.131 425.589 233.44C425.651 233.748 425.619 234.068 425.499 234.358C425.379 234.649 425.175 234.897 424.913 235.072C424.652 235.247 424.344 235.34 424.03 235.34C423.608 235.34 423.204 235.172 422.906 234.874C422.607 234.576 422.44 234.172 422.44 233.75Z" fill="white"/>
<path opacity="0.2" d="M442.44 217.58C442.44 217.266 442.533 216.958 442.708 216.697C442.883 216.435 443.131 216.231 443.421 216.111C443.712 215.991 444.032 215.959 444.34 216.021C444.649 216.082 444.932 216.233 445.154 216.456C445.377 216.678 445.528 216.961 445.589 217.27C445.651 217.578 445.619 217.898 445.499 218.188C445.379 218.479 445.175 218.727 444.913 218.902C444.652 219.077 444.344 219.17 444.03 219.17C443.608 219.17 443.204 219.002 442.906 218.704C442.607 218.406 442.44 218.002 442.44 217.58Z" fill="white"/>
<path opacity="0.4" d="M432.44 217.58C432.44 217.266 432.533 216.958 432.708 216.697C432.883 216.435 433.131 216.231 433.421 216.111C433.712 215.991 434.032 215.959 434.34 216.021C434.649 216.082 434.932 216.233 435.154 216.456C435.377 216.678 435.528 216.961 435.589 217.27C435.651 217.578 435.619 217.898 435.499 218.188C435.379 218.479 435.175 218.727 434.913 218.902C434.652 219.077 434.344 219.17 434.03 219.17C433.608 219.17 433.204 219.002 432.906 218.704C432.607 218.406 432.44 218.002 432.44 217.58Z" fill="white"/>
<path opacity="0.2" d="M422.44 217.58C422.44 217.266 422.533 216.958 422.708 216.697C422.883 216.435 423.131 216.231 423.421 216.111C423.712 215.991 424.032 215.959 424.34 216.021C424.649 216.082 424.932 216.233 425.154 216.456C425.377 216.678 425.528 216.961 425.589 217.27C425.651 217.578 425.619 217.898 425.499 218.188C425.379 218.479 425.175 218.727 424.913 218.902C424.652 219.077 424.344 219.17 424.03 219.17C423.608 219.17 423.204 219.002 422.906 218.704C422.607 218.406 422.44 218.002 422.44 217.58Z" fill="white"/>
<path opacity="0.4" d="M442.44 201.41C442.44 201.094 442.534 200.786 442.71 200.524C442.886 200.262 443.136 200.058 443.429 199.938C443.721 199.819 444.042 199.789 444.351 199.853C444.661 199.917 444.944 200.071 445.165 200.297C445.386 200.522 445.535 200.808 445.593 201.119C445.651 201.429 445.615 201.75 445.49 202.04C445.365 202.329 445.157 202.576 444.891 202.747C444.626 202.918 444.316 203.006 444 203C443.583 202.992 443.187 202.821 442.895 202.524C442.603 202.226 442.44 201.827 442.44 201.41Z" fill="white"/>
<path opacity="0.2" d="M432.44 201.41C432.44 201.094 432.534 200.786 432.71 200.524C432.886 200.262 433.136 200.058 433.429 199.938C433.721 199.819 434.042 199.789 434.351 199.853C434.661 199.917 434.944 200.071 435.165 200.297C435.386 200.522 435.535 200.808 435.593 201.119C435.651 201.429 435.615 201.75 435.49 202.04C435.365 202.329 435.157 202.576 434.891 202.747C434.626 202.918 434.316 203.006 434 203C433.583 202.992 433.187 202.821 432.895 202.524C432.603 202.226 432.44 201.827 432.44 201.41Z" fill="white"/>
<path opacity="0.2" d="M422.44 201.41C422.44 201.094 422.534 200.786 422.71 200.524C422.886 200.262 423.136 200.058 423.429 199.938C423.721 199.819 424.042 199.789 424.351 199.853C424.661 199.917 424.944 200.071 425.165 200.297C425.386 200.522 425.535 200.808 425.593 201.119C425.651 201.429 425.615 201.75 425.49 202.04C425.365 202.329 425.157 202.576 424.891 202.747C424.626 202.918 424.316 203.006 424 203C423.583 202.992 423.187 202.821 422.895 202.524C422.603 202.226 422.44 201.827 422.44 201.41Z" fill="white"/>
<path opacity="0.2" d="M442.44 185.24C442.44 184.926 442.533 184.618 442.708 184.357C442.883 184.095 443.131 183.891 443.421 183.771C443.712 183.651 444.032 183.619 444.34 183.681C444.649 183.742 444.932 183.893 445.154 184.116C445.377 184.338 445.528 184.621 445.589 184.93C445.651 185.238 445.619 185.558 445.499 185.848C445.379 186.139 445.175 186.387 444.913 186.562C444.652 186.737 444.344 186.83 444.03 186.83C443.608 186.83 443.204 186.663 442.906 186.364C442.607 186.066 442.44 185.662 442.44 185.24Z" fill="white"/>
<path opacity="0.4" d="M432.44 185.24C432.44 184.926 432.533 184.618 432.708 184.357C432.883 184.095 433.131 183.891 433.421 183.771C433.712 183.651 434.032 183.619 434.34 183.681C434.649 183.742 434.932 183.893 435.154 184.116C435.377 184.338 435.528 184.621 435.589 184.93C435.651 185.238 435.619 185.558 435.499 185.848C435.379 186.139 435.175 186.387 434.913 186.562C434.652 186.737 434.344 186.83 434.03 186.83C433.608 186.83 433.204 186.663 432.906 186.364C432.607 186.066 432.44 185.662 432.44 185.24Z" fill="white"/>
<path opacity="0.4" d="M422.44 185.24C422.44 184.926 422.533 184.618 422.708 184.357C422.883 184.095 423.131 183.891 423.421 183.771C423.712 183.651 424.032 183.619 424.34 183.681C424.649 183.742 424.932 183.893 425.154 184.116C425.377 184.338 425.528 184.621 425.589 184.93C425.651 185.238 425.619 185.558 425.499 185.848C425.379 186.139 425.175 186.387 424.913 186.562C424.652 186.737 424.344 186.83 424.03 186.83C423.608 186.83 423.204 186.663 422.906 186.364C422.607 186.066 422.44 185.662 422.44 185.24Z" fill="white"/>
<path opacity="0.4" d="M442.44 169.08C442.438 168.765 442.53 168.457 442.703 168.194C442.877 167.931 443.124 167.726 443.415 167.604C443.705 167.482 444.025 167.449 444.334 167.509C444.643 167.57 444.927 167.72 445.151 167.942C445.374 168.164 445.526 168.447 445.589 168.756C445.651 169.065 445.62 169.385 445.5 169.676C445.38 169.967 445.176 170.216 444.914 170.391C444.653 170.566 444.345 170.66 444.03 170.66C443.61 170.66 443.207 170.494 442.909 170.198C442.611 169.902 442.443 169.5 442.44 169.08Z" fill="white"/>
<path opacity="0.2" d="M432.44 169.08C432.438 168.765 432.53 168.457 432.703 168.194C432.877 167.931 433.124 167.726 433.415 167.604C433.705 167.482 434.025 167.449 434.334 167.509C434.643 167.57 434.927 167.72 435.151 167.942C435.374 168.164 435.526 168.447 435.589 168.756C435.651 169.065 435.62 169.385 435.5 169.676C435.38 169.967 435.176 170.216 434.914 170.391C434.653 170.566 434.345 170.66 434.03 170.66C433.61 170.66 433.207 170.494 432.909 170.198C432.611 169.902 432.443 169.5 432.44 169.08Z" fill="white"/>
<path opacity="0.4" d="M422.44 169.08C422.438 168.765 422.53 168.457 422.703 168.194C422.877 167.931 423.124 167.726 423.415 167.604C423.705 167.482 424.025 167.449 424.334 167.509C424.643 167.57 424.927 167.72 425.151 167.942C425.374 168.164 425.526 168.447 425.589 168.756C425.651 169.065 425.62 169.385 425.5 169.676C425.38 169.967 425.176 170.216 424.914 170.391C424.653 170.566 424.345 170.66 424.03 170.66C423.61 170.66 423.207 170.494 422.909 170.198C422.611 169.902 422.443 169.5 422.44 169.08Z" fill="white"/>
<path d="M287.64 353.79H178.75V458.23H287.64V353.79Z" fill="#6EACDA"/>
<path opacity="0.4" d="M287.64 353.79H178.75V458.23H287.64V353.79Z" fill="white"/>
<path opacity="0.7" d="M287.63 353.79H213.41V458.23H287.63V353.79Z" fill="white"/>
<path d="M283.92 359.13H217.12V372.06H283.92V359.13Z" fill="#6EACDA"/>
<path d="M283.92 375.3H217.12V388.23H283.92V375.3Z" fill="#6EACDA"/>
<path d="M283.92 391.46H217.12V404.39H283.92V391.46Z" fill="#6EACDA"/>
<path d="M283.92 407.63H217.12V420.56H283.92V407.63Z" fill="#6EACDA"/>
<path d="M283.92 423.8H217.12V436.73H283.92V423.8Z" fill="#6EACDA"/>
<path d="M283.92 439.97H217.12V452.9H283.92V439.97Z" fill="#6EACDA"/>
<path d="M209.53 359.13H182.64V372.06H209.53V359.13Z" fill="#6EACDA"/>
<path d="M209.53 375.3H182.64V388.23H209.53V375.3Z" fill="#6EACDA"/>
<path d="M209.53 391.46H182.64V404.39H209.53V391.46Z" fill="#6EACDA"/>
<path d="M209.53 407.63H182.64V420.56H209.53V407.63Z" fill="#6EACDA"/>
<path d="M209.53 423.8H182.64V436.73H209.53V423.8Z" fill="#6EACDA"/>
<path d="M209.53 439.97H182.64V452.9H209.53V439.97Z" fill="#6EACDA"/>
<path opacity="0.4" d="M197.74 361.71H185.12V369.47H197.74V361.71Z" fill="#263238"/>
<path opacity="0.4" d="M197.74 377.88H185.12V385.64H197.74V377.88Z" fill="#263238"/>
<path opacity="0.4" d="M197.74 394.05H185.12V401.81H197.74V394.05Z" fill="#263238"/>
<path opacity="0.4" d="M197.74 410.22H185.12V417.98H197.74V410.22Z" fill="#263238"/>
<path opacity="0.4" d="M197.74 426.39H185.12V434.15H197.74V426.39Z" fill="#263238"/>
<path opacity="0.4" d="M197.74 442.56H185.12V450.32H197.74V442.56Z" fill="#263238"/>
<path opacity="0.7" d="M280.65 360.81H279.09V370.38H280.65V360.81Z" fill="white"/>
<path opacity="0.7" d="M277.65 360.81H276.09V370.38H277.65V360.81Z" fill="white"/>
<path opacity="0.7" d="M274.65 360.81H273.09V370.38H274.65V360.81Z" fill="white"/>
<path opacity="0.7" d="M271.65 360.81H270.09V370.38H271.65V360.81Z" fill="white"/>
<path opacity="0.7" d="M268.65 360.81H267.09V370.38H268.65V360.81Z" fill="white"/>
<path opacity="0.7" d="M280.65 376.98H279.09V386.54H280.65V376.98Z" fill="white"/>
<path opacity="0.7" d="M277.65 376.98H276.09V386.54H277.65V376.98Z" fill="white"/>
<path opacity="0.7" d="M274.65 376.98H273.09V386.54H274.65V376.98Z" fill="white"/>
<path opacity="0.7" d="M271.65 376.98H270.09V386.54H271.65V376.98Z" fill="white"/>
<path opacity="0.7" d="M268.65 376.98H267.09V386.54H268.65V376.98Z" fill="white"/>
<path opacity="0.7" d="M280.65 393.15H279.09V402.71H280.65V393.15Z" fill="white"/>
<path opacity="0.7" d="M277.65 393.15H276.09V402.71H277.65V393.15Z" fill="white"/>
<path opacity="0.7" d="M274.65 393.15H273.09V402.71H274.65V393.15Z" fill="white"/>
<path opacity="0.7" d="M271.65 393.15H270.09V402.71H271.65V393.15Z" fill="white"/>
<path opacity="0.7" d="M268.65 393.15H267.09V402.71H268.65V393.15Z" fill="white"/>
<path opacity="0.7" d="M280.65 409.32H279.09V418.89H280.65V409.32Z" fill="white"/>
<path opacity="0.7" d="M277.65 409.32H276.09V418.89H277.65V409.32Z" fill="white"/>
<path opacity="0.7" d="M274.65 409.32H273.09V418.89H274.65V409.32Z" fill="white"/>
<path opacity="0.7" d="M271.65 409.32H270.09V418.89H271.65V409.32Z" fill="white"/>
<path opacity="0.7" d="M268.65 409.32H267.09V418.89H268.65V409.32Z" fill="white"/>
<path opacity="0.7" d="M280.65 425.49H279.09V435.05H280.65V425.49Z" fill="white"/>
<path opacity="0.7" d="M277.65 425.49H276.09V435.05H277.65V425.49Z" fill="white"/>
<path opacity="0.7" d="M274.65 425.49H273.09V435.05H274.65V425.49Z" fill="white"/>
<path opacity="0.7" d="M271.65 425.49H270.09V435.05H271.65V425.49Z" fill="white"/>
<path opacity="0.7" d="M268.65 425.49H267.09V435.05H268.65V425.49Z" fill="white"/>
<path opacity="0.7" d="M280.65 441.65H279.09V451.22H280.65V441.65Z" fill="white"/>
<path opacity="0.7" d="M277.65 441.65H276.09V451.22H277.65V441.65Z" fill="white"/>
<path opacity="0.7" d="M274.65 441.65H273.09V451.22H274.65V441.65Z" fill="white"/>
<path opacity="0.7" d="M271.65 441.65H270.09V451.22H271.65V441.65Z" fill="white"/>
<path opacity="0.7" d="M268.65 441.65H267.09V451.22H268.65V441.65Z" fill="white"/>
<path opacity="0.2" d="M224.89 365.59C224.89 365.904 224.797 366.212 224.622 366.473C224.447 366.735 224.199 366.939 223.908 367.059C223.618 367.179 223.298 367.211 222.99 367.149C222.681 367.088 222.398 366.937 222.176 366.714C221.953 366.492 221.802 366.209 221.741 365.9C221.679 365.592 221.711 365.272 221.831 364.982C221.951 364.691 222.155 364.443 222.417 364.268C222.678 364.093 222.985 364 223.3 364C223.722 364 224.126 364.168 224.424 364.466C224.722 364.764 224.89 365.168 224.89 365.59Z" fill="white"/>
<path opacity="0.2" d="M234.89 365.59C234.89 365.904 234.797 366.212 234.622 366.473C234.447 366.735 234.199 366.939 233.908 367.059C233.618 367.179 233.298 367.211 232.99 367.149C232.681 367.088 232.398 366.937 232.176 366.714C231.953 366.492 231.802 366.209 231.741 365.9C231.679 365.592 231.711 365.272 231.831 364.982C231.951 364.691 232.155 364.443 232.417 364.268C232.678 364.093 232.985 364 233.3 364C233.722 364 234.126 364.168 234.424 364.466C234.722 364.764 234.89 365.168 234.89 365.59Z" fill="white"/>
<path opacity="0.4" d="M244.89 365.59C244.89 365.904 244.797 366.212 244.622 366.473C244.447 366.735 244.199 366.939 243.908 367.059C243.618 367.179 243.298 367.211 242.99 367.149C242.681 367.088 242.398 366.937 242.176 366.714C241.953 366.492 241.802 366.209 241.741 365.9C241.679 365.592 241.711 365.272 241.831 364.982C241.951 364.691 242.155 364.443 242.417 364.268C242.678 364.093 242.985 364 243.3 364C243.722 364 244.126 364.168 244.424 364.466C244.722 364.764 244.89 365.168 244.89 365.59Z" fill="white"/>
<path opacity="0.4" d="M224.89 381.76C224.89 382.075 224.797 382.382 224.622 382.643C224.447 382.905 224.199 383.109 223.908 383.229C223.618 383.349 223.298 383.381 222.99 383.319C222.681 383.258 222.398 383.107 222.176 382.884C221.953 382.662 221.802 382.379 221.741 382.07C221.679 381.762 221.711 381.442 221.831 381.152C221.951 380.861 222.155 380.613 222.417 380.438C222.678 380.263 222.985 380.17 223.3 380.17C223.722 380.17 224.126 380.338 224.424 380.636C224.722 380.934 224.89 381.338 224.89 381.76Z" fill="white"/>
<path opacity="0.2" d="M234.89 381.76C234.89 382.075 234.797 382.382 234.622 382.643C234.447 382.905 234.199 383.109 233.908 383.229C233.618 383.349 233.298 383.381 232.99 383.319C232.681 383.258 232.398 383.107 232.176 382.884C231.953 382.662 231.802 382.379 231.741 382.07C231.679 381.762 231.711 381.442 231.831 381.152C231.951 380.861 232.155 380.613 232.417 380.438C232.678 380.263 232.985 380.17 233.3 380.17C233.722 380.17 234.126 380.338 234.424 380.636C234.722 380.934 234.89 381.338 234.89 381.76Z" fill="white"/>
<path opacity="0.4" d="M244.89 381.76C244.89 382.075 244.797 382.382 244.622 382.643C244.447 382.905 244.199 383.109 243.908 383.229C243.618 383.349 243.298 383.381 242.99 383.319C242.681 383.258 242.398 383.107 242.176 382.884C241.953 382.662 241.802 382.379 241.741 382.07C241.679 381.762 241.711 381.442 241.831 381.152C241.951 380.861 242.155 380.613 242.417 380.438C242.678 380.263 242.985 380.17 243.3 380.17C243.722 380.17 244.126 380.338 244.424 380.636C244.722 380.934 244.89 381.338 244.89 381.76Z" fill="white"/>
<path opacity="0.2" d="M224.89 397.93C224.89 398.244 224.797 398.552 224.622 398.813C224.447 399.075 224.199 399.279 223.908 399.399C223.618 399.519 223.298 399.551 222.99 399.489C222.681 399.428 222.398 399.277 222.176 399.054C221.953 398.832 221.802 398.549 221.741 398.24C221.679 397.932 221.711 397.612 221.831 397.322C221.951 397.031 222.155 396.783 222.417 396.608C222.678 396.433 222.985 396.34 223.3 396.34C223.722 396.34 224.126 396.507 224.424 396.806C224.722 397.104 224.89 397.508 224.89 397.93Z" fill="white"/>
<path opacity="0.4" d="M234.89 397.93C234.89 398.244 234.797 398.552 234.622 398.813C234.447 399.075 234.199 399.279 233.908 399.399C233.618 399.519 233.298 399.551 232.99 399.489C232.681 399.428 232.398 399.277 232.176 399.054C231.953 398.832 231.802 398.549 231.741 398.24C231.679 397.932 231.711 397.612 231.831 397.322C231.951 397.031 232.155 396.783 232.417 396.608C232.678 396.433 232.985 396.34 233.3 396.34C233.722 396.34 234.126 396.507 234.424 396.806C234.722 397.104 234.89 397.508 234.89 397.93Z" fill="white"/>
<path opacity="0.2" d="M244.89 397.93C244.89 398.244 244.797 398.552 244.622 398.813C244.447 399.075 244.199 399.279 243.908 399.399C243.618 399.519 243.298 399.551 242.99 399.489C242.681 399.428 242.398 399.277 242.176 399.054C241.953 398.832 241.802 398.549 241.741 398.24C241.679 397.932 241.711 397.612 241.831 397.322C241.951 397.031 242.155 396.783 242.417 396.608C242.678 396.433 242.985 396.34 243.3 396.34C243.722 396.34 244.126 396.507 244.424 396.806C244.722 397.104 244.89 397.508 244.89 397.93Z" fill="white"/>
<path opacity="0.4" d="M224.89 414.1C224.89 414.414 224.797 414.722 224.622 414.983C224.447 415.245 224.199 415.449 223.908 415.569C223.618 415.689 223.298 415.721 222.99 415.659C222.681 415.598 222.398 415.447 222.176 415.224C221.953 415.002 221.802 414.719 221.741 414.41C221.679 414.102 221.711 413.782 221.831 413.492C221.951 413.201 222.155 412.953 222.417 412.778C222.678 412.603 222.985 412.51 223.3 412.51C223.722 412.51 224.126 412.678 224.424 412.976C224.722 413.274 224.89 413.678 224.89 414.1Z" fill="white"/>
<path opacity="0.2" d="M234.89 414.1C234.89 414.414 234.797 414.722 234.622 414.983C234.447 415.245 234.199 415.449 233.908 415.569C233.618 415.689 233.298 415.721 232.99 415.659C232.681 415.598 232.398 415.447 232.176 415.224C231.953 415.002 231.802 414.719 231.741 414.41C231.679 414.102 231.711 413.782 231.831 413.492C231.951 413.201 232.155 412.953 232.417 412.778C232.678 412.603 232.985 412.51 233.3 412.51C233.722 412.51 234.126 412.678 234.424 412.976C234.722 413.274 234.89 413.678 234.89 414.1Z" fill="white"/>
<path opacity="0.2" d="M244.89 414.1C244.89 414.414 244.797 414.722 244.622 414.983C244.447 415.245 244.199 415.449 243.908 415.569C243.618 415.689 243.298 415.721 242.99 415.659C242.681 415.598 242.398 415.447 242.176 415.224C241.953 415.002 241.802 414.719 241.741 414.41C241.679 414.102 241.711 413.782 241.831 413.492C241.951 413.201 242.155 412.953 242.417 412.778C242.678 412.603 242.985 412.51 243.3 412.51C243.722 412.51 244.126 412.678 244.424 412.976C244.722 413.274 244.89 413.678 244.89 414.1Z" fill="white"/>
<path opacity="0.2" d="M224.89 430.27C224.89 430.584 224.797 430.892 224.622 431.153C224.447 431.415 224.199 431.619 223.908 431.739C223.618 431.859 223.298 431.891 222.99 431.829C222.681 431.768 222.398 431.617 222.176 431.394C221.953 431.172 221.802 430.889 221.741 430.58C221.679 430.272 221.711 429.952 221.831 429.662C221.951 429.371 222.155 429.123 222.417 428.948C222.678 428.773 222.985 428.68 223.3 428.68C223.722 428.68 224.126 428.848 224.424 429.146C224.722 429.444 224.89 429.848 224.89 430.27Z" fill="white"/>
<path opacity="0.4" d="M234.89 430.27C234.89 430.584 234.797 430.892 234.622 431.153C234.447 431.415 234.199 431.619 233.908 431.739C233.618 431.859 233.298 431.891 232.99 431.829C232.681 431.768 232.398 431.617 232.176 431.394C231.953 431.172 231.802 430.889 231.741 430.58C231.679 430.272 231.711 429.952 231.831 429.662C231.951 429.371 232.155 429.123 232.417 428.948C232.678 428.773 232.985 428.68 233.3 428.68C233.722 428.68 234.126 428.848 234.424 429.146C234.722 429.444 234.89 429.848 234.89 430.27Z" fill="white"/>
<path opacity="0.4" d="M244.89 430.27C244.89 430.584 244.797 430.892 244.622 431.153C244.447 431.415 244.199 431.619 243.908 431.739C243.618 431.859 243.298 431.891 242.99 431.829C242.681 431.768 242.398 431.617 242.176 431.394C241.953 431.172 241.802 430.889 241.741 430.58C241.679 430.272 241.711 429.952 241.831 429.662C241.951 429.371 242.155 429.123 242.417 428.948C242.678 428.773 242.985 428.68 243.3 428.68C243.722 428.68 244.126 428.848 244.424 429.146C244.722 429.444 244.89 429.848 244.89 430.27Z" fill="white"/>
<path opacity="0.4" d="M224.89 446.44C224.89 446.754 224.797 447.062 224.622 447.323C224.447 447.585 224.199 447.789 223.908 447.909C223.618 448.029 223.298 448.061 222.99 447.999C222.681 447.938 222.398 447.787 222.176 447.564C221.953 447.342 221.802 447.059 221.741 446.75C221.679 446.442 221.711 446.122 221.831 445.832C221.951 445.541 222.155 445.293 222.417 445.118C222.678 444.943 222.985 444.85 223.3 444.85C223.722 444.85 224.126 445.017 224.424 445.316C224.722 445.614 224.89 446.018 224.89 446.44Z" fill="white"/>
<path opacity="0.2" d="M234.89 446.44C234.89 446.754 234.797 447.062 234.622 447.323C234.447 447.585 234.199 447.789 233.908 447.909C233.618 448.029 233.298 448.061 232.99 447.999C232.681 447.938 232.398 447.787 232.176 447.564C231.953 447.342 231.802 447.059 231.741 446.75C231.679 446.442 231.711 446.122 231.831 445.832C231.951 445.541 232.155 445.293 232.417 445.118C232.678 444.943 232.985 444.85 233.3 444.85C233.722 444.85 234.126 445.017 234.424 445.316C234.722 445.614 234.89 446.018 234.89 446.44Z" fill="white"/>
<path opacity="0.4" d="M244.89 446.44C244.89 446.754 244.797 447.062 244.622 447.323C244.447 447.585 244.199 447.789 243.908 447.909C243.618 448.029 243.298 448.061 242.99 447.999C242.681 447.938 242.398 447.787 242.176 447.564C241.953 447.342 241.802 447.059 241.741 446.75C241.679 446.442 241.711 446.122 241.831 445.832C241.951 445.541 242.155 445.293 242.417 445.118C242.678 444.943 242.985 444.85 243.3 444.85C243.722 444.85 244.126 445.017 244.424 445.316C244.722 445.614 244.89 446.018 244.89 446.44Z" fill="white"/>
<path d="M447.51 261.72H445.51V353.34H447.51V261.72Z" fill="#6EACDA"/>
<path opacity="0.7" d="M388.33 407H377.13V405H388.33V407ZM365.13 407H353.13V405H365.13V407ZM341.13 407H329.13V405H341.13V407ZM317.13 407H305.13V405H317.13V407Z" fill="#6EACDA"/>
<path d="M413.67 350.07L399.24 420.85C399.081 421.625 399.129 422.428 399.38 423.178C399.63 423.928 400.073 424.599 400.666 425.123C401.258 425.647 401.978 426.006 402.753 426.164C403.528 426.321 404.33 426.272 405.08 426.02L473.59 403.12C474.34 402.872 475.011 402.43 475.536 401.84C476.061 401.249 476.421 400.531 476.579 399.757C476.737 398.983 476.688 398.181 476.438 397.431C476.187 396.682 475.743 396.013 475.15 395.49L421.07 347.6C420.479 347.074 419.759 346.714 418.984 346.555C418.209 346.396 417.406 346.444 416.656 346.695C415.905 346.945 415.234 347.389 414.71 347.982C414.186 348.574 413.827 349.295 413.67 350.07Z" fill="#6EACDA"/>
<path d="M407.73 414.75L419.1 359C419.168 358.688 419.316 358.4 419.529 358.163C419.742 357.926 420.013 357.748 420.316 357.647C420.618 357.546 420.942 357.526 421.254 357.588C421.567 357.65 421.859 357.792 422.1 358L464.69 395.71C464.931 395.923 465.112 396.197 465.214 396.502C465.316 396.808 465.336 397.135 465.271 397.45C465.206 397.766 465.059 398.059 464.844 398.299C464.63 398.54 464.356 398.719 464.05 398.82L410.1 416.82C409.798 416.919 409.476 416.938 409.165 416.874C408.854 416.811 408.565 416.668 408.326 416.459C408.087 416.251 407.906 415.983 407.802 415.684C407.697 415.384 407.672 415.062 407.73 414.75Z" fill="white"/>
<path d="M421.49 375.66L423.06 380.37L423.15 380.59L428.49 391.81C428.705 392.235 429.065 392.57 429.505 392.753C429.945 392.937 430.436 392.957 430.89 392.81L432.98 392.11C433.429 391.951 433.807 391.637 434.045 391.225C434.283 390.812 434.367 390.328 434.28 389.86L431.84 377.67L431.78 377.44L430.2 372.73C430.027 372.243 429.672 371.842 429.21 371.61C428.747 371.379 428.213 371.336 427.72 371.49L422.72 373.15C422.228 373.325 421.824 373.685 421.594 374.154C421.364 374.623 421.327 375.164 421.49 375.66Z" fill="#263238"/>
<path d="M437.36 397.47C437.581 398.134 437.6 398.849 437.415 399.524C437.23 400.199 436.849 400.804 436.32 401.263C435.791 401.721 435.138 402.013 434.443 402.1C433.749 402.188 433.044 402.067 432.418 401.754C431.792 401.441 431.272 400.949 430.926 400.341C430.579 399.733 430.42 399.036 430.47 398.338C430.519 397.64 430.775 396.972 431.204 396.418C431.633 395.865 432.216 395.452 432.88 395.23C433.321 395.081 433.787 395.021 434.252 395.054C434.716 395.086 435.17 395.21 435.586 395.418C436.002 395.626 436.373 395.915 436.678 396.267C436.982 396.619 437.214 397.028 437.36 397.47Z" fill="#263238"/>
<path d="M227.83 214.44C222.83 215.89 199.97 237.56 211.59 248.78C223.21 260 249.45 261.5 255.96 254.83C262.47 248.16 263.54 231.7 255.96 217.67C251.27 209 227.83 204.78 227.83 214.44Z" fill="#263238"/>
<path opacity="0.5" d="M227.83 214.44C222.83 215.89 199.97 237.56 211.59 248.78C223.21 260 249.45 261.5 255.96 254.83C262.47 248.16 263.54 231.7 255.96 217.67C251.27 209 227.83 204.78 227.83 214.44Z" fill="white"/>
<path d="M261.31 275.76V277.2C261.31 277.75 261.31 278.31 261.31 278.87C261.31 279.99 261.45 281.13 261.59 282.26C261.856 284.514 262.28 286.746 262.86 288.94C263.439 291.103 264.199 293.214 265.13 295.25C265.6 296.25 266.13 297.25 266.68 298.2C266.94 298.68 267.25 299.15 267.54 299.61C267.68 299.85 267.85 300.07 268.01 300.3L268.43 300.92C268.43 300.98 268.32 300.86 268.04 300.77C267.832 300.681 267.601 300.66 267.38 300.71C267.22 300.83 267.91 300.71 268.65 300.33C270.521 299.253 272.242 297.935 273.77 296.41C277.319 292.924 280.658 289.231 283.77 285.35L283.83 285.28C284.304 284.761 284.945 284.424 285.642 284.33C286.338 284.235 287.046 284.388 287.642 284.762C288.237 285.135 288.682 285.707 288.899 286.375C289.117 287.044 289.092 287.768 288.83 288.42C287.706 290.892 286.444 293.299 285.05 295.63C283.644 298.002 282.091 300.283 280.4 302.46C279.509 303.606 278.554 304.701 277.54 305.74C276.435 306.9 275.215 307.945 273.9 308.86C272.135 310.137 270.066 310.93 267.9 311.16C266.375 311.3 264.839 311.045 263.44 310.42C262.131 309.825 260.967 308.951 260.03 307.86L259.26 306.94C259.02 306.65 258.77 306.37 258.55 306.07C258.1 305.48 257.64 304.89 257.22 304.27C256.356 303.053 255.568 301.784 254.86 300.47C254.13 299.17 253.5 297.82 252.86 296.47C252.22 295.12 251.78 293.71 251.33 292.31C250.447 289.512 249.818 286.641 249.45 283.73C249.28 282.28 249.16 280.83 249.1 279.35C249.1 278.62 249.1 277.88 249.1 277.12V275.98V275.38L249.16 274.67C249.238 273.079 249.946 271.584 251.126 270.514C252.307 269.444 253.864 268.887 255.455 268.965C257.046 269.043 258.541 269.75 259.611 270.931C260.681 272.111 261.238 273.669 261.16 275.26L261.31 275.76Z" fill="#FFBE9D"/>
<path d="M299.29 282L297.2 281.16C295.81 280.606 294.257 280.624 292.88 281.21L285.05 284.51L283.05 288.13C285.94 292.74 290.99 290.37 290.99 290.37L295.91 290.73C296.371 290.765 296.833 290.669 297.241 290.454C297.65 290.238 297.99 289.911 298.22 289.51L300.52 285.51C300.697 285.204 300.806 284.864 300.839 284.512C300.872 284.16 300.829 283.806 300.712 283.472C300.595 283.139 300.408 282.835 300.162 282.581C299.917 282.326 299.619 282.128 299.29 282Z" fill="#FFBE9D"/>
<path d="M257.45 265.86C261.09 268.08 264.83 283.94 264.83 283.94L249.1 291.94C249.1 291.94 242.4 274.8 245.53 270.22C248.78 265.43 252.13 262.61 257.45 265.86Z" fill="#263238"/>
<path opacity="0.2" d="M260.49 277.79C261.211 280.543 261.19 283.438 260.43 286.18L249.1 291.93C249.1 291.93 245.19 281.93 244.74 275.16C248.76 271.21 258 270.71 260.49 277.79Z" fill="black"/>
<path d="M260 273.24C259.47 281.24 257.28 302.19 252.4 314.75C251.01 318.32 256.07 320.22 250.52 323.75L211.08 321.56C207.75 318.81 210.71 315.09 210.48 313.28C208.48 298.2 211.4 293.53 207.48 260.39C213.245 259.55 219.064 259.129 224.89 259.13C231.065 259.058 237.237 259.422 243.36 260.22C246.02 260.63 248.79 261.16 251.3 261.7C253.893 262.26 256.198 263.734 257.796 265.852C259.393 267.971 260.175 270.593 260 273.24Z" fill="#263238"/>
<path opacity="0.2" d="M209.05 276.28C211.247 277.957 212.97 280.176 214.05 282.72C215.75 286.97 211.31 295.15 209.69 297.89C209.75 292.49 209.81 286.24 209.05 276.28Z" fill="black"/>
<path d="M240.48 268C240.48 268 233.76 273.51 233.17 279.36C227.09 274.7 220.09 264.5 224.88 259.13C229.91 257.85 240.48 268 240.48 268Z" fill="#6EACDA"/>
<path d="M241.34 269.71C241.34 269.71 246.51 274.14 246.59 279.33C249.99 274.83 249.99 263.58 243.35 260.19C238.31 258.94 241.34 269.71 241.34 269.71Z" fill="#6EACDA"/>
<path d="M276.55 407.19L285.11 411.7L297.47 390.98L288.91 386.47L276.55 407.19Z" fill="#FFBE9D"/>
<path d="M286.34 409.45L281.34 399.36C281.255 399.179 281.105 399.035 280.921 398.958C280.736 398.88 280.529 398.874 280.34 398.94L271.78 401.76C271.567 401.838 271.372 401.961 271.21 402.12C271.047 402.279 270.92 402.471 270.837 402.682C270.754 402.894 270.717 403.121 270.727 403.348C270.738 403.575 270.797 403.797 270.9 404C272.71 407.49 273.76 409.08 275.96 413.52C277.32 416.25 279.15 422.21 281.02 425.98C282.89 429.75 286.73 428.1 286.28 426.36C284.28 418.57 285.7 414.59 286.52 411.23C286.668 410.634 286.605 410.005 286.34 409.45Z" fill="#263238"/>
<g opacity="0.2">
<path d="M288.9 386.48L297.47 390.99L290.09 403.35L282.18 397.74L288.9 386.48Z" fill="black"/>
</g>
<path d="M244.53 323.67C244.53 323.67 304.86 315.19 310.31 333.02C320.55 366.5 295 399.69 295 399.69L283.26 393.25C283.26 393.25 295.63 365.59 291.21 349.07C279.77 345.88 224.21 372.07 224 330.75C223.923 329.905 224.153 329.06 224.646 328.37C225.14 327.68 225.865 327.19 226.69 326.99L244.53 323.67Z" fill="#6EACDA"/>
<g opacity="0.3">
<path d="M244.53 323.67C244.53 323.67 304.86 315.19 310.31 333.02C320.55 366.5 295 399.69 295 399.69L283.26 393.25C283.26 393.25 295.63 365.59 291.21 349.07C279.77 345.88 224.21 372.07 224 330.75C223.923 329.905 224.153 329.06 224.646 328.37C225.14 327.68 225.865 327.19 226.69 326.99L244.53 323.67Z" fill="white"/>
</g>
<path d="M280.96 393.32L294.93 402.97L298.89 398.35L283.53 387.52L280.96 393.32Z" fill="#6EACDA"/>
<path d="M287.51 414.74L287.62 414.79C287.839 414.867 288.073 414.888 288.302 414.851C288.531 414.815 288.747 414.721 288.93 414.58C289.052 414.505 289.152 414.399 289.219 414.272C289.286 414.145 289.317 414.003 289.31 413.86C289.31 412.58 286.15 410.72 285.8 410.51C285.76 410.485 285.713 410.472 285.665 410.474C285.618 410.476 285.572 410.491 285.533 410.519C285.494 410.547 285.465 410.586 285.449 410.63C285.432 410.675 285.429 410.724 285.44 410.77C285.74 412 286.39 414.18 287.51 414.74ZM286.05 411.22C287.27 412 288.81 413.22 288.84 413.87C288.841 413.933 288.825 413.995 288.793 414.05C288.761 414.104 288.715 414.149 288.66 414.18C288.543 414.282 288.4 414.351 288.247 414.379C288.094 414.407 287.936 414.394 287.79 414.34C287.14 414.1 286.51 412.94 286.05 411.22Z" fill="#6EACDA"/>
<path d="M285.87 411.1C286.98 411.65 289.3 412.1 290.12 411.5C290.262 411.381 290.362 411.219 290.403 411.039C290.445 410.858 290.426 410.669 290.35 410.5C290.293 410.328 290.197 410.172 290.071 410.042C289.944 409.912 289.79 409.812 289.62 409.75C288.27 409.2 285.68 410.47 285.57 410.53C285.533 410.546 285.5 410.572 285.477 410.606C285.454 410.639 285.441 410.679 285.44 410.72C285.435 410.762 285.441 410.805 285.459 410.844C285.477 410.883 285.505 410.916 285.54 410.94C285.646 411.001 285.756 411.055 285.87 411.1ZM289.51 410.2C289.696 410.289 289.839 410.447 289.91 410.64C290.01 410.93 289.91 411.05 289.83 411.12C289.27 411.55 287.31 411.26 286.2 410.74C287.09 410.36 288.64 409.84 289.44 410.17L289.51 410.2Z" fill="#6EACDA"/>
<path d="M210.63 319.1L209.38 322.68C209.22 322.96 209.54 323.26 210.01 323.29L251.87 325.76C252.24 325.76 252.55 325.62 252.59 325.39L253.17 321.77C253.17 321.52 252.9 321.29 252.5 321.26L211.31 318.84C211.184 318.822 211.055 318.836 210.936 318.882C210.817 318.927 210.712 319.002 210.63 319.1Z" fill="#6EACDA"/>
<path d="M216 324L214.9 323.94C214.68 323.94 214.51 323.8 214.54 323.66L215.33 318.96C215.33 318.83 215.56 318.72 215.78 318.74L216.88 318.8C217.1 318.8 217.26 318.94 217.24 319.08L216.44 323.78C216.45 324 216.25 324.06 216 324Z" fill="#263238"/>
<path d="M248.75 326L247.64 325.94C247.42 325.94 247.26 325.8 247.29 325.66L248.08 320.96C248.119 320.88 248.183 320.814 248.262 320.774C248.342 320.734 248.433 320.722 248.52 320.74L249.63 320.8C249.85 320.8 250.01 320.94 249.98 321.08L249.19 325.78C249.17 325.88 249 326 248.75 326Z" fill="#263238"/>
<path d="M232.46 325L231.35 324.94C231.13 324.94 230.97 324.8 231 324.66L231.79 319.96C231.79 319.83 232.01 319.72 232.23 319.74L233.34 319.8C233.56 319.8 233.72 319.94 233.69 320.07L232.9 324.77C232.87 324.92 232.68 325 232.46 325Z" fill="#263238"/>
<path d="M227.8 240.65C228.62 246.65 229.27 255.38 224.88 259.1C230.307 262.639 235.084 267.088 239 272.25C239.169 272.468 239.388 272.642 239.638 272.758C239.889 272.873 240.163 272.927 240.439 272.914C240.714 272.901 240.983 272.823 241.221 272.684C241.46 272.546 241.662 272.353 241.81 272.12C246.89 264.12 243.34 260.19 243.34 260.19C239.47 259.33 239.94 255.89 241.34 251.34L227.8 240.65Z" fill="#FFBE9D"/>
<path d="M244.2 261.86C244.8 263.71 245 267.11 241.82 272.12C241.672 272.353 241.47 272.546 241.232 272.684C240.993 272.823 240.725 272.901 240.449 272.914C240.174 272.927 239.899 272.873 239.649 272.758C239.398 272.642 239.179 272.468 239.01 272.25C235.842 268.16 232.166 264.491 228.07 261.33C232.2 262.5 238 268.19 240.48 270.94C242.23 269.59 244.26 264.47 244.2 261.86Z" fill="white"/>
<path opacity="0.2" d="M231.54 245.28L239.06 249.51L241.38 251.34C240.64 253.223 240.3 255.239 240.38 257.26C235.47 255.86 229.84 249.32 231.54 245.28Z" fill="black"/>
<path d="M228 226.6C226.42 236.43 225.54 240.6 229.32 246.6C235.01 255.74 247.43 255.53 251.91 246.37C255.91 238.12 257.91 223.43 249.23 217.44C247.332 216.11 245.125 215.288 242.819 215.052C240.513 214.816 238.186 215.175 236.058 216.093C233.929 217.011 232.072 218.459 230.661 220.298C229.251 222.137 228.335 224.307 228 226.6Z" fill="#FFBE9D"/>
<path d="M255.75 227C254.5 221.67 255.12 212.67 245.06 213.17C235.7 213.63 230 212.23 230.06 217.6C219.72 222.66 219.06 227.9 226.33 232.85C231.85 234.17 233.26 227.85 232.63 222.65C236.63 224.98 244.24 221.65 247.81 221.75C252.42 221.92 257 232.33 255.75 227Z" fill="#263238"/>
<path opacity="0.5" d="M255.75 227C254.5 221.67 255.12 212.67 245.06 213.17C235.7 213.63 230 212.23 230.06 217.6C219.72 222.66 219.06 227.9 226.33 232.85C231.85 234.17 233.26 227.85 232.63 222.65C236.63 224.98 244.24 221.65 247.81 221.75C252.42 221.92 257 232.33 255.75 227Z" fill="white"/>
<path opacity="0.2" d="M240.35 232.13C238.912 232.142 237.5 231.743 236.28 230.98C237.684 231.169 239.055 231.556 240.35 232.13Z" fill="black"/>
<path opacity="0.2" d="M240.59 231.44C240.59 231.44 238.26 231.12 237.32 229.79C238.498 230.144 239.605 230.703 240.59 231.44Z" fill="black"/>
<path d="M242.89 232.64C242.72 233.43 242.99 234.16 243.51 234.28C244.03 234.4 244.59 233.85 244.76 233.06C244.93 232.27 244.67 231.54 244.15 231.42C243.63 231.3 243.07 231.85 242.89 232.64Z" fill="#263238"/>
<path d="M251.82 234.64C251.64 235.43 251.92 236.17 252.43 236.28C252.94 236.39 253.51 235.85 253.69 235.06C253.87 234.27 253.59 233.54 253.08 233.42C252.57 233.3 252 233.85 251.82 234.64Z" fill="#263238"/>
<path d="M252.84 233.41L254.84 233.29C254.84 233.29 253.55 234.56 252.84 233.41Z" fill="#263238"/>
<path d="M248.75 235.45C249.05 237.407 249.615 239.315 250.43 241.12C249.964 241.318 249.46 241.412 248.954 241.395C248.448 241.377 247.951 241.249 247.5 241.02L248.75 235.45Z" fill="#FFBE9D"/>
<path d="M243.47 241.53C243.077 241.455 242.68 241.408 242.28 241.39C242.226 241.401 242.178 241.431 242.143 241.473C242.108 241.516 242.089 241.57 242.089 241.625C242.089 241.68 242.108 241.734 242.143 241.776C242.178 241.819 242.226 241.849 242.28 241.86C243.288 241.887 244.274 242.15 245.162 242.628C246.049 243.105 246.812 243.784 247.39 244.61C247.422 244.663 247.472 244.703 247.532 244.719C247.592 244.736 247.656 244.729 247.71 244.7C247.763 244.665 247.8 244.613 247.817 244.552C247.834 244.491 247.828 244.427 247.8 244.37C247.304 243.632 246.665 243.001 245.922 242.513C245.178 242.026 244.345 241.691 243.47 241.53Z" fill="#263238"/>
<path d="M223.75 233.75C224.053 235.653 225.1 237.358 226.66 238.49C228.73 239.98 230.66 238.33 230.79 235.92C230.92 233.75 230.01 230.36 227.58 229.83C227.046 229.724 226.494 229.752 225.974 229.913C225.454 230.074 224.983 230.362 224.602 230.752C224.222 231.141 223.945 231.619 223.796 232.143C223.647 232.666 223.631 233.219 223.75 233.75Z" fill="#FFBE9D"/>
<path d="M242.3 225.94C242.381 225.999 242.479 226.03 242.58 226.03C242.68 226.03 242.778 225.999 242.86 225.94C244.67 224.69 247.34 225.64 247.36 225.65C247.478 225.694 247.608 225.689 247.723 225.636C247.837 225.584 247.926 225.488 247.97 225.37C248.014 225.252 248.009 225.121 247.956 225.007C247.904 224.893 247.808 224.804 247.69 224.76C247.56 224.76 244.53 223.63 242.32 225.15C242.218 225.223 242.148 225.332 242.125 225.456C242.103 225.579 242.13 225.706 242.2 225.81C242.223 225.86 242.257 225.905 242.3 225.94Z" fill="#263238"/>
<path d="M253.32 230.2C253.238 230.214 253.161 230.25 253.096 230.302C253.032 230.354 252.981 230.423 252.95 230.5C252.907 230.617 252.912 230.746 252.962 230.86C253.012 230.973 253.105 231.063 253.22 231.11C253.916 231.406 254.672 231.531 255.426 231.474C256.179 231.416 256.908 231.178 257.55 230.78C257.601 230.744 257.645 230.698 257.679 230.645C257.712 230.592 257.735 230.533 257.745 230.471C257.756 230.41 257.755 230.346 257.741 230.285C257.727 230.224 257.701 230.166 257.665 230.115C257.629 230.064 257.583 230.02 257.53 229.987C257.477 229.953 257.418 229.93 257.357 229.92C257.295 229.909 257.232 229.911 257.17 229.924C257.109 229.938 257.051 229.964 257 230C256.487 230.305 255.908 230.484 255.312 230.522C254.715 230.561 254.119 230.457 253.57 230.22C253.49 230.194 253.404 230.187 253.32 230.2Z" fill="#263238"/>
<path d="M290.02 439.92L299.24 437.01L293.22 413.65L283.99 416.56L290.02 439.92Z" fill="#FFBE9D"/>
<path d="M298.51 434.55L287.81 431C287.624 430.928 287.417 430.929 287.231 431.003C287.046 431.077 286.895 431.219 286.81 431.4L282.81 439.47C282.717 439.678 282.668 439.903 282.669 440.131C282.67 440.359 282.719 440.584 282.813 440.792C282.908 440.999 283.046 441.184 283.218 441.334C283.39 441.483 283.592 441.595 283.81 441.66C287.56 442.83 289.43 443.21 294.14 444.76C297.03 445.76 302.56 448.61 306.55 449.93C310.54 451.25 312.07 447.37 310.55 446.46C303.61 442.39 301.77 438.59 299.95 435.65C299.615 435.125 299.105 434.735 298.51 434.55Z" fill="#263238"/>
<g opacity="0.2">
<path d="M283.99 416.56L293.22 413.65L296.81 427.59L287.26 429.27L283.99 416.56Z" fill="black"/>
</g>
<path d="M230.79 322.78C230.79 322.78 286.53 326.6 287.54 345.22C289.42 380.17 297.64 421.56 297.64 421.56L284.81 425.37C284.81 425.37 268.09 383.37 265.09 356.2C254.75 350.35 204.09 370.72 209.09 324.71C209.179 323.853 209.594 323.064 210.249 322.505C210.905 321.946 211.75 321.662 212.61 321.71L230.79 322.78Z" fill="#6EACDA"/>
<g opacity="0.4">
<path d="M230.79 322.78C230.79 322.78 286.53 326.6 287.54 345.22C289.42 380.17 297.64 421.56 297.64 421.56L284.81 425.37C284.81 425.37 268.09 383.37 265.09 356.2C254.75 350.35 204.09 370.72 209.09 324.71C209.179 323.853 209.594 323.064 210.249 322.505C210.905 321.946 211.75 321.662 212.61 321.71L230.79 322.78Z" fill="white"/>
</g>
<path d="M283.26 427.02L299.95 423.89L299.45 417.82L280.95 421.11L283.26 427.02Z" fill="#6EACDA"/>
<path d="M303.09 437.44L303.2 437.39C303.41 437.294 303.592 437.145 303.727 436.957C303.862 436.769 303.946 436.55 303.97 436.32C304.005 436.179 304 436.031 303.958 435.892C303.916 435.753 303.837 435.628 303.73 435.53C302.79 434.67 299.28 435.58 298.88 435.68C298.835 435.692 298.794 435.718 298.764 435.753C298.733 435.789 298.715 435.833 298.71 435.88C298.704 435.926 298.711 435.973 298.731 436.016C298.75 436.058 298.781 436.094 298.82 436.12C299.92 436.79 301.91 437.84 303.09 437.44ZM299.57 436C300.98 435.68 302.92 435.43 303.41 435.88C303.456 435.924 303.49 435.98 303.507 436.041C303.525 436.103 303.526 436.168 303.51 436.23C303.497 436.384 303.444 436.533 303.356 436.661C303.268 436.789 303.149 436.892 303.01 436.96C302.38 437.25 301.12 436.88 299.57 436Z" fill="#6EACDA"/>
<path d="M299.35 436.05C300.53 435.64 302.5 434.33 302.62 433.3C302.642 433.113 302.6 432.923 302.5 432.763C302.4 432.603 302.248 432.482 302.07 432.42C301.913 432.351 301.742 432.315 301.57 432.315C301.398 432.315 301.228 432.351 301.07 432.42C299.73 432.99 298.81 435.73 298.77 435.85C298.756 435.889 298.753 435.932 298.762 435.972C298.771 436.013 298.791 436.05 298.82 436.08C298.848 436.11 298.882 436.133 298.92 436.147C298.959 436.161 299 436.166 299.04 436.16C299.145 436.128 299.249 436.092 299.35 436.05ZM301.27 432.82C301.365 432.78 301.467 432.76 301.57 432.76C301.673 432.76 301.775 432.78 301.87 432.82C302.14 432.95 302.16 433.1 302.15 433.22C302.07 433.91 300.47 435.1 299.33 435.52C299.68 434.63 300.41 433.16 301.2 432.82H301.27Z" fill="#6EACDA"/>
<path d="M243.91 231.41L245.91 231.29C245.91 231.29 244.63 232.56 243.91 231.41Z" fill="#263238"/>
<path d="M212.71 275.08C211.71 278.01 210.71 281.14 209.78 284.21C208.85 287.28 207.96 290.4 207.1 293.5C206.24 296.6 205.5 299.72 204.79 302.83C204.08 305.94 203.5 309.05 203.04 312.15C202.676 315.099 202.579 318.074 202.75 321.04C202.9 324.19 203.11 327.41 203.44 330.64C204.07 337.09 204.86 343.64 205.68 350.14V350.19C205.745 350.911 205.546 351.632 205.122 352.218C204.697 352.805 204.074 353.218 203.369 353.381C202.663 353.544 201.922 353.447 201.283 353.107C200.644 352.766 200.149 352.206 199.89 351.53C197.724 345.137 195.921 338.627 194.49 332.03C193.79 328.72 193.14 325.36 192.7 321.92C192.163 318.296 192.008 314.626 192.24 310.97C192.826 304.102 193.936 297.289 195.56 290.59C196.34 287.257 197.217 283.97 198.19 280.73C199.19 277.46 200.19 274.28 201.42 270.97C201.683 270.227 202.089 269.542 202.616 268.956C203.143 268.37 203.781 267.893 204.492 267.554C205.203 267.214 205.975 267.017 206.762 266.975C207.549 266.934 208.337 267.047 209.08 267.31C209.823 267.573 210.508 267.979 211.094 268.506C211.68 269.033 212.157 269.671 212.497 270.382C212.836 271.093 213.033 271.865 213.075 272.652C213.116 273.439 213.003 274.227 212.74 274.97L212.71 275.08Z" fill="#FFBE9D"/>
<path d="M207.47 260.36C203.32 261.36 197.6 275.11 197.6 275.11L210.43 286.74C210.43 286.74 219.2 276 217.8 270.6C216.34 265 212.2 259.22 207.47 260.36Z" fill="#263238"/>
<path d="M214.59 357.39L214.54 357.11C214.377 356.163 213.996 355.267 213.429 354.492C212.862 353.716 212.123 353.082 211.27 352.64L204.39 349.07L200.32 349.83C199.56 353.93 204.58 357.96 204.58 357.96L205.68 360.28C206.045 361.061 206.687 361.678 207.482 362.012C208.276 362.347 209.166 362.374 209.98 362.09L212.31 361.27C213.086 360.995 213.739 360.455 214.156 359.745C214.573 359.035 214.727 358.202 214.59 357.39Z" fill="#FFBE9D"/>
<path d="M282.31 288.2C283.14 289.08 284.93 288.75 286.31 287.45C287.69 286.15 288.12 284.39 287.31 283.51C286.5 282.63 284.69 282.97 283.31 284.26C281.93 285.55 281.47 287.32 282.31 288.2Z" fill="#6EACDA"/>
<path d="M287.66 292H287.51C287.33 292 283.11 291.28 284.05 284.42C284.068 284.289 284.111 284.162 284.178 284.048C284.244 283.933 284.333 283.833 284.438 283.752C284.544 283.672 284.664 283.613 284.792 283.579C284.92 283.546 285.054 283.537 285.185 283.555C285.316 283.573 285.443 283.616 285.557 283.683C285.672 283.749 285.772 283.838 285.853 283.943C285.933 284.049 285.992 284.169 286.026 284.297C286.059 284.425 286.068 284.559 286.05 284.69C285.38 289.53 287.78 290.02 287.81 290.02C288.071 290.06 288.305 290.2 288.463 290.412C288.62 290.624 288.687 290.889 288.65 291.15C288.614 291.387 288.494 291.603 288.313 291.759C288.131 291.915 287.899 292 287.66 292Z" fill="#6EACDA"/>
<path d="M282.68 287.24C283.17 287.76 284.4 287.4 285.41 286.44C286.42 285.48 286.86 284.28 286.41 283.76C285.96 283.24 284.69 283.59 283.68 284.55C282.67 285.51 282.19 286.71 282.68 287.24Z" fill="white"/>
<path d="M118.34 117.38H137.34V123.75H124.45L123.77 128.06C124.614 127.662 125.495 127.347 126.4 127.12C127.252 126.918 128.124 126.814 129 126.81C130.282 126.757 131.561 126.96 132.763 127.409C133.966 127.857 135.066 128.541 136 129.42C136.879 130.27 137.57 131.294 138.028 132.428C138.486 133.561 138.701 134.778 138.66 136C138.657 137.871 138.182 139.711 137.28 141.35C136.398 143.022 135.032 144.388 133.36 145.27C131.336 146.243 129.104 146.706 126.86 146.62C125.221 146.647 123.585 146.469 121.99 146.09C120.748 145.779 119.576 145.233 118.54 144.48C117.64 143.812 116.862 142.993 116.24 142.06C115.587 141.015 115.092 139.879 114.77 138.69L122.85 137.81C122.955 138.918 123.439 139.957 124.22 140.75C124.561 141.078 124.964 141.335 125.405 141.507C125.846 141.678 126.317 141.761 126.79 141.75C127.314 141.76 127.833 141.653 128.309 141.434C128.785 141.216 129.206 140.893 129.54 140.49C130.341 139.403 130.727 138.066 130.63 136.72C130.742 135.371 130.35 134.028 129.53 132.95C129.157 132.554 128.703 132.243 128.199 132.038C127.696 131.833 127.154 131.738 126.61 131.76C125.831 131.761 125.064 131.957 124.38 132.33C123.704 132.714 123.104 133.219 122.61 133.82L115.81 132.82L118.34 117.38Z" fill="#263238"/>
<path d="M141.88 131.63C141.88 126.17 142.88 122.35 144.88 120.17C146.88 117.99 149.88 116.897 153.88 116.89C155.497 116.84 157.11 117.084 158.64 117.61C159.754 118.024 160.774 118.656 161.64 119.47C162.374 120.176 162.998 120.988 163.49 121.88C163.981 122.829 164.347 123.837 164.58 124.88C165.122 127.072 165.391 129.322 165.38 131.58C165.38 136.8 164.5 140.617 162.74 143.03C160.98 145.443 157.933 146.633 153.6 146.6C151.583 146.686 149.575 146.292 147.74 145.45C146.235 144.669 144.967 143.498 144.07 142.06C143.274 140.722 142.726 139.252 142.45 137.72C142.054 135.715 141.863 133.674 141.88 131.63ZM149.79 131.63C149.79 135.29 150.12 137.79 150.79 139.13C151.004 139.709 151.387 140.21 151.89 140.566C152.394 140.923 152.993 141.12 153.61 141.13C154 141.134 154.386 141.06 154.747 140.912C155.108 140.765 155.435 140.546 155.71 140.27C156.385 139.525 156.833 138.602 157 137.61C157.335 135.716 157.475 133.793 157.42 131.87C157.42 128.05 157.09 125.49 156.42 124.17C156.195 123.581 155.796 123.074 155.276 122.717C154.757 122.36 154.141 122.169 153.51 122.17C152.882 122.161 152.268 122.35 151.753 122.708C151.238 123.067 150.849 123.578 150.64 124.17C150.09 125.55 149.79 128 149.79 131.65V131.63Z" fill="#263238"/>
<path d="M182.37 140.74H167.82V134.18L182.37 116.89H189.32V134.55H192.93V140.74H189.32V146.11H182.37V140.74ZM182.37 134.55V125.55L174.68 134.55H182.37Z" fill="#263238"/>
<path d="M210.08 117.38H233.87V123.52H219V128.08H232.82V133.94H219V139.61H234.3V146.11H210.08V117.38Z" fill="#263238"/>
<path d="M238.63 125.3H246.1V128.71C246.603 127.554 247.362 126.529 248.32 125.71C249.151 125.139 250.142 124.849 251.15 124.88C252.509 124.931 253.837 125.308 255.02 125.98L252.55 131.66C251.846 131.327 251.086 131.127 250.31 131.07C249.827 131.057 249.349 131.17 248.922 131.398C248.496 131.626 248.137 131.961 247.88 132.37C247.06 133.58 246.65 135.86 246.65 139.19V146.19H238.65L238.63 125.3Z" fill="#263238"/>
<path d="M258.13 125.3H265.6V128.71C266.103 127.554 266.862 126.529 267.82 125.71C268.651 125.139 269.642 124.849 270.65 124.88C272.009 124.931 273.337 125.308 274.52 125.98L272.05 131.66C271.346 131.327 270.586 131.127 269.81 131.07C269.327 131.057 268.849 131.17 268.422 131.398C267.996 131.626 267.637 131.961 267.38 132.37C266.56 133.58 266.15 135.86 266.15 139.19V146.19H258.15L258.13 125.3Z" fill="#263238"/>
<path d="M275.53 135.77C275.487 134.309 275.751 132.855 276.306 131.503C276.86 130.15 277.693 128.93 278.75 127.92C279.922 126.858 281.292 126.039 282.782 125.509C284.271 124.978 285.851 124.748 287.43 124.83C291.597 124.83 294.747 126.04 296.88 128.46C298.637 130.611 299.545 133.332 299.431 136.108C299.316 138.883 298.188 141.521 296.26 143.52C294.14 145.56 291.203 146.58 287.45 146.58C284.531 146.722 281.656 145.822 279.34 144.04C278.109 143.049 277.125 141.787 276.464 140.352C275.803 138.917 275.483 137.349 275.53 135.77ZM283.53 135.77C283.416 137.23 283.816 138.684 284.66 139.88C285.005 140.295 285.438 140.63 285.927 140.859C286.416 141.089 286.95 141.208 287.49 141.208C288.03 141.208 288.564 141.089 289.053 140.859C289.542 140.63 289.975 140.295 290.32 139.88C291.165 138.647 291.557 137.159 291.43 135.67C291.535 134.247 291.139 132.832 290.31 131.67C289.982 131.253 289.562 130.917 289.084 130.688C288.605 130.459 288.08 130.344 287.55 130.35C286.999 130.338 286.453 130.453 285.954 130.685C285.455 130.917 285.016 131.261 284.67 131.69C283.829 132.869 283.426 134.305 283.53 135.75V135.77Z" fill="#263238"/>
<path d="M303.36 125.3H310.83V128.71C311.333 127.554 312.092 126.529 313.05 125.71C313.884 125.138 314.879 124.847 315.89 124.88C317.246 124.932 318.57 125.309 319.75 125.98L317.28 131.66C316.568 131.298 315.795 131.075 315 131C314.517 130.987 314.039 131.1 313.612 131.328C313.186 131.556 312.827 131.891 312.57 132.3C311.75 133.51 311.34 135.79 311.34 139.12V146.12H303.34L303.36 125.3Z" fill="#263238"/>
<path d="M125.7 169.77V167.28H134.7V175.17C133.412 176.215 131.968 177.052 130.42 177.65C128.974 178.206 127.439 178.49 125.89 178.49C123.913 178.514 121.959 178.054 120.2 177.15C118.538 176.29 117.185 174.934 116.33 173.27C115.447 171.509 115.001 169.56 115.03 167.59C115.015 165.586 115.46 163.605 116.33 161.8C117.111 160.1 118.419 158.697 120.06 157.8C121.796 156.906 123.728 156.459 125.68 156.5C127.105 156.481 128.521 156.736 129.85 157.25C130.99 157.673 131.998 158.39 132.77 159.33C133.541 160.367 134.089 161.551 134.38 162.81L131.84 163.51C131.6 162.592 131.197 161.725 130.65 160.95C130.125 160.29 129.435 159.779 128.65 159.47C127.722 159.084 126.725 158.894 125.72 158.91C124.58 158.882 123.445 159.079 122.38 159.49C121.517 159.823 120.736 160.338 120.09 161C119.53 161.621 119.078 162.331 118.75 163.1C118.202 164.46 117.927 165.914 117.94 167.38C117.893 169.023 118.236 170.654 118.94 172.14C119.544 173.378 120.538 174.383 121.77 175C123.012 175.621 124.382 175.939 125.77 175.93C126.994 175.926 128.205 175.688 129.34 175.23C130.305 174.884 131.205 174.377 132 173.73V169.73L125.7 169.77Z" fill="#6EACDA"/>
<path d="M148.57 176.21C147.751 176.964 146.807 177.57 145.78 178C144.858 178.337 143.882 178.507 142.9 178.5C141.49 178.594 140.097 178.151 139 177.26C138.555 176.863 138.203 176.374 137.968 175.826C137.733 175.278 137.621 174.686 137.64 174.09C137.632 173.371 137.808 172.662 138.15 172.03C138.471 171.427 138.934 170.912 139.5 170.53C140.075 170.14 140.71 169.85 141.38 169.67C142.144 169.486 142.919 169.355 143.7 169.28C145.277 169.138 146.835 168.836 148.35 168.38C148.35 168.02 148.35 167.79 148.35 167.7C148.394 167.294 148.35 166.883 148.222 166.495C148.095 166.107 147.886 165.751 147.61 165.45C146.754 164.793 145.686 164.476 144.61 164.56C143.658 164.489 142.708 164.716 141.89 165.21C141.207 165.798 140.748 166.603 140.59 167.49L138.04 167.15C138.21 166.19 138.6 165.283 139.18 164.5C139.788 163.775 140.589 163.238 141.49 162.95C142.612 162.562 143.794 162.376 144.98 162.4C146.07 162.366 147.156 162.525 148.19 162.87C148.898 163.078 149.539 163.468 150.05 164C150.462 164.514 150.74 165.122 150.86 165.77C150.971 166.568 151.014 167.374 150.99 168.18V171.66C150.951 173.195 151.008 174.732 151.16 176.26C151.272 176.91 151.495 177.536 151.82 178.11H149.09C148.805 177.513 148.629 176.869 148.57 176.21ZM148.35 170.38C146.974 170.879 145.545 171.215 144.09 171.38C143.313 171.468 142.549 171.643 141.81 171.9C141.404 172.085 141.058 172.379 140.81 172.75C140.572 173.119 140.447 173.55 140.45 173.99C140.443 174.321 140.51 174.649 140.647 174.95C140.783 175.252 140.986 175.518 141.24 175.73C141.901 176.241 142.727 176.49 143.56 176.43C144.496 176.446 145.419 176.218 146.24 175.77C146.975 175.371 147.566 174.752 147.93 174C148.253 173.169 148.396 172.28 148.35 171.39V170.38Z" fill="#6EACDA"/>
<path d="M160.74 175.78L161.12 178.08C160.464 178.231 159.793 178.311 159.12 178.32C158.36 178.36 157.603 178.205 156.92 177.87C156.435 177.607 156.049 177.192 155.82 176.69C155.544 175.685 155.436 174.641 155.5 173.6V164.74H153.6V162.74H155.52V158.9L158.11 157.33V162.71H160.74V164.71H158.11V173.71C158.081 174.191 158.128 174.674 158.25 175.14C158.336 175.357 158.495 175.538 158.7 175.65C158.974 175.793 159.282 175.858 159.59 175.84C159.974 175.847 160.359 175.827 160.74 175.78Z" fill="#6EACDA"/>
<path d="M173.84 173.15L176.53 173.49C176.185 174.946 175.352 176.241 174.17 177.16C172.686 178.132 170.921 178.583 169.152 178.441C167.383 178.3 165.712 177.575 164.4 176.38C162.992 174.772 162.273 172.674 162.4 170.54C162.272 168.357 162.989 166.209 164.4 164.54C165.063 163.831 165.871 163.273 166.768 162.902C167.664 162.531 168.63 162.357 169.6 162.39C170.536 162.363 171.467 162.538 172.33 162.902C173.192 163.266 173.967 163.811 174.6 164.5C176.008 166.136 176.726 168.255 176.6 170.41C176.6 170.57 176.6 170.8 176.6 171.11H165.12C165.123 172.537 165.633 173.916 166.56 175C166.972 175.439 167.471 175.787 168.026 176.019C168.581 176.252 169.179 176.365 169.78 176.35C170.658 176.373 171.519 176.105 172.23 175.59C172.998 174.955 173.559 174.106 173.84 173.15ZM165.27 168.93H173.87C173.835 167.882 173.486 166.869 172.87 166.02C172.485 165.536 171.993 165.147 171.433 164.885C170.872 164.623 170.259 164.495 169.64 164.51C169.086 164.5 168.535 164.602 168.019 164.808C167.504 165.014 167.035 165.32 166.64 165.71C165.79 166.569 165.3 167.721 165.27 168.93Z" fill="#6EACDA"/>
<path d="M182.66 178.11L177.94 162.71H180.64L183.09 171.6L184 174.91C184 174.75 184.31 173.69 184.8 171.73L187.25 162.73H189.94L192.24 171.67L193.01 174.61L193.9 171.61L196.54 162.7H199.07L194.26 178.1H191.55L189.09 168.88L188.5 166.25L185.38 178.1L182.66 178.11Z" fill="#6EACDA"/>
<path d="M211.31 176.21C210.49 176.952 209.545 177.544 208.52 177.96C207.598 178.297 206.622 178.467 205.64 178.46C204.23 178.554 202.837 178.111 201.74 177.22C201.295 176.823 200.943 176.334 200.708 175.786C200.473 175.238 200.361 174.646 200.38 174.05C200.372 173.331 200.547 172.622 200.89 171.99C201.214 171.389 201.677 170.875 202.24 170.49C202.814 170.1 203.45 169.81 204.12 169.63C204.883 169.447 205.659 169.316 206.44 169.24C208.02 169.097 209.581 168.795 211.1 168.34C211.1 167.98 211.1 167.75 211.1 167.66C211.143 167.254 211.1 166.843 210.972 166.455C210.844 166.067 210.636 165.711 210.36 165.41C209.504 164.753 208.436 164.436 207.36 164.52C206.408 164.449 205.457 164.676 204.64 165.17C203.957 165.757 203.498 166.563 203.34 167.45L200.79 167.11C200.959 166.15 201.35 165.243 201.93 164.46C202.538 163.735 203.339 163.198 204.24 162.91C205.362 162.523 206.543 162.337 207.73 162.36C208.819 162.326 209.906 162.485 210.94 162.83C211.635 163.055 212.259 163.458 212.75 164C213.162 164.515 213.443 165.122 213.57 165.77C213.675 166.569 213.719 167.375 213.7 168.18V171.66C213.659 173.195 213.713 174.731 213.86 176.26C213.971 176.91 214.195 177.536 214.52 178.11H211.8C211.521 177.512 211.355 176.868 211.31 176.21ZM211.1 170.38C209.72 170.878 208.287 171.213 206.83 171.38C206.053 171.468 205.288 171.643 204.55 171.9C204.142 172.081 203.795 172.376 203.55 172.75C203.304 173.116 203.175 173.549 203.18 173.99C203.175 174.32 203.243 174.648 203.379 174.949C203.516 175.25 203.718 175.517 203.97 175.73C204.631 176.241 205.457 176.49 206.29 176.43C207.226 176.447 208.149 176.219 208.97 175.77C209.722 175.363 210.327 174.73 210.7 173.96C211.023 173.129 211.166 172.24 211.12 171.35L211.1 170.38Z" fill="#6EACDA"/>
<path d="M217.67 184.05L217.38 181.59C217.864 181.737 218.365 181.818 218.87 181.83C219.35 181.85 219.828 181.75 220.26 181.54C220.611 181.343 220.907 181.061 221.12 180.72C221.438 180.096 221.706 179.447 221.92 178.78C221.92 178.64 222.04 178.42 222.15 178.14L216.3 162.71H219.12L222.32 171.63C222.74 172.76 223.11 173.95 223.44 175.2C223.738 174.013 224.095 172.841 224.51 171.69L227.8 162.69H230.41L224.56 178.36C224.143 179.553 223.652 180.718 223.09 181.85C222.72 182.599 222.175 183.247 221.5 183.74C220.861 184.154 220.112 184.367 219.35 184.35C218.778 184.341 218.21 184.24 217.67 184.05Z" fill="#6EACDA"/>
<path d="M246.59 175.78L246.96 178.08C246.304 178.232 245.633 178.313 244.96 178.32C244.2 178.361 243.442 178.206 242.76 177.87C242.272 177.607 241.883 177.193 241.65 176.69C241.379 175.684 241.274 174.64 241.34 173.6V164.74H239.42V162.74H241.34V158.9L243.93 157.33V162.71H246.56V164.71H244V173.71C243.971 174.191 244.018 174.674 244.14 175.14C244.226 175.357 244.385 175.538 244.59 175.65C244.863 175.794 245.171 175.86 245.48 175.84C245.851 175.845 246.222 175.825 246.59 175.78Z" fill="#6EACDA"/>
<path d="M249.15 159.85V156.85H251.76V159.85H249.15ZM249.15 178.11V162.71H251.76V178.11H249.15Z" fill="#6EACDA"/>
<path d="M255.74 178.11V162.71H258.07V164.87C258.559 164.118 259.221 163.494 260 163.05C260.836 162.581 261.782 162.343 262.74 162.36C263.726 162.321 264.702 162.567 265.55 163.07C266.275 163.543 266.818 164.248 267.09 165.07C267.582 164.246 268.279 163.565 269.114 163.091C269.948 162.618 270.891 162.369 271.85 162.37C272.494 162.33 273.139 162.423 273.746 162.641C274.353 162.859 274.909 163.199 275.38 163.64C276.284 164.733 276.726 166.136 276.61 167.55V178.12H274V168.42C274.037 167.661 273.953 166.902 273.75 166.17C273.576 165.708 273.252 165.317 272.83 165.06C272.358 164.773 271.813 164.627 271.26 164.64C270.76 164.626 270.263 164.715 269.798 164.9C269.334 165.086 268.913 165.365 268.56 165.72C267.764 166.688 267.379 167.931 267.49 169.18V178.12H264.88V168.12C264.946 167.204 264.722 166.291 264.24 165.51C263.99 165.205 263.668 164.966 263.304 164.814C262.939 164.663 262.543 164.603 262.15 164.64C261.442 164.64 260.749 164.841 260.15 165.22C259.516 165.61 259.036 166.207 258.79 166.91C258.468 167.952 258.326 169.041 258.37 170.13V178.13L255.74 178.11Z" fill="#6EACDA"/>
<path d="M291 173.15L293.7 173.49C293.355 174.946 292.522 176.241 291.34 177.16C289.856 178.132 288.09 178.583 286.322 178.441C284.553 178.3 282.882 177.575 281.57 176.38C280.162 174.772 279.443 172.674 279.57 170.54C279.442 168.357 280.158 166.209 281.57 164.54C282.232 163.833 283.038 163.275 283.933 162.904C284.828 162.533 285.792 162.358 286.76 162.39C287.696 162.365 288.626 162.54 289.489 162.904C290.351 163.268 291.126 163.812 291.76 164.5C293.168 166.136 293.885 168.255 293.76 170.41C293.76 170.57 293.76 170.8 293.76 171.11H282.31C282.301 172.537 282.809 173.919 283.74 175C284.152 175.439 284.652 175.786 285.206 176.018C285.761 176.251 286.359 176.364 286.96 176.35C287.838 176.373 288.699 176.105 289.41 175.59C290.175 174.957 290.73 174.106 291 173.15ZM282.43 168.93H291.03C290.999 167.881 290.65 166.867 290.03 166.02C289.644 165.534 289.151 165.145 288.588 164.883C288.026 164.621 287.41 164.493 286.79 164.51C286.235 164.499 285.684 164.6 285.169 164.806C284.653 165.012 284.185 165.32 283.79 165.71C282.955 166.577 282.476 167.726 282.45 168.93H282.43Z" fill="#6EACDA"/>
<path d="M296 170.41C296 167.563 296.793 165.453 298.38 164.08C299.723 162.924 301.449 162.311 303.22 162.36C304.182 162.327 305.141 162.494 306.034 162.852C306.928 163.211 307.737 163.751 308.41 164.44C309.107 165.22 309.643 166.131 309.987 167.12C310.33 168.108 310.474 169.155 310.41 170.2C310.485 171.805 310.18 173.405 309.52 174.87C308.938 175.993 308.032 176.916 306.92 177.52C305.782 178.149 304.5 178.473 303.2 178.46C302.232 178.5 301.266 178.336 300.366 177.979C299.465 177.623 298.649 177.081 297.97 176.39C296.553 174.733 295.845 172.585 296 170.41ZM298.68 170.41C298.559 171.994 299.017 173.569 299.97 174.84C300.374 175.304 300.872 175.676 301.432 175.932C301.992 176.187 302.6 176.319 303.215 176.319C303.83 176.319 304.438 176.187 304.998 175.932C305.558 175.676 306.056 175.304 306.46 174.84C307.417 173.54 307.875 171.939 307.75 170.33C307.86 168.776 307.397 167.236 306.45 166C306.046 165.537 305.548 165.167 304.99 164.913C304.431 164.659 303.824 164.527 303.21 164.527C302.596 164.527 301.989 164.659 301.431 164.913C300.872 165.167 300.374 165.537 299.97 166C299.031 167.269 298.583 168.836 298.71 170.41H298.68Z" fill="#6EACDA"/>
<path d="M323.61 178.11V175.85C323.09 176.668 322.368 177.339 321.513 177.796C320.658 178.253 319.7 178.482 318.73 178.46C317.853 178.468 316.984 178.291 316.18 177.94C315.492 177.665 314.888 177.213 314.43 176.63C314.022 176.05 313.746 175.388 313.62 174.69C313.49 173.884 313.436 173.067 313.46 172.25V162.71H316.07V171.25C316.043 172.173 316.096 173.096 316.23 174.01C316.357 174.653 316.712 175.229 317.23 175.63C317.814 176.04 318.518 176.244 319.23 176.21C320.004 176.213 320.765 176.005 321.43 175.61C322.091 175.248 322.607 174.669 322.89 173.97C323.221 173.006 323.367 171.988 323.32 170.97V162.72H326V178.12L323.61 178.11Z" fill="#6EACDA"/>
<path d="M335.74 175.78L336.12 178.08C335.464 178.231 334.793 178.311 334.12 178.32C333.36 178.36 332.603 178.205 331.92 177.87C331.435 177.607 331.049 177.192 330.82 176.69C330.539 175.686 330.431 174.641 330.5 173.6V164.74H328.6V162.74H330.52V158.9L333.11 157.33V162.71H335.74V164.71H333.11V173.71C333.081 174.191 333.128 174.674 333.25 175.14C333.336 175.357 333.495 175.538 333.7 175.65C333.974 175.793 334.282 175.858 334.59 175.84C334.974 175.847 335.359 175.827 335.74 175.78Z" fill="#6EACDA"/>
<path d="M428.912 485.395C478.995 485.395 519.595 473.963 519.595 459.862C519.595 445.761 478.995 434.329 428.912 434.329C378.829 434.329 338.229 445.761 338.229 459.862C338.229 473.963 378.829 485.395 428.912 485.395Z" fill="#263238" stroke="#263238" stroke-width="1.193" stroke-linecap="round" stroke-linejoin="round"/>
<path d="M428.912 446.07C471.804 446.07 507.726 454.414 517.158 465.726C518.647 464.09 519.507 462.022 519.595 459.862C519.595 445.748 478.988 434.317 428.912 434.317C378.835 434.317 338.216 445.748 338.216 459.862C338.304 462.022 339.163 464.09 340.652 465.726C350.085 454.462 386.007 446.07 428.912 446.07Z" fill="white" stroke="#263238" stroke-width="1.193" stroke-linecap="round" stroke-linejoin="round"/>
<path d="M416.527 482.188C386.233 480.889 363.374 475.036 363.374 467.884C363.389 467.103 363.647 466.345 364.115 465.703" stroke="white" stroke-width="1.193" stroke-linecap="round" stroke-linejoin="round"/>
<path d="M486.826 460.923C492.013 463.009 494.977 465.393 494.977 467.932C494.977 475.954 465.512 482.45 429.175 482.45H427.605" stroke="white" stroke-width="1.193" stroke-linecap="round" stroke-linejoin="round"/>
<path d="M372.229 460.648C383.62 456.322 404.885 453.401 429.176 453.401C442.998 453.3 456.802 454.373 470.423 456.608" stroke="white" stroke-width="1.193" stroke-linecap="round" stroke-linejoin="round"/>
<path d="M415.661 472.914C407.987 471.901 402.85 470.053 402.85 467.932C402.85 464.725 414.643 462.127 429.226 462.127C443.808 462.127 455.539 464.725 455.539 467.932C455.539 470.685 446.872 472.986 435.242 473.582" stroke="white" stroke-width="1.193" stroke-linecap="round" stroke-linejoin="round"/>
<path d="M64.709 357.219C104.26 346.55 187.483 325.499 233.415 323.914C295.16 321.84 399.408 364.371 464.494 371.821C529.58 379.271 573.314 377.149 573.314 377.149" stroke="#263238" stroke-width="1.193" stroke-linecap="round" stroke-linejoin="round"/>
<path d="M42.7041 363.31C42.7041 363.31 46.1204 362.32 52.1115 360.663" stroke="#263238" stroke-width="1.193" stroke-linecap="round" stroke-linejoin="round"/>
<path d="M555.742 296.951C532.944 292.198 509.619 290.105 486.286 290.717C438.03 292.255 385.805 298.31 321.235 306.213C256.664 314.116 164.712 270.453 102.188 286.652C39.6644 302.851 44.4121 307.727 44.4121 307.727" stroke="#263238" stroke-width="1.193" stroke-linecap="round" stroke-linejoin="round"/>
<path d="M573.527 301.338C573.527 301.338 571.091 300.575 566.682 299.466" stroke="#263238" stroke-width="1.193" stroke-linecap="round" stroke-linejoin="round"/>
<path d="M457.749 188.753C457.054 186.074 455.433 183.693 453.145 181.992C450.857 180.29 448.033 179.365 445.126 179.365C442.219 179.365 439.396 180.29 437.108 181.992C434.819 183.693 433.198 186.074 432.503 188.753H457.749Z" stroke="#263238" stroke-width="1.193" stroke-linecap="round" stroke-linejoin="round"/>
<path d="M585.296 188.753C584.533 185.7 582.797 182.944 580.325 180.86C577.853 178.776 574.765 177.466 571.48 177.107C572.513 171.929 572.327 166.598 570.936 161.496C569.544 156.394 566.982 151.647 563.432 147.595C559.882 143.542 555.432 140.284 550.401 138.055C545.369 135.825 539.881 134.678 534.328 134.696C525.46 134.696 516.875 137.657 510.076 143.059C503.277 148.461 498.697 155.961 497.137 164.246C493.572 161.599 489.294 159.958 484.792 159.508C480.29 159.059 475.746 159.82 471.678 161.704C467.61 163.588 464.182 166.52 461.786 170.165C459.389 173.81 458.121 178.02 458.126 182.316C458.133 184.504 458.467 186.679 459.118 188.777L585.296 188.753Z" stroke="#263238" stroke-width="1.193" stroke-linecap="round" stroke-linejoin="round"/>
<path d="M233.076 217.528C232.73 216.161 231.909 214.945 230.746 214.074C229.583 213.204 228.145 212.731 226.664 212.731C225.183 212.731 223.745 213.204 222.581 214.074C221.418 214.945 220.598 216.161 220.252 217.528H233.076Z" stroke="#263238" stroke-width="1.193" stroke-linecap="round" stroke-linejoin="round"/>
<path d="M297.823 217.528C297.441 215.97 296.562 214.561 295.305 213.494C294.049 212.427 292.476 211.755 290.802 211.568C291.406 209.163 291.488 206.667 291.042 204.231C290.596 201.796 289.632 199.472 288.209 197.401C286.786 195.33 284.933 193.557 282.764 192.188C280.595 190.819 278.155 189.884 275.592 189.44C273.03 188.996 270.399 189.052 267.859 189.604C265.32 190.157 262.927 191.194 260.824 192.653C258.721 194.113 256.954 195.963 255.63 198.092C254.306 200.221 253.452 202.584 253.122 205.036C251.312 203.693 249.14 202.861 246.856 202.632C244.571 202.404 242.265 202.79 240.2 203.746C238.135 204.701 236.395 206.188 235.177 208.037C233.96 209.886 233.314 212.022 233.314 214.202C233.32 215.316 233.489 216.423 233.817 217.492L297.823 217.528Z" stroke="#263238" stroke-width="1.193" stroke-linecap="round" stroke-linejoin="round"/>
<path d="M291.304 236.767C291.087 235.904 290.57 235.135 289.837 234.585C289.103 234.034 288.195 233.735 287.26 233.735C286.324 233.735 285.417 234.034 284.683 234.585C283.949 235.135 283.432 235.904 283.215 236.767H291.304Z" stroke="#263238" stroke-width="1.193" stroke-linecap="round" stroke-linejoin="round"/>
<path d="M332.174 236.767C331.93 235.787 331.373 234.903 330.579 234.236C329.786 233.568 328.794 233.149 327.74 233.036C327.877 232.34 327.944 231.634 327.941 230.926C327.904 228.083 326.757 225.354 324.723 223.267C322.688 221.179 319.911 219.882 316.927 219.626C313.943 219.369 310.965 220.172 308.568 221.878C306.172 223.584 304.527 226.074 303.952 228.864C302.809 228.017 301.438 227.493 299.996 227.35C298.554 227.206 297.099 227.451 295.796 228.055C294.493 228.659 293.395 229.598 292.628 230.765C291.86 231.933 291.454 233.281 291.455 234.657C291.456 235.359 291.561 236.057 291.769 236.731L332.174 236.767Z" stroke="#263238" stroke-width="1.193" stroke-linecap="round" stroke-linejoin="round"/>
</svg>
